# Blender v2.76 (sub 0) OBJ File: 'my buildingQ.blend'
# www.blender.org
mtllib Cube.008.mtl
o Cube.007_Cube.008
v 0.206436 -0.200000 0.193350
v 0.206436 0.200000 0.193350
v -0.193350 -0.200000 0.206436
v -0.193350 0.200000 0.206436
v 0.193350 -0.200000 -0.206436
v 0.193350 0.200000 -0.206436
v -0.206436 -0.200000 -0.193350
v -0.206436 0.200000 -0.193350
vn 0.032700 0.000000 0.999500
vn -0.999500 0.000000 0.032700
vn -0.032700 0.000000 -0.999500
vn 0.999500 0.000000 -0.032700
vn 0.000000 -1.000000 0.000000
vn 0.000000 1.000000 0.000000
usemtl C0A47C
s off
f 4//1 3//1 1//1
f 8//2 7//2 3//2
f 6//3 5//3 7//3
f 2//4 1//4 5//4
f 3//5 7//5 5//5
f 8//6 4//6 2//6
f 2//1 4//1 1//1
f 4//2 8//2 3//2
f 8//3 6//3 7//3
f 6//4 2//4 5//4
f 1//5 3//5 5//5
f 6//6 8//6 2//6
