# Blender v2.76 (sub 0) OBJ File: 'my buildingQ.blend'
# www.blender.org
mtllib Cube.014.mtl
o Cube.013_Cube.014
v -3.874634 -0.400004 -0.136555
v -3.874634 0.399996 -0.136555
v -3.874634 -0.400004 -0.936555
v -3.874634 0.399996 -0.936555
v -3.074634 -0.400003 -0.136555
v -3.074634 0.399997 -0.136555
v -3.074634 -0.400003 -0.936555
v -3.074634 0.399997 -0.936555
v -0.400000 -0.400000 0.400000
v -0.400000 0.400000 0.400000
v -0.400000 -0.400000 -0.400000
v -0.400000 0.400000 -0.400000
v 0.400000 -0.400000 0.400000
v 0.400000 0.400000 0.400000
v 0.400000 -0.400000 -0.400000
v 0.400000 0.400000 -0.400000
v -6.106016 -0.394640 0.088508
v -6.106016 0.005360 0.088508
v -6.505802 -0.394640 0.101594
v -6.505802 0.005360 0.101594
v -6.119102 -0.394640 -0.311278
v -6.119102 0.005360 -0.311278
v -6.518888 -0.394640 -0.298192
v -6.518888 0.005360 -0.298192
v -6.556279 -0.400006 0.081931
v -6.556279 0.399994 0.081931
v -7.355850 -0.400007 0.108102
v -7.355850 0.399993 0.108102
v -6.582450 -0.400006 -0.717641
v -6.582450 0.399994 -0.717641
v -7.382021 -0.400007 -0.691469
v -7.382021 0.399993 -0.691469
v -6.581838 -0.392073 -0.735801
v -6.581838 0.407927 -0.735801
v -7.381409 -0.392074 -0.709629
v -7.381409 0.407926 -0.709629
v -6.608010 -0.392073 -1.535373
v -6.608010 0.407927 -1.535373
v -7.407581 -0.392074 -1.509201
v -7.407581 0.407926 -1.509201
v -6.095010 -0.409529 -0.342012
v -6.095010 -0.009529 -0.342012
v -6.494796 -0.409529 -0.328927
v -6.494796 -0.009529 -0.328927
v -6.108096 -0.409529 -0.741798
v -6.108096 -0.009529 -0.741798
v -6.507882 -0.409529 -0.728712
v -6.507882 -0.009529 -0.728712
v -6.990242 0.005770 -1.524794
v -6.990242 0.405770 -1.524794
v -7.390028 0.005769 -1.511708
v -7.390028 0.405769 -1.511708
v -7.003328 0.005770 -1.924580
v -7.003328 0.405770 -1.924580
v -7.403115 0.005769 -1.911494
v -7.403115 0.405769 -1.911494
v -1.271368 -0.394754 -2.772741
v -1.271368 0.005246 -2.772741
v -1.271368 -0.394754 -3.172741
v -1.271368 0.005246 -3.172741
v -0.871368 -0.394753 -2.772741
v -0.871368 0.005247 -2.772741
v -0.871368 -0.394753 -3.172741
v -0.871368 0.005247 -3.172741
v -1.798681 0.414742 -2.742414
v -1.798681 0.814742 -2.742414
v -1.798681 0.414742 -3.142414
v -1.798681 0.814742 -3.142414
v -1.398681 0.414742 -2.742414
v -1.398681 0.814742 -2.742414
v -1.398681 0.414742 -3.142414
v -1.398681 0.814742 -3.142414
v -2.228969 0.414742 -2.742414
v -2.228969 0.814742 -2.742414
v -2.228969 0.414742 -3.142414
v -2.228969 0.814742 -3.142414
v -1.828969 0.414742 -2.742414
v -1.828969 0.814742 -2.742414
v -1.828969 0.414742 -3.142414
v -1.828969 0.814742 -3.142414
v -2.094035 -0.392069 -2.389457
v -2.094035 0.407931 -2.389457
v -2.094035 -0.392069 -3.189457
v -2.094035 0.407931 -3.189457
v -1.294035 -0.392068 -2.389457
v -1.294035 0.407932 -2.389457
v -1.294035 -0.392068 -3.189457
v -1.294035 0.407932 -3.189457
v -2.912165 -0.400003 -2.390664
v -2.912165 0.399997 -2.390664
v -2.912165 -0.400003 -3.190664
v -2.912165 0.399997 -3.190664
v -2.112165 -0.400002 -2.390664
v -2.112165 0.399998 -2.390664
v -2.112165 -0.400002 -3.190664
v -2.112165 0.399998 -3.190664
v -2.658898 0.429630 -2.767498
v -2.658898 0.829630 -2.767498
v -2.658898 0.429630 -3.167498
v -2.658898 0.829630 -3.167498
v -2.258898 0.429630 -2.767498
v -2.258898 0.829630 -2.767498
v -2.258898 0.429630 -3.167498
v -2.258898 0.829630 -3.167498
vn -1.000000 0.000000 0.000000
vn 0.000000 0.000000 -1.000000
vn 1.000000 0.000000 0.000000
vn 0.000000 0.000000 1.000000
vn 0.000000 -1.000000 0.000000
vn -0.000000 1.000000 0.000000
vn 0.032700 0.000000 0.999500
vn -0.999500 0.000000 0.032700
vn -0.032700 0.000000 -0.999500
vn 0.999500 0.000000 -0.032700
usemtl C0A47C
s off
f 4//1 3//1 1//1
f 4//2 8//2 7//2
f 6//3 5//3 7//3
f 2//4 1//4 5//4
f 3//5 7//5 5//5
f 8//6 4//6 2//6
f 12//1 11//1 9//1
f 16//2 15//2 11//2
f 14//3 13//3 15//3
f 10//4 9//4 13//4
f 11//5 15//5 13//5
f 16//6 12//6 10//6
f 20//7 19//7 17//7
f 24//8 23//8 19//8
f 24//9 22//9 21//9
f 18//10 17//10 21//10
f 17//5 19//5 23//5
f 24//6 20//6 18//6
f 28//7 27//7 25//7
f 32//8 31//8 27//8
f 32//9 30//9 29//9
f 26//10 25//10 29//10
f 25//5 27//5 31//5
f 32//6 28//6 26//6
f 36//7 35//7 33//7
f 40//8 39//8 35//8
f 40//9 38//9 37//9
f 38//10 34//10 33//10
f 35//5 39//5 37//5
f 40//6 36//6 34//6
f 44//7 43//7 41//7
f 48//8 47//8 43//8
f 48//9 46//9 45//9
f 42//10 41//10 45//10
f 41//5 43//5 47//5
f 48//6 44//6 42//6
f 52//7 51//7 49//7
f 56//8 55//8 51//8
f 56//9 54//9 53//9
f 54//10 50//10 49//10
f 51//5 55//5 53//5
f 54//6 56//6 52//6
f 60//1 59//1 57//1
f 60//2 64//2 63//2
f 62//3 61//3 63//3
f 58//4 57//4 61//4
f 59//5 63//5 61//5
f 64//6 60//6 58//6
f 68//1 67//1 65//1
f 68//2 72//2 71//2
f 70//3 69//3 71//3
f 66//4 65//4 69//4
f 67//5 71//5 69//5
f 72//6 68//6 66//6
f 76//1 75//1 73//1
f 76//2 80//2 79//2
f 78//3 77//3 79//3
f 74//4 73//4 77//4
f 75//5 79//5 77//5
f 80//6 76//6 74//6
f 84//1 83//1 81//1
f 84//2 88//2 87//2
f 86//3 85//3 87//3
f 82//4 81//4 85//4
f 83//5 87//5 85//5
f 88//6 84//6 82//6
f 92//1 91//1 89//1
f 92//2 96//2 95//2
f 94//3 93//3 95//3
f 90//4 89//4 93//4
f 91//5 95//5 93//5
f 96//6 92//6 90//6
f 100//1 99//1 97//1
f 100//2 104//2 103//2
f 102//3 101//3 103//3
f 98//4 97//4 101//4
f 99//5 103//5 101//5
f 104//6 100//6 98//6
f 2//1 4//1 1//1
f 3//2 4//2 7//2
f 8//3 6//3 7//3
f 6//4 2//4 5//4
f 1//5 3//5 5//5
f 6//6 8//6 2//6
f 10//1 12//1 9//1
f 12//2 16//2 11//2
f 16//3 14//3 15//3
f 14//4 10//4 13//4
f 9//5 11//5 13//5
f 14//6 16//6 10//6
f 18//7 20//7 17//7
f 20//8 24//8 19//8
f 23//9 24//9 21//9
f 22//10 18//10 21//10
f 21//5 17//5 23//5
f 22//6 24//6 18//6
f 26//7 28//7 25//7
f 28//8 32//8 27//8
f 31//9 32//9 29//9
f 30//10 26//10 29//10
f 29//5 25//5 31//5
f 30//6 32//6 26//6
f 34//7 36//7 33//7
f 36//8 40//8 35//8
f 39//9 40//9 37//9
f 37//10 38//10 33//10
f 33//5 35//5 37//5
f 38//6 40//6 34//6
f 42//7 44//7 41//7
f 44//8 48//8 43//8
f 47//9 48//9 45//9
f 46//10 42//10 45//10
f 45//5 41//5 47//5
f 46//6 48//6 42//6
f 50//7 52//7 49//7
f 52//8 56//8 51//8
f 55//9 56//9 53//9
f 53//10 54//10 49//10
f 49//5 51//5 53//5
f 50//6 54//6 52//6
f 58//1 60//1 57//1
f 59//2 60//2 63//2
f 64//3 62//3 63//3
f 62//4 58//4 61//4
f 57//5 59//5 61//5
f 62//6 64//6 58//6
f 66//1 68//1 65//1
f 67//2 68//2 71//2
f 72//3 70//3 71//3
f 70//4 66//4 69//4
f 65//5 67//5 69//5
f 70//6 72//6 66//6
f 74//1 76//1 73//1
f 75//2 76//2 79//2
f 80//3 78//3 79//3
f 78//4 74//4 77//4
f 73//5 75//5 77//5
f 78//6 80//6 74//6
f 82//1 84//1 81//1
f 83//2 84//2 87//2
f 88//3 86//3 87//3
f 86//4 82//4 85//4
f 81//5 83//5 85//5
f 86//6 88//6 82//6
f 90//1 92//1 89//1
f 91//2 92//2 95//2
f 96//3 94//3 95//3
f 94//4 90//4 93//4
f 89//5 91//5 93//5
f 94//6 96//6 90//6
f 98//1 100//1 97//1
f 99//2 100//2 103//2
f 104//3 102//3 103//3
f 102//4 98//4 101//4
f 97//5 99//5 101//5
f 102//6 104//6 98//6
