# Blender v2.76 (sub 0) OBJ File: 'my buildingQ.blend'
# www.blender.org
mtllib ID18.mtl
o SketchUp.002_ID18
v 1.178495 1.351518 0.000000
v 2.034804 0.000000 0.000000
v 1.178495 0.000000 0.000000
v 2.034804 1.351518 0.000000
v 2.034804 1.351518 0.000000
v 1.178495 1.351518 0.000000
v 2.034804 0.000000 0.000000
v 1.178495 0.000000 0.000000
v 1.178495 1.351518 0.000000
v 1.178495 0.000000 0.000000
v 2.034804 1.351518 0.000000
v 2.034804 0.000000 0.000000
vt 1.000000 1.000000
vt 0.000000 0.000000
vt 1.000000 0.000000
vt 0.000000 1.000000
vn 0.000000 0.000000 -1.000000
vn 0.000000 0.000000 1.000000
usemtl _1
s off
f 1/1/1 2/2/1 3/3/1
f 2/2/1 1/1/1 4/4/1
f 5/4/2 6/1/2 7/2/2
f 8/3/2 7/2/2 6/1/2
l 9 10
l 9 11
l 12 11
l 10 12
