# Blender v2.76 (sub 0) OBJ File: 'my buildingQ.blend'
# www.blender.org
mtllib ID3.001.mtl
o SketchUp.001_ID3.001
v 0.000000 1.931574 0.000000
v 0.000000 0.000000 -1.031880
v 0.000000 0.000000 0.000000
v 0.000000 1.931574 -1.031880
v 0.000000 1.931574 -1.031880
v 0.000000 1.931574 0.000000
v 0.000000 0.000000 -1.031880
v 0.000000 0.000000 0.000000
v 0.000000 1.931574 0.000000
v 0.000000 1.931574 -1.031880
v 0.000000 0.000000 -1.031880
v 0.000000 0.000000 0.000000
vt 0.000000 1.000000
vt -0.984714 0.000000
vt 0.000000 0.000000
vt -0.984714 1.000000
vt 0.984714 1.000000
vt 0.984714 0.000000
vn -1.000000 0.000000 -0.000000
vn 1.000000 0.000000 0.000000
usemtl me
s off
f 1/1/1 2/2/1 3/3/1
f 2/2/1 1/1/1 4/4/1
f 5/5/2 6/1/2 7/6/2
f 8/3/2 7/6/2 6/1/2
l 9 10
l 10 11
l 11 12
l 12 9
