# Blender v2.76 (sub 0) OBJ File: 'my buildingQ.blend'
# www.blender.org
mtllib ID31.mtl
o SketchUp.004_ID31
v -1.764345 1.692190 -2.011151
v -2.442646 0.000000 -2.784337
v -1.764345 0.000000 -2.011151
v -2.442646 1.692190 -2.784337
v -2.442646 1.692190 -2.784337
v -1.764345 1.692190 -2.011151
v -2.442646 0.000000 -2.784337
v -1.764345 0.000000 -2.011151
v -1.764345 1.692190 -2.011151
v -1.764345 0.000000 -2.011151
v -2.442646 1.692190 -2.784337
v -2.442646 0.000000 -2.784337
vt -3.000000 1.000000
vt -4.000000 0.000000
vt -3.000000 0.000000
vt -4.000000 1.000000
vn -0.751700 0.000000 0.659500
vn 0.751700 0.000000 -0.659500
usemtl _3
s off
f 1/1/1 2/2/1 3/3/1
f 2/2/1 1/1/1 4/4/1
f 5/4/2 6/1/2 7/2/2
f 8/3/2 7/2/2 6/1/2
l 9 10
l 9 11
l 12 11
l 10 12
