# Blender v2.76 (sub 0) OBJ File: 'my buildingQ.blend'
# www.blender.org
mtllib Plane.023.mtl
o Plane.008_Plane.023
v -0.007975 0.356660 1.116263
v 0.095571 0.527770 1.116263
v -0.007975 0.356660 0.916263
v 0.095571 0.527770 0.916263
v -0.048131 -0.074262 0.581568
v 0.055415 0.096847 0.581568
v -0.048131 -0.074262 0.381568
v 0.055415 0.096847 0.381568
v -0.051773 -0.085555 0.341604
v 0.051773 0.085555 0.341604
v -0.051773 -0.085555 0.141604
v 0.051773 0.085555 0.141604
v -0.051773 -0.085555 0.100000
v 0.051773 0.085555 0.100000
v -0.051773 -0.085555 -0.100000
v 0.051773 0.085555 -0.100000
v -0.004966 0.384258 -0.388773
v 0.098579 0.555367 -0.388773
v -0.004966 0.384258 -0.588773
v 0.098579 0.555367 -0.588773
v -0.004418 0.384258 -0.164663
v 0.099127 0.555367 -0.164663
v -0.004418 0.384258 -0.364663
v 0.099127 0.555367 -0.364663
v -0.004966 0.177285 0.100746
v 0.098579 0.348395 0.100746
v -0.004966 0.177285 -0.099254
v 0.098579 0.348395 -0.099254
v -0.004966 0.177285 0.352531
v 0.098579 0.348395 0.352531
v -0.004966 0.177285 0.152531
v 0.098579 0.348395 0.152531
v -0.004966 0.361633 0.635522
v 0.098579 0.532743 0.635522
v -0.004966 0.361633 0.435521
v 0.098579 0.532743 0.435521
v -0.048131 -0.074262 1.015273
v 0.055415 0.096847 1.015273
v -0.048131 -0.074262 0.815273
v 0.055415 0.096847 0.815273
v -0.004966 0.182134 0.904034
v 0.098579 0.353243 0.904034
v -0.004966 0.182134 0.704034
v 0.098579 0.353243 0.704034
v -0.045503 -0.074262 -0.151175
v 0.058042 0.096848 -0.151175
v -0.045503 -0.074262 -0.351175
v 0.058042 0.096848 -0.351175
v -0.004966 0.181434 0.642984
v 0.098579 0.352543 0.642984
v -0.004966 0.181434 0.442984
v 0.098579 0.352543 0.442984
v -0.004966 0.372082 0.100746
v 0.098579 0.543191 0.100746
v -0.004966 0.372082 -0.099254
v 0.098579 0.543191 -0.099254
v -0.004966 0.182659 -0.388773
v 0.098579 0.353768 -0.388773
v -0.004966 0.182659 -0.588773
v 0.098579 0.353768 -0.588773
v -0.048131 -0.074262 1.268687
v 0.055415 0.096847 1.268687
v -0.048131 -0.074262 1.068687
v 0.055415 0.096847 1.068687
v -0.045503 -0.074262 -0.408898
v 0.058042 0.096848 -0.408898
v -0.045503 -0.074262 -0.608898
v 0.058042 0.096848 -0.608898
v -0.004966 -0.171031 -1.625077
v 0.098579 0.000078 -1.625077
v -0.004966 -0.171031 -1.825077
v 0.098579 0.000078 -1.825077
vt 0.991502 0.481323
vt 0.666554 0.481323
vt 0.666554 -0.018597
vt 0.977612 1.006386
vt 0.652664 1.006386
vt 0.652664 0.506467
vt 0.328762 1.018597
vt 0.003814 1.018597
vt 0.003814 0.518677
vt 0.664100 0.502691
vt 0.339153 0.502691
vt 0.339153 0.002772
vt 0.330746 0.502691
vt 0.005799 0.502691
vt 0.005799 0.002772
vt 0.656163 1.009439
vt 0.331216 1.009439
vt 0.331216 0.509519
vt 0.991502 -0.018597
vt 0.977612 0.506467
vt 0.328762 0.518677
vt 0.664100 0.002772
vt 0.330746 0.002772
vt 0.656163 0.509519
vn -0.855500 0.517700 0.000000
usemtl _0046_Gold.002
s off
f 2/1/1 4/2/1 3/3/1
f 6/4/1 8/5/1 7/6/1
f 10/7/1 12/8/1 11/9/1
f 14/7/1 16/8/1 15/9/1
f 18/10/1 20/11/1 19/12/1
f 22/10/1 24/11/1 23/12/1
f 26/13/1 28/14/1 27/15/1
f 30/13/1 32/14/1 31/15/1
f 34/1/1 36/2/1 35/3/1
f 38/4/1 40/5/1 39/6/1
f 42/1/1 44/2/1 43/3/1
f 46/7/1 48/8/1 47/9/1
f 50/1/1 52/2/1 51/3/1
f 54/13/1 56/14/1 55/15/1
f 58/10/1 60/11/1 59/12/1
f 62/4/1 64/5/1 63/6/1
f 66/7/1 68/8/1 67/9/1
f 70/16/1 72/17/1 71/18/1
f 1/19/1 2/1/1 3/3/1
f 5/20/1 6/4/1 7/6/1
f 9/21/1 10/7/1 11/9/1
f 13/21/1 14/7/1 15/9/1
f 17/22/1 18/10/1 19/12/1
f 21/22/1 22/10/1 23/12/1
f 25/23/1 26/13/1 27/15/1
f 29/23/1 30/13/1 31/15/1
f 33/19/1 34/1/1 35/3/1
f 37/20/1 38/4/1 39/6/1
f 41/19/1 42/1/1 43/3/1
f 45/21/1 46/7/1 47/9/1
f 49/19/1 50/1/1 51/3/1
f 53/23/1 54/13/1 55/15/1
f 57/22/1 58/10/1 59/12/1
f 61/20/1 62/4/1 63/6/1
f 65/21/1 66/7/1 67/9/1
f 69/24/1 70/16/1 71/18/1
