# Blender v2.76 (sub 0) OBJ File: 'my building1.blend'
# www.blender.org
mtllib Icosphere.mtl
o Icosphere
v -0.772247 2.208390 0.097452
v -0.745931 2.217630 0.116571
v -0.782299 2.217630 0.128388
v -0.727475 2.242592 0.129980
v -0.719614 2.237734 0.097452
v -0.804776 2.217630 0.097452
v -0.782299 2.217630 0.066515
v -0.745931 2.217630 0.078332
v -0.713402 2.270263 0.116571
v -0.789348 2.242592 0.150084
v -0.755982 2.237734 0.147508
v -0.772247 2.270263 0.159325
v -0.827588 2.242592 0.097452
v -0.814828 2.237734 0.128388
v -0.831092 2.270263 0.116571
v -0.789348 2.242592 0.044819
v -0.814828 2.237734 0.066515
v -0.808615 2.270263 0.047395
v -0.727475 2.242592 0.064923
v -0.755982 2.237734 0.047395
v -0.735879 2.270263 0.047395
v -0.735879 2.270263 0.147508
v -0.808615 2.270263 0.147508
v -0.831092 2.270263 0.078332
v -0.772247 2.270263 0.035578
v -0.713402 2.270263 0.078332
v -0.755146 2.297934 0.150084
v -0.729666 2.302792 0.128388
v -0.762195 2.322896 0.128388
v -0.817019 2.297934 0.129980
v -0.788512 2.302793 0.147508
v -0.798563 2.322896 0.116571
v -0.817019 2.297934 0.064923
v -0.824880 2.302792 0.097452
v -0.798563 2.322896 0.078332
v -0.755146 2.297934 0.044819
v -0.788512 2.302793 0.047395
v -0.762195 2.322896 0.066515
v -0.716906 2.297934 0.097452
v -0.729666 2.302792 0.066515
v -0.739718 2.322896 0.097452
v -0.772247 2.332137 0.097452
vt 0.000000 0.000000
vt 1.000000 0.000000
vt 1.000000 1.000000
vn 0.102400 -0.943500 0.315100
vn 0.700200 -0.661700 0.268000
vn -0.268000 -0.943500 -0.194700
vn 0.024700 -0.330400 0.943500
vn -0.889700 -0.330400 0.315100
vn -0.574600 -0.330400 -0.748800
vn 0.534600 -0.330400 -0.777900
vn 0.802600 -0.125600 0.583100
vn 0.408900 0.661700 0.628400
vn -0.471300 0.661700 0.583100
vn -0.700200 0.661700 -0.268000
vn 0.038600 0.661700 -0.748800
vn 0.724100 0.661700 -0.194700
vn 0.268000 0.943500 -0.194800
vn -0.331300 0.943500 0.000000
vn 0.794700 0.187600 -0.577400
vn -0.303500 0.187600 -0.934200
vn -0.982200 0.187600 0.000000
vn -0.303500 0.187600 0.934200
vn 0.889700 0.330400 0.315100
vn 0.306600 0.125600 -0.943500
vn 0.024700 -0.330400 -0.943500
vn -0.802600 0.125600 -0.583100
vn -0.889700 -0.330400 -0.315100
vn -0.802600 0.125600 0.583100
vn -0.574600 -0.330400 0.748800
vn 0.306600 0.125600 0.943500
vn 0.982200 -0.187600 0.000000
vn 0.187600 -0.794600 -0.577400
vn -0.491100 -0.794600 0.356800
vn 0.700200 -0.661700 -0.268000
vn -0.268000 -0.943500 0.194700
vn 0.102400 -0.943500 -0.315100
vn 0.905000 -0.330400 0.268000
vn -0.306600 -0.125600 0.943500
vn -0.992100 -0.125600 0.000000
vn -0.306600 -0.125600 -0.943500
vn 0.802600 -0.125600 -0.583100
vn 0.491100 0.794700 -0.356800
vn -0.102400 0.943500 -0.315100
vn -0.471300 0.661700 -0.583100
vn -0.607100 0.794700 0.000000
vn -0.102400 0.943500 0.315100
vn 0.038600 0.661700 0.748800
vn 0.491100 0.794700 0.356800
vn 0.889700 0.330400 -0.315100
vn 0.574600 0.330400 -0.748800
vn -0.024700 0.330400 -0.943500
vn -0.905000 0.330400 -0.268000
vn -0.905000 0.330400 0.268000
vn -0.534600 0.330400 0.777900
vn 0.574600 0.330400 0.748800
vn 0.303500 -0.187600 -0.934200
vn -0.794700 -0.187600 -0.577300
vn -0.794700 -0.187600 0.577300
vn 0.303500 -0.187600 0.934200
vn 0.471300 -0.661700 -0.583100
vn -0.038500 -0.661700 -0.748800
vn -0.491100 -0.794700 -0.356800
vn -0.724100 -0.661700 0.194700
vn -0.409000 -0.661700 0.628400
vn 0.607100 -0.794700 0.000000
vn 0.187600 -0.794700 0.577400
vn 0.408900 0.661700 -0.628400
vn -0.187600 0.794700 -0.577300
vn -0.700200 0.661700 0.268000
vn -0.187600 0.794700 0.577300
vn 0.268000 0.943500 0.194800
vn 0.724000 0.661700 0.194700
vn -0.534600 0.330400 -0.777900
vn -0.024700 0.330400 0.943500
vn 0.794700 0.187600 0.577400
vn 0.534600 -0.330400 0.777900
vn 0.992100 0.125600 0.000000
vn 0.905000 -0.330400 -0.268000
vn -0.409000 -0.661700 -0.628400
vn -0.724100 -0.661700 -0.194700
vn 0.331300 -0.943500 0.000000
vn -0.038500 -0.661700 0.748800
vn 0.471300 -0.661700 0.583100
usemtl _0046_Gold
s 1
f 1/1/1 2/2/1 3/3/1
f 4/1/2 2/2/2 5/3/2
f 1/1/3 6/2/3 7/3/3
f 10/1/4 11/2/4 12/3/4
f 13/1/5 14/2/5 15/3/5
f 16/1/6 17/2/6 18/3/6
f 19/1/7 20/2/7 21/3/7
f 4/1/8 9/2/8 22/3/8
f 27/1/9 28/2/9 29/3/9
f 30/1/10 31/2/10 32/3/10
f 33/1/11 34/2/11 35/3/11
f 36/1/12 37/2/12 38/3/12
f 39/1/13 40/2/13 41/3/13
f 41/1/14 38/2/14 42/3/14
f 35/1/15 32/2/15 42/3/15
f 26/1/16 21/2/16 40/3/16
f 25/1/17 18/2/17 37/3/17
f 24/1/18 15/2/18 34/3/18
f 23/1/19 12/2/19 31/3/19
f 9/1/20 39/2/20 28/3/20
f 21/1/21 25/2/21 36/3/21
f 20/1/22 16/2/22 25/3/22
f 18/1/23 24/2/23 33/3/23
f 17/1/24 13/2/24 24/3/24
f 15/1/25 23/2/25 30/3/25
f 14/1/26 10/2/26 23/3/26
f 12/1/27 22/2/27 27/3/27
f 9/1/28 5/2/28 26/3/28
f 8/1/29 7/2/29 20/3/29
f 6/1/30 3/2/30 14/3/30
f 5/1/31 8/2/31 19/3/31
s 2
f 1/1/32 3/2/32 6/3/32
f 1/1/33 7/2/33 8/3/33
f 4/1/34 5/2/34 9/3/34
f 10/1/35 12/2/35 23/3/35
f 13/1/36 15/2/36 24/3/36
f 16/1/37 18/2/37 25/3/37
f 19/1/38 21/2/38 26/3/38
f 41/1/39 40/2/39 38/3/39
f 38/1/40 35/2/40 42/3/40
f 37/1/41 33/2/41 35/3/41
f 35/1/42 34/2/42 32/3/42
f 32/1/43 29/2/43 42/3/43
f 31/1/44 27/2/44 29/3/44
f 29/1/45 28/2/45 41/3/45
f 26/1/46 40/2/46 39/3/46
f 21/1/47 36/2/47 40/3/47
f 25/1/48 37/2/48 36/3/48
f 24/1/49 34/2/49 33/3/49
f 15/1/50 30/2/50 34/3/50
f 23/1/51 31/2/51 30/3/51
f 22/1/52 28/2/52 27/3/52
f 21/1/53 20/2/53 25/3/53
f 18/1/54 17/2/54 24/3/54
f 15/1/55 14/2/55 23/3/55
f 12/1/56 11/2/56 22/3/56
f 8/1/57 20/2/57 19/3/57
f 7/1/58 16/2/58 20/3/58
f 7/1/59 6/2/59 17/3/59
f 6/1/60 14/2/60 13/3/60
f 3/1/61 10/2/61 14/3/61
f 5/1/62 2/2/62 8/3/62
f 3/1/63 2/2/63 11/3/63
s 4
f 40/1/64 36/2/64 38/3/64
f 38/1/65 37/2/65 35/3/65
f 34/1/66 30/2/66 32/3/66
f 32/1/67 31/2/67 29/3/67
f 29/1/68 41/2/68 42/3/68
f 28/1/69 39/2/69 41/3/69
f 18/1/70 33/2/70 37/3/70
f 12/1/71 27/2/71 31/3/71
f 22/1/72 9/2/72 28/3/72
f 11/1/73 4/2/73 22/3/73
f 9/1/74 26/2/74 39/3/74
f 5/1/75 19/2/75 26/3/75
f 7/1/76 17/2/76 16/3/76
f 6/1/77 13/2/77 17/3/77
f 2/1/78 1/2/78 8/3/78
f 3/1/79 11/2/79 10/3/79
s 8
f 2/1/80 4/2/80 11/3/80
