# Blender v2.76 (sub 0) OBJ File: 'my building1.blend'
# www.blender.org
mtllib ID3.mtl
o SketchUp_ID3
v 0.000000 3.400001 -6.000001
v 0.000000 0.000000 -8.000000
v 0.000000 0.000000 -1.599265
v 0.000000 3.400001 -8.000000
v 0.000000 3.400001 -8.000000
v 0.000000 3.400001 -6.000001
v 0.000000 0.000000 -8.000000
v 0.000000 0.000000 -1.599265
v 0.000000 0.000000 -1.599265
v 0.000000 0.000000 -8.000000
v 0.000000 3.400001 -6.000001
v 0.000000 3.400001 -8.000000
v 0.000000 3.400001 -8.000000
v 1.000000 0.000000 -8.000000
v 0.000000 0.000000 -8.000000
v 1.000000 3.000000 -8.000000
v 9.000000 3.000000 -8.000000
v 5.494800 3.400001 -8.000000
v 3.970800 3.400001 -8.000000
v 1.000000 3.400001 -8.000000
v 9.000000 3.400001 -8.000000
v 5.494800 3.400001 -8.000000
v 9.000000 3.000000 -8.000000
v 9.000000 3.400001 -8.000000
v 1.000000 3.400001 -8.000000
v 0.000000 3.400001 -8.000000
v 3.970800 3.400001 -8.000000
v 1.000000 3.000000 -8.000000
v 1.000000 0.000000 -8.000000
v 0.000000 0.000000 -8.000000
v 1.000000 3.400001 -8.000000
v 3.970800 3.400001 -8.000000
v 5.494800 3.400001 -8.000000
v 9.000000 3.400001 -8.000000
v 9.000000 3.000000 -8.000000
v 1.000000 3.000000 -8.000000
v 1.000000 0.000000 -8.000000
v 9.000000 3.000000 -8.000000
v 9.000000 3.400001 0.000000
v 9.000000 3.000000 0.000000
v 9.000000 3.400001 -3.732800
v 9.000000 3.400001 -8.000000
v 9.000000 3.400001 -8.000000
v 9.000000 3.000000 -8.000000
v 9.000000 3.400001 -3.732800
v 9.000000 3.400001 0.000000
v 9.000000 3.000000 0.000000
v 9.000000 3.400001 -3.732800
v 9.000000 3.400001 0.000000
v 9.000000 3.000000 0.000000
v 0.000000 5.764467 -8.000000
v 0.000000 0.000000 0.000000
v 0.000000 5.764467 0.000000
v 0.000000 0.000000 -1.599265
v 0.000000 3.400001 -6.000001
v 0.000000 3.400001 -8.000000
v 0.000000 3.400001 -8.000000
v 0.000000 5.764467 -8.000000
v 0.000000 3.400001 -6.000001
v 0.000000 0.000000 -1.599265
v 0.000000 0.000000 0.000000
v 0.000000 5.764467 0.000000
v 0.000000 3.400001 -8.000000
v 0.000000 5.764467 -8.000000
v 0.000000 3.400001 -6.000001
v 0.000000 0.000000 -1.599265
v 0.000000 0.000000 0.000000
v 0.000000 5.764467 0.000000
v 0.000000 5.764467 -8.000000
v 1.000000 3.400001 -8.000000
v 0.000000 3.400001 -8.000000
v 1.000000 5.764467 -8.000000
v 1.000000 5.764467 -8.000000
v 0.000000 5.764467 -8.000000
v 1.000000 3.400001 -8.000000
v 0.000000 3.400001 -8.000000
v 1.000000 5.764467 -8.000000
v 1.000000 3.400001 -8.000000
v 0.000000 5.764467 0.000000
v 0.200000 0.000000 0.000000
v 0.000000 0.000000 0.000000
v 0.200000 2.249591 0.000000
v 1.000000 2.249591 0.000000
v 1.000000 3.000000 0.000000
v 1.000000 3.400001 0.000000
v 9.000000 3.000000 0.000000
v 1.000000 5.764467 0.000000
v 9.000000 3.400001 0.000000
v 1.000000 3.400001 0.000000
v 9.000000 3.000000 0.000000
v 9.000000 3.400001 0.000000
v 1.000000 5.764467 0.000000
v 0.000000 5.764467 0.000000
v 1.000000 3.000000 0.000000
v 1.000000 2.249591 0.000000
v 0.200000 2.249591 0.000000
v 0.200000 0.000000 0.000000
v 0.000000 0.000000 0.000000
v 1.000000 5.764467 0.000000
v 1.000000 3.400001 0.000000
v 9.000000 3.400001 0.000000
v 9.000000 3.000000 0.000000
v 1.000000 3.000000 0.000000
v 1.000000 2.249591 0.000000
v 0.200000 2.249591 0.000000
v 0.200000 0.000000 0.000000
vn -1.000000 0.000000 0.000000
vn 0.000000 0.000000 -1.000000
vn 1.000000 0.000000 0.000000
vn 0.000000 0.000000 1.000000
usemtl ac2
s off
f 1//1 2//1 3//1
f 2//1 1//1 4//1
f 13//2 14//2 15//2
f 14//2 13//2 16//2
f 16//2 13//2 17//2
f 17//2 13//2 18//2
f 18//2 13//2 19//2
f 19//2 13//2 20//2
f 21//2 17//2 18//2
f 38//3 39//3 40//3
f 39//3 38//3 41//3
f 41//3 38//3 42//3
f 5//3 6//3 7//3
f 8//3 7//3 6//3
f 22//4 23//4 24//4
f 25//4 26//4 27//4
f 27//4 26//4 22//4
f 22//4 26//4 23//4
f 23//4 26//4 28//4
f 28//4 26//4 29//4
f 30//4 29//4 26//4
f 43//1 44//1 45//1
f 45//1 44//1 46//1
f 47//1 46//1 44//1
f 51//1 52//1 53//1
f 52//1 51//1 54//1
f 54//1 51//1 55//1
f 55//1 51//1 56//1
f 57//3 58//3 59//3
f 59//3 58//3 60//3
f 60//3 58//3 61//3
f 62//3 61//3 58//3
f 69//2 70//2 71//2
f 70//2 69//2 72//2
f 73//4 74//4 75//4
f 76//4 75//4 74//4
f 79//2 80//2 81//2
f 80//2 79//2 82//2
f 82//2 79//2 83//2
f 83//2 79//2 84//2
f 84//2 79//2 85//2
f 84//2 85//2 86//2
f 85//2 79//2 87//2
f 88//2 86//2 85//2
f 89//4 90//4 91//4
f 92//4 93//4 89//4
f 90//4 89//4 94//4
f 89//4 93//4 94//4
f 94//4 93//4 95//4
f 95//4 93//4 96//4
f 96//4 93//4 97//4
f 98//4 97//4 93//4
l 9 10
l 11 9
l 11 12
l 12 10
l 31 12
l 31 32
l 32 33
l 33 34
l 35 34
l 35 36
l 37 36
l 10 37
l 34 48
l 48 49
l 49 50
l 50 35
l 63 64
l 65 63
l 65 66
l 67 66
l 67 68
l 68 64
l 77 78
l 78 63
l 77 64
l 99 100
l 101 100
l 101 102
l 102 103
l 104 103
l 105 104
l 106 105
l 106 67
l 99 68
