# Blender v2.76 (sub 0) OBJ File: 'my building1.blend'
# www.blender.org
mtllib ID44.mtl
o SketchUp.004_ID44
v 1.000000 5.764467 -8.000000
v 1.100000 3.922007 -8.000000
v 1.000000 3.400001 -8.000000
v 1.100000 5.442007 -8.000000
v 2.554303 5.442007 -8.000000
v 3.970800 5.764464 -8.000000
v 3.970800 3.400001 -8.000000
v 2.554303 3.922007 -8.000000
v 2.554303 5.442007 -8.000000
v 2.554303 3.922007 -8.000000
v 3.970800 5.764464 -8.000000
v 1.100000 3.922007 -8.000000
v 1.000000 3.400001 -8.000000
v 3.970800 3.400001 -8.000000
v 1.000000 5.764467 -8.000000
v 1.100000 5.442007 -8.000000
v 1.000000 3.400001 -8.000000
v 3.970800 3.400001 -8.000000
v 1.000000 5.764467 -8.000000
v 3.970800 5.764464 -8.000000
v 2.554303 5.442007 -8.000000
v 1.100000 5.442007 -8.000000
v 1.100000 3.922007 -8.000000
v 2.554303 3.922007 -8.000000
v 1.000000 5.764467 -8.000000
v 1.000000 3.400001 0.000000
v 1.000000 5.764467 0.000000
v 1.000000 5.442007 -7.016400
v 1.000000 3.400001 -6.000001
v 1.000000 3.400001 -7.016400
v 1.000000 5.442007 -7.880000
v 1.000000 3.400001 -7.880000
v 1.000000 3.400001 -8.000000
v 1.000000 3.400001 -8.000000
v 1.000000 5.764467 -8.000000
v 1.000000 3.400001 -7.880000
v 1.000000 5.442007 -7.880000
v 1.000000 5.442007 -7.016400
v 1.000000 3.400001 -7.016400
v 1.000000 3.400001 -6.000001
v 1.000000 3.400001 0.000000
v 1.000000 5.764467 0.000000
v 1.000000 3.400001 -7.016400
v 1.000000 3.400001 -6.000001
v 1.000000 3.400001 0.000000
v 1.000000 5.764467 0.000000
v 1.000000 3.400001 -7.880000
v 1.000000 5.442007 -7.880000
v 1.000000 5.442007 -7.016400
v 1.000000 3.400001 0.000000
v 1.100000 3.944465 0.000000
v 9.000000 3.400001 0.000000
v 1.000000 5.764467 0.000000
v 1.100000 5.444468 0.000000
v 2.600000 5.444468 0.000000
v 3.750000 5.444468 0.000000
v 5.250000 5.444468 0.000000
v 6.400001 5.444468 0.000000
v 7.900000 5.444468 0.000000
v 7.900000 3.944465 0.000000
v 9.000000 5.764467 0.000000
v 2.600000 3.944465 0.000000
v 3.750000 3.944465 0.000000
v 5.250000 3.944465 0.000000
v 6.400001 3.944465 0.000000
v 3.750000 5.444468 0.000000
v 2.600000 5.444468 0.000000
v 3.750000 3.944465 0.000000
v 2.600000 3.944465 0.000000
v 6.400001 5.444468 0.000000
v 5.250000 5.444468 0.000000
v 6.400001 3.944465 0.000000
v 5.250000 3.944465 0.000000
v 1.000000 5.764467 0.000000
v 7.900000 5.444468 0.000000
v 9.000000 5.764467 0.000000
v 7.900000 3.944465 0.000000
v 1.100000 3.944465 0.000000
v 9.000000 3.400001 0.000000
v 1.100000 5.444468 0.000000
v 1.000000 3.400001 0.000000
v 1.000000 5.764467 0.000000
v 1.000000 3.400001 0.000000
v 9.000000 5.764467 0.000000
v 9.000000 3.400001 0.000000
v 2.600000 5.444468 0.000000
v 2.600000 3.944465 0.000000
v 1.100000 5.444468 0.000000
v 1.100000 3.944465 0.000000
v 6.400001 5.444468 0.000000
v 7.900000 5.444468 0.000000
v 6.400001 3.944465 0.000000
v 7.900000 3.944465 0.000000
v 5.250000 5.444468 0.000000
v 5.250000 3.944465 0.000000
v 3.750000 5.444468 0.000000
v 3.750000 3.944465 0.000000
v 9.000000 3.400001 -3.732800
v 9.000000 5.764467 0.000000
v 9.000000 3.400001 0.000000
v 9.000000 5.764467 -3.732800
v 9.000000 5.764467 -3.732800
v 9.000000 3.400001 -3.732800
v 9.000000 5.764467 0.000000
v 9.000000 3.400001 0.000000
v 9.000000 3.400001 -3.732800
v 9.000000 3.400001 0.000000
v 9.000000 5.764467 -3.732800
v 9.000000 5.764467 0.000000
vn 0.000000 0.000000 -1.000000
vn -1.000000 0.000000 0.000000
vn 0.000000 0.000000 1.000000
vn 1.000000 0.000000 0.000000
usemtl ac2
s off
f 1//1 2//1 3//1
f 2//1 1//1 4//1
f 4//1 1//1 5//1
f 5//1 1//1 6//1
f 7//1 8//1 6//1
f 8//1 7//1 3//1
f 8//1 3//1 2//1
f 6//1 8//1 5//1
f 25//2 26//2 27//2
f 26//2 25//2 28//2
f 26//2 28//2 29//2
f 29//2 28//2 30//2
f 28//2 25//2 31//2
f 31//2 25//2 32//2
f 32//2 25//2 33//2
f 66//3 67//3 68//3
f 69//3 68//3 67//3
f 70//3 71//3 72//3
f 73//3 72//3 71//3
f 74//3 75//3 76//3
f 75//3 77//3 76//3
f 72//1 73//1 77//1
f 73//3 68//3 77//3
f 68//1 69//1 77//1
f 69//3 78//3 77//3
f 78//3 79//3 77//3
f 76//3 77//3 79//3
f 75//3 74//3 70//3
f 70//3 74//3 71//3
f 71//3 74//3 66//3
f 66//3 74//3 67//3
f 67//3 74//3 80//3
f 80//3 74//3 78//3
f 74//3 81//3 78//3
f 79//3 78//3 81//3
f 98//4 99//4 100//4
f 99//4 98//4 101//4
usemtl ac1.001
f 9//3 10//3 11//3
f 12//3 13//3 10//3
f 13//3 14//3 10//3
f 11//3 10//3 14//3
f 11//3 15//3 9//3
f 9//3 15//3 16//3
f 16//3 15//3 12//3
f 13//3 12//3 15//3
f 34//4 35//4 36//4
f 36//4 35//4 37//4
f 37//4 35//4 38//4
f 39//4 38//4 40//4
f 40//4 38//4 41//4
f 38//4 35//4 41//4
f 42//4 41//4 35//4
f 102//2 103//2 104//2
f 105//2 104//2 103//2
usemtl Color_C01.001
f 50//1 51//1 52//1
f 51//1 50//1 53//1
f 51//1 53//1 54//1
f 54//1 53//1 55//1
f 55//1 53//1 56//1
f 56//1 53//1 57//1
f 57//1 53//1 58//1
f 58//1 53//1 59//1
f 52//1 60//1 61//1
f 60//1 52//1 51//1
f 60//1 51//1 62//1
f 60//3 62//3 63//3
f 60//1 63//1 64//1
f 60//3 64//3 65//3
f 61//1 60//1 59//1
f 61//1 59//1 53//1
f 57//1 65//1 64//1
f 65//1 57//1 58//1
f 55//1 63//1 62//1
f 63//1 55//1 56//1
l 17 18
l 19 17
l 20 19
l 20 18
l 21 22
l 22 23
l 23 24
l 24 21
l 43 44
l 45 44
l 46 45
l 46 19
l 17 47
l 47 48
l 48 49
l 43 49
l 82 83
l 84 82
l 84 85
l 85 83
l 86 87
l 88 86
l 89 88
l 87 89
l 90 91
l 92 90
l 93 92
l 91 93
l 94 95
l 96 94
l 97 96
l 95 97
l 106 107
l 106 108
l 108 109
l 109 107
