# Blender v2.76 (sub 0) OBJ File: 'my building1.blend'
# www.blender.org
mtllib ID60.mtl
o SketchUp.006_ID60
v 3.970800 3.400001 -8.000000
v 3.970800 5.764464 -6.476002
v 3.970800 3.400001 -6.476002
v 3.970800 5.764464 -8.000000
v 3.970800 5.764464 -8.000000
v 3.970800 3.400001 -8.000000
v 3.970800 5.764464 -6.476002
v 3.970800 3.400001 -6.476002
v 3.970800 5.764464 -8.000000
v 3.970800 5.764464 -6.476002
v 3.970800 3.400001 -6.476002
v 3.970800 3.400001 -8.000000
vn 1.000000 0.000000 0.000000
vn -1.000000 0.000000 0.000000
usemtl Lisanne_Caulk
s off
f 1//1 2//1 3//1
f 2//1 1//1 4//1
usemtl Color_C01.001
f 5//2 6//2 7//2
f 8//2 7//2 6//2
l 9 10
l 10 11
l 11 12
l 9 12
