# Blender v2.76 (sub 0) OBJ File: 'my building1.blend'
# www.blender.org
mtllib ID73.008.mtl
o instance_0.007_ID73.008
v -0.000000 3.000000 0.000000
v -1.000000 3.000000 0.000000
v -1.000000 3.000000 0.000000
v -1.000000 2.249591 0.000000
v -8.000000 3.000000 -0.000001
v -9.000000 3.000000 -0.000001
v -0.240001 5.764466 7.750001
v -0.240001 5.864466 7.750001
v -8.750002 5.764466 7.750000
v -8.750002 5.864466 7.750000
v -0.240000 5.764467 0.250001
v -0.240000 5.864467 0.250001
v -8.750001 5.764467 0.250000
v -8.750001 5.864467 0.250000
v -1.000000 3.700001 0.000000
v -1.000000 3.000000 0.000000
v -8.000000 3.700001 -0.000001
v -1.000000 3.700001 0.000000
v -8.000000 3.000000 -0.000001
v -8.000000 3.700001 -0.000001
v -1.000000 3.000000 0.000000
v -8.000000 3.000000 -0.000001
v -6.000001 0.000000 -0.000001
v -4.000000 0.000000 -0.000001
v -6.000001 2.500000 -0.000000
v -4.000000 2.500000 -0.000000
v -6.000001 2.500000 -0.000000
v -6.000001 0.000000 -0.000001
v -6.000001 0.000000 -0.000001
v -4.000000 0.000000 -0.000001
v -4.000000 0.000000 -0.000001
v -4.000000 2.500000 -0.000000
v -4.000000 2.500000 -0.000000
v -6.000001 2.500000 -0.000000
v -7.900000 5.444468 -0.000000
v -7.900000 3.944465 -0.000001
v -7.900000 3.944465 -0.000001
v -6.400001 3.944465 -0.000000
v -6.400001 3.944465 -0.000000
v -6.400001 5.444468 -0.000000
v -6.400001 5.444468 -0.000000
v -7.900000 5.444468 -0.000000
v -5.250000 3.944465 -0.000000
v -3.750000 3.944465 0.000000
v -3.750000 3.944465 0.000000
v -3.750000 5.444468 0.000000
v -3.750000 5.444468 0.000000
v -5.250000 5.444468 0.000000
v -5.250000 5.444468 0.000000
v -5.250000 3.944465 -0.000000
v -1.100000 3.944465 0.000000
v -1.100000 5.444468 0.000001
v -1.100000 5.444468 0.000001
v -2.600000 5.444468 0.000000
v -2.600000 5.444468 0.000000
v -2.600000 3.944465 0.000000
v -2.600000 3.944465 0.000000
v -1.100000 3.944465 0.000000
v -8.750001 5.864467 0.250000
v -0.240000 5.864467 0.250001
v -8.750002 5.864466 7.750000
v -8.750001 5.864467 0.250000
v -0.240001 5.864466 7.750001
v -8.750002 5.864466 7.750000
v -0.240001 5.864466 7.750001
v -0.240000 5.864467 0.250001
v -1.000000 2.249591 0.000000
v -0.200000 2.249591 0.000000
v -0.200000 2.249591 0.000000
v -0.200000 0.000000 -0.000000
v -1.000000 0.000000 -0.000000
v -0.200000 0.000000 -0.000000
v -1.000000 2.249591 0.000000
v -1.000000 0.000000 -0.000000
v -8.750002 5.864466 7.750000
v -8.750001 5.864467 0.250000
v -8.750002 6.399999 7.750000
v -8.750001 6.400001 0.250000
v -8.750002 5.864466 7.750000
v -8.750002 6.399999 7.750000
v -0.240001 5.864466 7.750001
v -8.750002 5.864466 7.750000
v -0.240001 6.399999 7.750001
v -8.750002 6.399999 7.750000
v -8.750001 5.864467 0.250000
v -0.240000 5.864467 0.250001
v -8.750001 5.864467 0.250000
v -8.750001 6.400001 0.250000
v -8.750001 6.400001 0.250000
v -0.240000 6.400001 0.250001
v -0.240001 5.864466 7.750001
v -0.240001 6.399999 7.750001
v -0.240001 5.864466 7.750001
v -0.240000 5.864467 0.250001
v -0.240000 5.864467 0.250001
v -0.240000 6.400001 0.250001
v -0.240001 6.399999 7.750001
v -0.240000 6.400001 0.250001
v -6.000001 0.000000 -0.000001
v -4.000000 0.000000 -0.000001
v -6.000001 2.500000 -0.000000
v -6.000001 0.000000 -0.000001
v -4.000000 2.500000 -0.000000
v -6.000001 2.500000 -0.000000
v -4.000000 0.000000 -0.000001
v -4.000000 2.500000 -0.000000
v -3.750000 5.444468 0.000000
v -5.250000 5.444468 0.000000
v -3.750000 3.944465 0.000000
v -3.750000 5.444468 0.000000
v -5.250000 3.944465 -0.000000
v -3.750000 3.944465 0.000000
v -5.250000 5.444468 0.000000
v -5.250000 3.944465 -0.000000
v -6.400001 3.944465 -0.000000
v -6.400001 5.444468 -0.000000
v -7.900000 3.944465 -0.000001
v -6.400001 3.944465 -0.000000
v -7.900000 5.444468 -0.000000
v -7.900000 3.944465 -0.000001
v -6.400001 5.444468 -0.000000
v -7.900000 5.444468 -0.000000
v -1.100000 5.444468 0.000001
v -2.600000 5.444468 0.000000
v -1.100000 3.944465 0.000000
v -1.100000 5.444468 0.000001
v -2.600000 3.944465 0.000000
v -1.100000 3.944465 0.000000
v -2.600000 5.444468 0.000000
v -2.600000 3.944465 0.000000
v -8.000000 3.000000 -0.000001
v -8.000000 3.700001 -0.000001
v -8.000000 3.700001 -0.000001
v -1.000000 3.700001 0.000000
v -1.000000 3.700001 0.000000
v -1.000000 3.000000 0.000000
v -1.000000 0.000000 -0.000000
v -0.200000 0.000000 -0.000000
v -1.000000 0.000000 -0.000000
v -1.000001 -0.000001 8.000000
v -1.000001 -0.000001 8.000000
v -0.000001 -0.000001 8.000000
v -1.000001 -0.000001 8.000000
v -1.000001 2.999998 8.000001
v -9.000002 -0.000001 7.999999
v -1.000001 -0.000001 8.000000
v -9.000002 -0.000001 7.999999
v -9.000000 0.000000 -0.000001
v -9.000002 2.999998 7.999999
v -9.000002 -0.000001 7.999999
v -9.000000 0.000000 -0.000001
v -6.000001 0.000000 -0.000001
v -4.000000 0.000000 -0.000001
v -1.000000 0.000000 -0.000000
v -1.000000 2.249591 0.000000
v -1.000000 0.000000 -0.000000
v -1.000000 3.000000 0.000000
v -8.000000 3.000000 -0.000001
v -9.000000 3.000000 -0.000001
v -9.000000 0.000000 -0.000001
v -1.000000 2.249591 0.000000
v -0.200000 2.249591 0.000000
v -0.200000 2.249591 0.000000
v -0.200000 0.000000 -0.000000
v -0.200000 0.000000 -0.000000
v 0.000000 0.000000 0.000000
v -1.000001 2.999998 8.000001
v -1.000000 3.000000 0.000000
v -0.000001 -0.000001 8.000000
v 0.000000 0.000000 0.000000
v -0.000001 2.999998 8.000001
v -0.000001 -0.000001 8.000000
v -0.000000 3.000000 0.000000
v 0.000000 0.000000 0.000000
v -1.000001 2.999998 8.000001
v -0.000001 2.999998 8.000001
v -9.000002 2.999998 7.999999
v -1.000001 2.999998 8.000001
v -9.000002 6.399999 7.999999
v -9.000002 2.999998 7.999999
v -9.000000 3.000000 -0.000001
v -9.000002 2.999998 7.999999
v -9.000000 6.400001 -0.000000
v -9.000000 3.000000 -0.000001
v -0.000000 6.400001 0.000001
v -0.000000 3.000000 0.000000
v -0.000001 2.999998 8.000001
v -0.000000 3.000000 0.000000
v -0.000001 6.399999 8.000001
v -0.000001 2.999998 8.000001
v -8.750002 6.399999 7.750000
v -8.750001 6.400001 0.250000
v -0.240001 6.399999 7.750001
v -8.750002 6.399999 7.750000
v -0.240001 6.399999 7.750001
v -0.240000 6.400001 0.250001
v -8.750001 6.400001 0.250000
v -0.240000 6.400001 0.250001
v -0.000001 6.399999 8.000001
v -9.000002 6.399999 7.999999
v -9.000002 6.399999 7.999999
v -9.000000 6.400001 -0.000000
v -9.000000 6.400001 -0.000000
v -0.000000 6.400001 0.000001
v -0.000000 6.400001 0.000001
v -0.000001 6.399999 8.000001
v -8.000000 3.000000 -0.000001
v -1.000001 2.999998 8.000001
v -1.000000 3.000000 0.000000
v -9.000002 2.999998 7.999999
v -9.000000 3.000000 -0.000001
v -9.000000 3.000000 -0.000001
v -8.000000 3.000000 -0.000001
v -9.000002 2.999998 7.999999
v -1.000001 2.999998 8.000001
v -1.000000 3.000000 0.000000
v -8.000000 3.000000 -0.000001
v -1.000000 3.000000 0.000000
v -9.000000 3.000000 -0.000001
v -9.000002 2.999998 7.999999
v -1.000001 2.999998 8.000001
v -8.000000 3.700001 -0.000001
v -1.000000 3.000000 0.000000
v -8.000000 3.000000 -0.000001
v -1.000000 3.700001 0.000000
v -1.000000 3.700001 0.000000
v -8.000000 3.700001 -0.000001
v -1.000000 3.000000 0.000000
v -8.000000 3.000000 -0.000001
v -8.000000 3.000000 -0.000001
v -8.000000 3.700001 -0.000001
v -1.000000 3.700001 0.000000
v -1.000000 3.000000 0.000000
v -7.900000 5.444468 -0.000000
v -6.400001 3.944465 -0.000000
v -7.900000 3.944465 -0.000001
v -6.400001 5.444468 -0.000000
v -6.400001 5.444468 -0.000000
v -7.900000 5.444468 -0.000000
v -6.400001 3.944465 -0.000000
v -7.900000 3.944465 -0.000001
v -7.900000 3.944465 -0.000001
v -7.900000 5.444468 -0.000000
v -6.400001 5.444468 -0.000000
v -6.400001 3.944465 -0.000000
v -5.250000 5.444468 0.000000
v -3.750000 3.944465 0.000000
v -5.250000 3.944465 -0.000000
v -3.750000 5.444468 0.000000
v -3.750000 5.444468 0.000000
v -5.250000 5.444468 0.000000
v -3.750000 3.944465 0.000000
v -5.250000 3.944465 -0.000000
v -5.250000 3.944465 -0.000000
v -5.250000 5.444468 0.000000
v -3.750000 5.444468 0.000000
v -3.750000 3.944465 0.000000
v -2.600000 5.444468 0.000000
v -1.100000 3.944465 0.000000
v -2.600000 3.944465 0.000000
v -1.100000 5.444468 0.000001
v -1.100000 5.444468 0.000001
v -2.600000 5.444468 0.000000
v -1.100000 3.944465 0.000000
v -2.600000 3.944465 0.000000
v -2.600000 3.944465 0.000000
v -2.600000 5.444468 0.000000
v -1.100000 5.444468 0.000001
v -1.100000 3.944465 0.000000
v -8.750002 5.864466 7.750000
v -0.240000 5.864467 0.250001
v -0.240001 5.864466 7.750001
v -8.750001 5.864467 0.250000
v -8.750001 5.864467 0.250000
v -8.750002 5.864466 7.750000
v -0.240000 5.864467 0.250001
v -0.240001 5.864466 7.750001
v -0.240001 5.864466 7.750001
v -8.750002 5.864466 7.750000
v -8.750001 5.864467 0.250000
v -0.240000 5.864467 0.250001
v -0.200000 2.249591 0.000000
v -1.000000 0.000000 -0.000000
v -0.200000 0.000000 -0.000000
v -1.000000 2.249591 0.000000
v -1.000000 2.249591 0.000000
v -0.200000 2.249591 0.000000
v -1.000000 0.000000 -0.000000
v -0.200000 0.000000 -0.000000
v -0.200000 0.000000 -0.000000
v -0.200000 2.249591 0.000000
v -1.000000 2.249591 0.000000
v -1.000000 0.000000 -0.000000
v -0.240001 5.864466 7.750001
v -0.240000 6.400001 0.250001
v -0.240000 5.864467 0.250001
v -0.240001 6.399999 7.750001
v -0.240001 6.399999 7.750001
v -0.240001 5.864466 7.750001
v -0.240000 6.400001 0.250001
v -0.240000 5.864467 0.250001
v -0.240000 5.864467 0.250001
v -0.240001 5.864466 7.750001
v -0.240001 6.399999 7.750001
v -0.240000 6.400001 0.250001
v -8.750002 6.399999 7.750000
v -0.240001 5.864466 7.750001
v -8.750002 5.864466 7.750000
v -0.240001 6.399999 7.750001
v -0.240001 6.399999 7.750001
v -8.750002 6.399999 7.750000
v -0.240001 5.864466 7.750001
v -8.750002 5.864466 7.750000
v -8.750002 5.864466 7.750000
v -8.750002 6.399999 7.750000
v -0.240000 6.400001 0.250001
v -8.750001 5.864467 0.250000
v -0.240000 5.864467 0.250001
v -8.750001 6.400001 0.250000
v -8.750001 6.400001 0.250000
v -0.240000 6.400001 0.250001
v -8.750001 5.864467 0.250000
v -0.240000 5.864467 0.250001
v -8.750001 6.400001 0.250000
v -8.750001 5.864467 0.250000
v -8.750002 6.399999 7.750000
v -8.750001 5.864467 0.250000
v -8.750001 6.400001 0.250000
v -8.750002 5.864466 7.750000
v -8.750002 5.864466 7.750000
v -8.750002 6.399999 7.750000
v -8.750001 5.864467 0.250000
v -8.750001 6.400001 0.250000
v -9.000002 -0.000001 7.999999
v -1.000000 0.000000 -0.000000
v -1.000001 -0.000001 8.000000
v -4.000000 0.000000 -0.000001
v -6.000001 0.000000 -0.000001
v -9.000000 0.000000 -0.000001
v -9.000000 0.000000 -0.000001
v -9.000002 -0.000001 7.999999
v -6.000001 0.000000 -0.000001
v -4.000000 0.000000 -0.000001
v -1.000000 0.000000 -0.000000
v -1.000001 -0.000001 8.000000
v -9.000002 -0.000001 7.999999
v -1.000001 -0.000001 8.000000
v -9.000000 0.000000 -0.000001
v -6.000001 0.000000 -0.000001
v -4.000000 0.000000 -0.000001
v -1.000000 0.000000 -0.000000
v -9.000002 -0.000001 7.999999
v -9.000000 3.000000 -0.000001
v -9.000000 0.000000 -0.000001
v -9.000002 2.999998 7.999999
v -9.000002 2.999998 7.999999
v -9.000002 -0.000001 7.999999
v -9.000000 3.000000 -0.000001
v -9.000000 0.000000 -0.000001
v -9.000000 0.000000 -0.000001
v -9.000002 -0.000001 7.999999
v -9.000002 2.999998 7.999999
v -9.000000 3.000000 -0.000001
v -1.000001 2.999998 8.000001
v -9.000002 -0.000001 7.999999
v -1.000001 -0.000001 8.000000
v -9.000002 2.999998 7.999999
v -9.000002 2.999998 7.999999
v -1.000001 2.999998 8.000001
v -9.000002 -0.000001 7.999999
v -1.000001 -0.000001 8.000000
v -1.000001 -0.000001 8.000000
v -1.000001 2.999998 8.000001
v -9.000000 3.000000 -0.000001
v -6.000001 0.000000 -0.000001
v -9.000000 0.000000 -0.000001
v -6.000001 2.500000 -0.000000
v -4.000000 2.500000 -0.000000
v -1.000000 0.000000 -0.000000
v -4.000000 0.000000 -0.000001
v -1.000000 2.249591 0.000000
v -1.000000 3.000000 0.000000
v -9.000000 3.000000 -0.000001
v -4.000000 2.500000 -0.000000
v -1.000000 3.000000 0.000000
v -1.000000 2.249591 0.000000
v -1.000000 0.000000 -0.000000
v -4.000000 0.000000 -0.000001
v -6.000001 2.500000 -0.000000
v -6.000001 0.000000 -0.000001
v -9.000000 0.000000 -0.000001
v -4.000000 0.000000 -0.000001
v -4.000000 2.500000 -0.000000
v -6.000001 2.500000 -0.000000
v -6.000001 0.000000 -0.000001
v -1.000000 3.000000 0.000000
v -1.000000 2.249591 0.000000
v -1.000000 0.000000 -0.000000
v -1.000001 2.999998 8.000001
v -1.000000 2.249591 0.000000
v -1.000000 3.000000 0.000000
v -1.000000 0.000000 -0.000000
v -1.000001 -0.000001 8.000000
v -1.000001 -0.000001 8.000000
v -1.000001 2.999998 8.000001
v -1.000000 0.000000 -0.000000
v -1.000000 2.249591 0.000000
v -1.000000 3.000000 0.000000
v -0.000000 6.400001 0.000001
v -0.240000 6.400001 0.250001
v -0.000001 6.399999 8.000001
v -9.000000 6.400001 -0.000000
v -8.750001 6.400001 0.250000
v -8.750002 6.399999 7.750000
v -0.240001 6.399999 7.750001
v -9.000002 6.399999 7.999999
v -9.000000 6.400001 -0.000000
v -8.750002 6.399999 7.750000
v -9.000002 6.399999 7.999999
v -0.240001 6.399999 7.750001
v -0.240000 6.400001 0.250001
v -0.000001 6.399999 8.000001
v -8.750001 6.400001 0.250000
v -0.000000 6.400001 0.000001
v -9.000000 6.400001 -0.000000
v -9.000002 6.399999 7.999999
v -0.000001 6.399999 8.000001
v -0.000000 6.400001 0.000001
v -0.240001 6.399999 7.750001
v -8.750002 6.399999 7.750000
v -8.750001 6.400001 0.250000
v -0.240000 6.400001 0.250001
v -9.000002 2.999998 7.999999
v -9.000000 6.400001 -0.000000
v -9.000000 3.000000 -0.000001
v -9.000002 6.399999 7.999999
v -9.000002 6.399999 7.999999
v -9.000002 2.999998 7.999999
v -9.000000 6.400001 -0.000000
v -9.000000 3.000000 -0.000001
v -9.000000 3.000000 -0.000001
v -9.000002 2.999998 7.999999
v -0.000001 6.399999 8.000001
v -1.000001 2.999998 8.000001
v -0.000001 2.999998 8.000001
v -9.000002 2.999998 7.999999
v -9.000002 6.399999 7.999999
v -9.000002 6.399999 7.999999
v -0.000001 6.399999 8.000001
v -9.000002 2.999998 7.999999
v -1.000001 2.999998 8.000001
v -0.000001 2.999998 8.000001
v -1.000001 2.999998 8.000001
v -0.000001 2.999998 8.000001
v -0.000001 6.399999 8.000001
v -0.000000 3.000000 0.000000
v -0.000000 6.400001 0.000001
v -0.000001 2.999998 8.000001
v -0.000001 2.999998 8.000001
v -0.000001 6.399999 8.000001
v -0.000000 3.000000 0.000000
v -0.000000 6.400001 0.000001
v -0.000000 3.000000 0.000000
v -9.000000 6.400001 -0.000000
v -8.000000 3.000000 -0.000001
v -9.000000 3.000000 -0.000001
v -8.000000 3.700001 -0.000001
v -7.900000 3.944465 -0.000001
v -1.000000 3.700001 0.000000
v -7.900000 5.444468 -0.000000
v -6.400001 5.444468 -0.000000
v -5.250000 5.444468 0.000000
v -3.750000 5.444468 0.000000
v -2.600000 5.444468 0.000000
v -1.100000 5.444468 0.000001
v -0.000000 3.000000 0.000000
v -1.000000 3.000000 0.000000
v -0.000000 6.400001 0.000001
v -1.100000 3.944465 0.000000
v -6.400001 3.944465 -0.000000
v -5.250000 3.944465 -0.000000
v -3.750000 3.944465 0.000000
v -2.600000 3.944465 0.000000
v -5.250000 5.444468 0.000000
v -6.400001 5.444468 -0.000000
v -5.250000 3.944465 -0.000000
v -6.400001 3.944465 -0.000000
v -2.600000 5.444468 0.000000
v -3.750000 5.444468 0.000000
v -2.600000 3.944465 0.000000
v -3.750000 3.944465 0.000000
v -9.000000 6.400001 -0.000000
v -1.100000 5.444468 0.000001
v -0.000000 6.400001 0.000001
v -1.100000 3.944465 0.000000
v -7.900000 3.944465 -0.000001
v -1.000000 3.700001 0.000000
v -0.000000 3.000000 0.000000
v -1.000000 3.000000 0.000000
v -7.900000 5.444468 -0.000000
v -8.000000 3.700001 -0.000001
v -8.000000 3.000000 -0.000001
v -9.000000 3.000000 -0.000001
v -1.000000 3.000000 0.000000
v -1.000000 3.700001 0.000000
v -8.000000 3.700001 -0.000001
v -8.000000 3.000000 -0.000001
v -5.250000 5.444468 0.000000
v -5.250000 3.944465 -0.000000
v -6.400001 3.944465 -0.000000
v -6.400001 5.444468 -0.000000
v -7.900000 5.444468 -0.000000
v -7.900000 3.944465 -0.000001
v -1.100000 3.944465 0.000000
v -1.100000 5.444468 0.000001
v -2.600000 5.444468 0.000000
v -2.600000 3.944465 0.000000
v -3.750000 3.944465 0.000000
v -3.750000 5.444468 0.000000
v -1.000001 -0.000001 8.000000
v -0.000001 -0.000001 8.000000
v -1.000001 -0.000001 8.000000
v -0.000001 -0.000001 8.000000
v -0.000001 -0.000001 8.000000
v -1.000001 -0.000001 8.000000
v -1.000000 3.000000 0.000000
v -0.000001 2.999998 8.000001
v -0.000000 3.000000 0.000000
v -1.000001 2.999998 8.000001
v -1.000001 2.999998 8.000001
v -1.000000 3.000000 0.000000
v -0.000001 2.999998 8.000001
v -0.000000 3.000000 0.000000
v 0.000000 0.000000 0.000000
v -0.000001 -0.000001 8.000000
v -0.000001 -0.000001 8.000000
v 0.000000 0.000000 0.000000
v 0.000000 0.000000 0.000000
v -0.200000 2.249591 0.000000
v -1.000000 2.249591 0.000000
v 0.000000 0.000000 0.000000
v -0.200000 0.000000 -0.000000
v -0.200000 2.249591 0.000000
v 0.000000 0.000000 0.000000
v -0.200000 0.000000 -0.000000
v -1.000000 2.249591 0.000000
v -0.200000 0.000000 -0.000000
v -0.200000 2.249591 0.000000
v -1.000000 2.249591 0.000000
v -1.000001 -0.000001 8.000000
v 0.000000 0.000000 0.000000
v -0.000001 -0.000001 8.000000
v -0.200000 0.000000 -0.000000
v -1.000000 0.000000 -0.000000
v -1.000000 0.000000 -0.000000
v -1.000001 -0.000001 8.000000
v -0.200000 0.000000 -0.000000
v 0.000000 0.000000 0.000000
v -0.000001 -0.000001 8.000000
v -1.000000 0.000000 -0.000000
vn 0.000000 0.000000 -1.000000
vn -0.000000 -0.000000 1.000000
vn -0.000000 1.000000 0.000000
vn 0.000000 -1.000000 -0.000000
vn -1.000000 -0.000000 -0.000000
vn 1.000000 0.000000 0.000000
vn 0.000000 1.000000 0.000100
usemtl edge_color000255.005
s 1
f 222//1 223//1 224//1
f 223//1 222//1 225//1
f 226//2 227//2 228//2
f 229//2 228//2 227//2
usemtl Color_C01.001
f 207//3 208//3 209//3
f 208//3 207//3 210//3
f 210//3 207//3 211//3
f 270//4 271//4 272//4
f 271//4 270//4 273//4
f 294//5 295//5 296//5
f 295//5 294//5 297//5
f 298//6 299//6 300//6
f 301//6 300//6 299//6
f 306//1 307//1 308//1
f 307//1 306//1 309//1
f 310//2 311//2 312//2
f 313//2 312//2 311//2
f 316//2 317//2 318//2
f 317//2 316//2 319//2
f 320//1 321//1 322//1
f 323//1 322//1 321//1
f 326//6 327//6 328//6
f 327//6 326//6 329//6
f 330//5 331//5 332//5
f 333//5 332//5 331//5
f 352//5 353//5 354//5
f 353//5 352//5 355//5
f 364//2 365//2 366//2
f 365//2 364//2 367//2
f 374//1 375//1 376//1
f 375//1 374//1 377//1
f 377//1 374//1 378//1
f 378//1 379//1 380//1
f 379//1 378//1 381//1
f 381//1 378//1 382//1
f 382//1 378//1 374//1
f 399//6 400//6 401//6
f 400//6 399//6 402//6
f 402//6 399//6 403//6
f 409//3 410//3 411//3
f 410//3 409//3 412//3
f 410//3 412//3 413//3
f 413//3 412//3 414//3
f 411//3 415//3 416//3
f 415//3 411//3 410//3
f 416//3 415//3 414//3
f 416//3 414//3 412//3
f 417//4 418//4 419//4
f 418//4 420//4 419//4
f 421//4 422//4 420//4
f 419//4 420//4 422//4
f 418//4 417//4 423//4
f 423//4 417//4 421//4
f 417//4 424//4 421//4
f 422//4 421//4 424//4
f 433//5 434//5 435//5
f 434//5 433//5 436//5
f 437//6 438//6 439//6
f 440//6 439//6 438//6
f 443//2 444//2 445//2
f 444//2 443//2 446//2
f 446//2 443//2 447//2
f 448//1 449//1 450//1
f 450//1 449//1 451//1
f 452//1 451//1 449//1
f 455//6 456//6 457//6
f 456//6 455//6 458//6
f 459//5 460//5 461//5
f 462//5 461//5 460//5
f 464//1 465//1 466//1
f 465//1 464//1 467//1
f 467//1 464//1 468//1
f 467//1 468//1 469//1
f 468//1 464//1 470//1
f 470//1 464//1 471//1
f 471//1 464//1 472//1
f 472//1 464//1 473//1
f 473//1 464//1 474//1
f 474//1 464//1 475//1
f 469//1 476//1 477//1
f 476//1 469//1 478//1
f 478//1 469//1 479//1
f 479//1 469//1 468//1
f 479//3 480//1 481//1
f 479//3 481//1 482//2
f 478//1 479//1 475//1
f 478//1 475//1 464//1
f 483//1 473//1 474//1
f 481//1 471//1 472//1
f 484//2 485//2 486//2
f 487//2 486//2 485//2
f 488//2 489//2 490//2
f 491//2 490//2 489//2
f 492//2 493//2 494//2
f 493//2 495//2 494//2
f 496//2 497//2 495//2
f 495//2 497//2 494//2
f 494//2 497//2 498//2
f 499//2 498//2 497//2
f 493//2 492//2 488//2
f 488//2 492//2 489//2
f 489//2 492//2 484//2
f 484//2 492//2 485//2
f 485//2 492//2 500//2
f 500//2 492//2 496//2
f 497//2 496//2 501//2
f 496//2 492//2 501//2
f 501//2 492//2 502//2
f 503//2 502//2 492//2
f 445//2 520//2 521//2
f 520//2 445//2 444//2
f 451//1 452//1 522//1
f 523//1 522//1 452//1
f 526//3 527//3 528//3
f 527//3 526//3 529//3
f 530//4 531//4 532//4
f 533//4 532//4 531//4
f 458//6 534//6 456//6
f 534//6 458//6 535//6
f 536//5 459//5 537//5
f 461//5 537//5 459//5
f 477//1 539//1 540//1
f 539//1 541//1 542//1
f 541//1 539//1 476//1
f 476//1 539//1 477//1
f 499//2 543//2 498//2
f 498//2 543//2 544//2
f 545//2 544//2 543//2
f 546//2 543//2 499//2
f 550//4 551//4 552//4
f 551//4 550//4 553//4
f 553//4 550//4 554//4
f 555//3 556//3 557//3
f 557//3 556//3 558//3
f 559//3 558//3 556//3
s 2
f 479//2 468//2 480//2
f 479//2 482//2 483//2
f 471//1 481//1 480//1
f 490//2 491//2 495//7
f 491//2 486//2 495//7
s 4
f 473//1 483//1 482//1
f 486//2 487//4 495//2
f 487//4 496//4 495//2
usemtl Blacktop_Old_01.002
s 1
f 212//4 213//4 214//4
f 214//4 213//4 215//4
f 216//4 215//4 213//4
f 334//4 335//4 336//4
f 335//4 334//4 337//4
f 337//4 334//4 338//4
f 338//4 334//4 339//4
f 340//3 341//3 342//3
f 342//3 341//3 343//3
f 343//3 341//3 344//3
f 345//3 344//3 341//3
usemtl __auto_3.001
f 234//1 235//1 236//1
f 235//1 234//1 237//1
f 238//2 239//2 240//2
f 241//2 240//2 239//2
f 246//1 247//1 248//1
f 247//1 246//1 249//1
f 250//2 251//2 252//2
f 253//2 252//2 251//2
f 258//1 259//1 260//1
f 259//1 258//1 261//1
f 262//2 263//2 264//2
f 265//2 264//2 263//2
f 282//2 283//2 284//2
f 283//2 282//2 285//2
f 286//1 287//1 288//1
f 289//1 288//1 287//1
usemtl __auto_4.001
f 274//3 275//3 276//3
f 277//3 276//3 275//3
usemtl Concrete_Form_4x8.001
f 356//6 357//6 358//6
f 359//6 358//6 357//6
f 368//1 369//1 370//1
f 371//1 370//1 369//1
f 383//2 384//2 385//2
f 385//2 384//2 386//2
f 386//2 384//2 387//2
f 388//2 387//2 384//2
f 384//2 383//2 389//2
f 389//2 383//2 390//2
f 391//2 390//2 383//2
f 404//5 405//5 406//5
f 406//5 405//5 407//5
f 408//5 407//5 405//5
