# Blender v2.76 (sub 0) OBJ File: 'my building1.blend'
# www.blender.org
mtllib ID90.mtl
o SketchUp.010_ID90
v 5.494800 3.400001 -6.476002
v 3.970800 3.400001 -3.732800
v 3.970800 3.400001 -6.476002
v 4.834400 3.400001 -3.732800
v 5.494800 3.400001 -3.732800
v 5.494800 3.400001 -3.732800
v 5.494800 3.400001 -6.476002
v 4.834400 3.400001 -3.732800
v 3.970800 3.400001 -3.732800
v 3.970800 3.400001 -6.476002
v 5.494800 3.400001 -6.476002
v 3.970800 3.400001 -6.476002
v 5.494800 3.400001 -3.732800
v 4.834400 3.400001 -3.732800
v 3.970800 3.400001 -3.732800
vn 0.000000 -1.000000 0.000000
vn 0.000000 1.000000 0.000000
usemtl material_0.003
s off
f 1//1 2//1 3//1
f 2//1 1//1 4//1
f 4//1 1//1 5//1
usemtl Color_C01.001
f 6//2 7//2 8//2
f 8//2 7//2 9//2
f 10//2 9//2 7//2
l 11 12
l 13 11
l 14 13
l 15 14
l 12 15
