# Blender v2.76 (sub 0) OBJ File: 'my building1.blend'
# www.blender.org
mtllib instance_17.015_ID921.014.mtl
o instance_17.015_ID921.014
v 5.742624 0.055230 -0.343226
v 5.742624 0.455938 -0.343226
v 5.710878 0.055230 -0.343782
v 5.710878 0.455938 -0.343782
v 5.742066 0.455938 -0.311481
v 5.742624 0.455938 -0.343226
v 5.742066 0.055230 -0.311481
v 5.742624 0.055230 -0.343226
v 5.710878 0.455938 -0.343782
v 5.710321 0.455938 -0.312037
v 5.710878 0.055230 -0.343782
v 5.710321 0.055230 -0.312037
v 5.742066 0.455938 -0.311481
v 5.742066 0.055230 -0.311481
v 5.710321 0.455938 -0.312037
v 5.710321 0.055230 -0.312037
v 5.742624 0.455938 -0.343226
v 5.710878 0.055230 -0.343782
v 5.710878 0.455938 -0.343782
v 5.742624 0.055230 -0.343226
v 5.742624 0.455938 -0.343226
v 5.742066 0.055230 -0.311481
v 5.742624 0.055230 -0.343226
v 5.742066 0.455938 -0.311481
v 5.710321 0.455938 -0.312037
v 5.710878 0.055230 -0.343782
v 5.710321 0.055230 -0.312037
v 5.710878 0.455938 -0.343782
v 5.742066 0.055230 -0.311481
v 5.710321 0.455938 -0.312037
v 5.710321 0.055230 -0.312037
v 5.742066 0.455938 -0.311481
v 5.742624 0.455938 -0.343226
v 5.710878 0.455938 -0.343782
v 5.742624 0.055230 -0.343226
v 5.710878 0.055230 -0.343782
v 5.742066 0.455938 -0.311481
v 5.742066 0.055230 -0.311481
v 5.710321 0.455938 -0.312037
v 5.710321 0.055230 -0.312037
v 5.686440 0.984997 -0.600701
v 5.685476 1.001563 -0.744340
v 5.713359 0.832893 -0.311984
v 5.720940 0.832893 -0.743718
v 5.685170 0.984997 -0.528412
v 5.683900 0.984997 -0.456127
v 5.677897 1.001563 -0.312606
v 5.683900 0.984997 -0.456127
v 5.652834 0.978464 -0.456670
v 5.685170 0.984997 -0.528412
v 5.654104 0.978464 -0.528959
v 5.686440 0.984997 -0.600701
v 5.655374 0.978464 -0.601244
v 5.677897 1.001563 -0.312606
v 5.646831 0.995030 -0.313153
v 5.683900 0.984997 -0.456127
v 5.652834 0.978464 -0.456670
v 5.734898 0.660557 -0.311606
v 5.742066 0.487688 -0.311481
v 5.713359 0.832893 -0.311984
v 5.710321 0.487030 -0.312037
v 5.703234 0.657926 -0.312162
v 5.682022 0.827648 -0.312535
v 5.677897 1.001563 -0.312606
v 5.646831 0.995030 -0.313153
v 5.713359 0.832893 -0.311984
v 5.720940 0.832893 -0.743718
v 5.734898 0.660557 -0.311606
v 5.742477 0.660557 -0.743340
v 5.742477 0.660557 -0.743340
v 5.720940 0.832893 -0.743718
v 5.749647 0.487688 -0.743215
v 5.717902 0.487030 -0.743771
v 5.710814 0.657926 -0.743896
v 5.689602 0.827648 -0.744269
v 5.685476 1.001563 -0.744340
v 5.654411 0.995030 -0.744886
v 5.686440 0.984997 -0.600701
v 5.655374 0.978464 -0.601244
v 5.685476 1.001563 -0.744340
v 5.654411 0.995030 -0.744886
v 5.654104 0.978464 -0.528959
v 5.652834 0.978464 -0.456670
v 5.655374 0.978464 -0.601244
v 5.689602 0.827648 -0.744269
v 5.654411 0.995030 -0.744886
v 5.646831 0.995030 -0.313153
v 5.682022 0.827648 -0.312535
v 5.710814 0.657926 -0.743896
v 5.703234 0.657926 -0.312162
v 5.717902 0.487030 -0.743771
v 5.714111 0.487030 -0.527904
v 5.710321 0.487030 -0.312037
v 6.173800 0.455938 -0.303902
v 6.142055 0.455938 -0.304458
v 6.173800 0.487688 -0.303902
v 5.742066 0.487688 -0.311481
v 5.742066 0.455938 -0.311481
v 5.710321 0.487030 -0.312037
v 5.710321 0.455938 -0.312037
v 5.734898 0.660557 -0.311606
v 5.742477 0.660557 -0.743340
v 5.742066 0.487688 -0.311481
v 5.745856 0.487688 -0.527348
v 5.749647 0.487688 -0.743215
v 5.689602 0.827648 -0.744269
v 5.682022 0.827648 -0.312535
v 5.710814 0.657926 -0.743896
v 5.703234 0.657926 -0.312162
v 6.181379 0.455938 -0.735632
v 6.181379 0.487688 -0.735632
v 6.149634 0.455938 -0.736192
v 5.749647 0.455938 -0.743215
v 5.749647 0.487688 -0.743215
v 5.717902 0.455938 -0.743771
v 5.717902 0.487030 -0.743771
v 5.714111 0.487030 -0.527904
v 5.710321 0.487030 -0.312037
v 5.717902 0.487030 -0.743771
v 5.717902 0.455938 -0.743771
v 5.717343 0.455938 -0.712027
v 5.714111 0.455938 -0.527904
v 5.710878 0.455938 -0.343782
v 5.710321 0.455938 -0.312037
v 6.173800 0.487688 -0.303902
v 5.742066 0.487688 -0.311481
v 6.177589 0.487688 -0.519768
v 5.745856 0.487688 -0.527348
v 6.181379 0.487688 -0.735632
v 5.749647 0.487688 -0.743215
v 6.142055 0.455938 -0.304458
v 6.142612 0.455938 -0.336203
v 5.742066 0.455938 -0.311481
v 5.742624 0.455938 -0.343226
v 6.177589 0.487688 -0.519768
v 6.181379 0.487688 -0.735632
v 6.173800 0.487688 -0.303902
v 6.173800 0.455938 -0.303902
v 6.174357 0.455938 -0.335647
v 6.177589 0.455938 -0.519768
v 6.180822 0.455938 -0.703888
v 6.181379 0.455938 -0.735632
v 6.174357 0.455938 -0.335647
v 6.177589 0.455938 -0.519768
v 5.710878 0.455938 -0.343782
v 5.714111 0.455938 -0.527904
v 6.180822 0.455938 -0.703888
v 6.149077 0.455938 -0.704447
v 5.749089 0.455938 -0.711470
v 5.717343 0.455938 -0.712027
v 6.149634 0.455938 -0.736192
v 5.749647 0.455938 -0.743215
v 5.713359 0.832893 -0.311984
v 5.683900 0.984997 -0.456127
v 5.677897 1.001563 -0.312606
v 5.686440 0.984997 -0.600701
v 5.685170 0.984997 -0.528412
v 5.685476 1.001563 -0.744340
v 5.720940 0.832893 -0.743718
v 5.654104 0.978464 -0.528959
v 5.686440 0.984997 -0.600701
v 5.655374 0.978464 -0.601244
v 5.685170 0.984997 -0.528412
v 5.652834 0.978464 -0.456670
v 5.683900 0.984997 -0.456127
v 5.646831 0.995030 -0.313153
v 5.683900 0.984997 -0.456127
v 5.652834 0.978464 -0.456670
v 5.677897 1.001563 -0.312606
v 5.682022 0.827648 -0.312535
v 5.677897 1.001563 -0.312606
v 5.646831 0.995030 -0.313153
v 5.713359 0.832893 -0.311984
v 5.703234 0.657926 -0.312162
v 5.710321 0.487030 -0.312037
v 5.742066 0.487688 -0.311481
v 5.734898 0.660557 -0.311606
v 5.720940 0.832893 -0.743718
v 5.734898 0.660557 -0.311606
v 5.742477 0.660557 -0.743340
v 5.713359 0.832893 -0.311984
v 5.685476 1.001563 -0.744340
v 5.689602 0.827648 -0.744269
v 5.654411 0.995030 -0.744886
v 5.720940 0.832893 -0.743718
v 5.710814 0.657926 -0.743896
v 5.717902 0.487030 -0.743771
v 5.749647 0.487688 -0.743215
v 5.742477 0.660557 -0.743340
v 5.655374 0.978464 -0.601244
v 5.685476 1.001563 -0.744340
v 5.654411 0.995030 -0.744886
v 5.686440 0.984997 -0.600701
v 5.646831 0.995030 -0.313153
v 5.689602 0.827648 -0.744269
v 5.682022 0.827648 -0.312535
v 5.652834 0.978464 -0.456670
v 5.655374 0.978464 -0.601244
v 5.654411 0.995030 -0.744886
v 5.654104 0.978464 -0.528959
v 5.703234 0.657926 -0.312162
v 5.714111 0.487030 -0.527904
v 5.710321 0.487030 -0.312037
v 5.717902 0.487030 -0.743771
v 5.710814 0.657926 -0.743896
v 5.742066 0.455938 -0.311481
v 5.710321 0.487030 -0.312037
v 5.710321 0.455938 -0.312037
v 5.742066 0.487688 -0.311481
v 6.142055 0.455938 -0.304458
v 6.173800 0.487688 -0.303902
v 6.173800 0.455938 -0.303902
v 5.742477 0.660557 -0.743340
v 5.745856 0.487688 -0.527348
v 5.749647 0.487688 -0.743215
v 5.742066 0.487688 -0.311481
v 5.734898 0.660557 -0.311606
v 5.682022 0.827648 -0.312535
v 5.710814 0.657926 -0.743896
v 5.703234 0.657926 -0.312162
v 5.689602 0.827648 -0.744269
v 5.749647 0.487688 -0.743215
v 5.717902 0.455938 -0.743771
v 5.717902 0.487030 -0.743771
v 5.749647 0.455938 -0.743215
v 6.181379 0.487688 -0.735632
v 6.149634 0.455938 -0.736192
v 6.181379 0.455938 -0.735632
v 5.710321 0.487030 -0.312037
v 5.710878 0.455938 -0.343782
v 5.710321 0.455938 -0.312037
v 5.714111 0.455938 -0.527904
v 5.717343 0.455938 -0.712027
v 5.717902 0.455938 -0.743771
v 5.717902 0.487030 -0.743771
v 5.714111 0.487030 -0.527904
v 5.745856 0.487688 -0.527348
v 6.181379 0.487688 -0.735632
v 5.749647 0.487688 -0.743215
v 6.177589 0.487688 -0.519768
v 5.742066 0.487688 -0.311481
v 6.173800 0.487688 -0.303902
v 6.142612 0.455938 -0.336203
v 5.742066 0.455938 -0.311481
v 5.742624 0.455938 -0.343226
v 6.142055 0.455938 -0.304458
v 6.181379 0.487688 -0.735632
v 6.180822 0.455938 -0.703888
v 6.181379 0.455938 -0.735632
v 6.177589 0.455938 -0.519768
v 6.174357 0.455938 -0.335647
v 6.173800 0.455938 -0.303902
v 6.173800 0.487688 -0.303902
v 6.177589 0.487688 -0.519768
v 6.149634 0.455938 -0.736192
v 5.749089 0.455938 -0.711470
v 5.749647 0.455938 -0.743215
v 6.149077 0.455938 -0.704447
v 5.714111 0.455938 -0.527904
v 5.717343 0.455938 -0.712027
v 6.180822 0.455938 -0.703888
v 6.177589 0.455938 -0.519768
v 5.710878 0.455938 -0.343782
v 6.174357 0.455938 -0.335647
v 5.686440 0.984997 -0.600701
v 5.685170 0.984997 -0.528412
v 5.683900 0.984997 -0.456127
v 5.677897 1.001563 -0.312606
v 5.713359 0.832893 -0.311984
v 5.720940 0.832893 -0.743718
v 5.685476 1.001563 -0.744340
v 5.652834 0.978464 -0.456670
v 5.654104 0.978464 -0.528959
v 5.655374 0.978464 -0.601244
v 5.646831 0.995030 -0.313153
v 5.710321 0.487030 -0.312037
v 5.703234 0.657926 -0.312162
v 5.742066 0.487688 -0.311481
v 5.734898 0.660557 -0.311606
v 5.682022 0.827648 -0.312535
v 5.742477 0.660557 -0.743340
v 5.749647 0.487688 -0.743215
v 5.717902 0.487030 -0.743771
v 5.710814 0.657926 -0.743896
v 5.689602 0.827648 -0.744269
v 5.654411 0.995030 -0.744886
v 5.714111 0.487030 -0.527904
v 6.173800 0.487688 -0.303902
v 5.710321 0.455938 -0.312037
v 5.742066 0.455938 -0.311481
v 6.142055 0.455938 -0.304458
v 6.173800 0.455938 -0.303902
v 5.745856 0.487688 -0.527348
v 5.717902 0.455938 -0.743771
v 6.181379 0.487688 -0.735632
v 6.181379 0.455938 -0.735632
v 6.149634 0.455938 -0.736192
v 5.749647 0.455938 -0.743215
v 5.717343 0.455938 -0.712027
v 5.714111 0.455938 -0.527904
v 5.710878 0.455938 -0.343782
v 6.177589 0.487688 -0.519768
v 6.142612 0.455938 -0.336203
v 5.742624 0.455938 -0.343226
v 6.174357 0.455938 -0.335647
v 6.177589 0.455938 -0.519768
v 6.180822 0.455938 -0.703888
v 5.749089 0.455938 -0.711470
v 6.149077 0.455938 -0.704447
v 6.149634 0.455938 -0.736192
v 6.149077 0.455938 -0.704447
v 6.155983 0.055230 -0.736080
v 6.155427 0.055230 -0.704335
v 6.180822 0.055230 -0.703888
v 6.155427 0.055230 -0.704335
v 6.180822 0.455938 -0.703888
v 6.149077 0.455938 -0.704447
v 6.181379 0.055230 -0.735632
v 6.181379 0.455938 -0.735632
v 6.155983 0.055230 -0.736080
v 6.149634 0.455938 -0.736192
v 6.180822 0.455938 -0.703888
v 6.181379 0.455938 -0.735632
v 6.180822 0.055230 -0.703888
v 6.181379 0.055230 -0.735632
v 6.149077 0.455938 -0.704447
v 6.155983 0.055230 -0.736080
v 6.155427 0.055230 -0.704335
v 6.149634 0.455938 -0.736192
v 6.155427 0.055230 -0.704335
v 6.180822 0.455938 -0.703888
v 6.149077 0.455938 -0.704447
v 6.180822 0.055230 -0.703888
v 6.181379 0.455938 -0.735632
v 6.155983 0.055230 -0.736080
v 6.149634 0.455938 -0.736192
v 6.181379 0.055230 -0.735632
v 6.181379 0.455938 -0.735632
v 6.180822 0.055230 -0.703888
v 6.181379 0.055230 -0.735632
v 6.180822 0.455938 -0.703888
v 6.149077 0.455938 -0.704447
v 6.155427 0.055230 -0.704335
v 6.149634 0.455938 -0.736192
v 6.155983 0.055230 -0.736080
v 6.180822 0.055230 -0.703888
v 6.180822 0.455938 -0.703888
v 6.181379 0.455938 -0.735632
v 6.181379 0.055230 -0.735632
v 6.142612 0.455938 -0.336203
v 6.142055 0.455938 -0.304458
v 6.148961 0.055230 -0.336091
v 6.148404 0.055230 -0.304346
v 6.173800 0.055230 -0.303902
v 6.148404 0.055230 -0.304346
v 6.173800 0.455938 -0.303902
v 6.142055 0.455938 -0.304458
v 6.174357 0.055230 -0.335647
v 6.174357 0.455938 -0.335647
v 6.148961 0.055230 -0.336091
v 6.142612 0.455938 -0.336203
v 6.173800 0.455938 -0.303902
v 6.174357 0.455938 -0.335647
v 6.173800 0.055230 -0.303902
v 6.174357 0.055230 -0.335647
v 6.142055 0.455938 -0.304458
v 6.148961 0.055230 -0.336091
v 6.148404 0.055230 -0.304346
v 6.142612 0.455938 -0.336203
v 6.148404 0.055230 -0.304346
v 6.173800 0.455938 -0.303902
v 6.142055 0.455938 -0.304458
v 6.173800 0.055230 -0.303902
v 6.174357 0.455938 -0.335647
v 6.148961 0.055230 -0.336091
v 6.142612 0.455938 -0.336203
v 6.174357 0.055230 -0.335647
v 6.174357 0.455938 -0.335647
v 6.173800 0.055230 -0.303902
v 6.174357 0.055230 -0.335647
v 6.173800 0.455938 -0.303902
v 6.142055 0.455938 -0.304458
v 6.148404 0.055230 -0.304346
v 6.142612 0.455938 -0.336203
v 6.148961 0.055230 -0.336091
v 6.173800 0.055230 -0.303902
v 6.173800 0.455938 -0.303902
v 6.174357 0.455938 -0.335647
v 6.174357 0.055230 -0.335647
v 5.749647 0.055230 -0.743215
v 5.749647 0.455938 -0.743215
v 5.717902 0.055230 -0.743771
v 5.717902 0.455938 -0.743771
v 5.749089 0.455938 -0.711470
v 5.749647 0.455938 -0.743215
v 5.749089 0.055230 -0.711470
v 5.749647 0.055230 -0.743215
v 5.717902 0.455938 -0.743771
v 5.717343 0.455938 -0.712027
v 5.717902 0.055230 -0.743771
v 5.717343 0.055230 -0.712027
v 5.749089 0.455938 -0.711470
v 5.749089 0.055230 -0.711470
v 5.717343 0.455938 -0.712027
v 5.717343 0.055230 -0.712027
v 5.749647 0.455938 -0.743215
v 5.717902 0.055230 -0.743771
v 5.717902 0.455938 -0.743771
v 5.749647 0.055230 -0.743215
v 5.749647 0.455938 -0.743215
v 5.749089 0.055230 -0.711470
v 5.749647 0.055230 -0.743215
v 5.749089 0.455938 -0.711470
v 5.717343 0.455938 -0.712027
v 5.717902 0.055230 -0.743771
v 5.717343 0.055230 -0.712027
v 5.717902 0.455938 -0.743771
v 5.749089 0.055230 -0.711470
v 5.717343 0.455938 -0.712027
v 5.717343 0.055230 -0.712027
v 5.749089 0.455938 -0.711470
v 5.749647 0.455938 -0.743215
v 5.717902 0.455938 -0.743771
v 5.749647 0.055230 -0.743215
v 5.717902 0.055230 -0.743771
v 5.749089 0.455938 -0.711470
v 5.749089 0.055230 -0.711470
v 5.717343 0.455938 -0.712027
v 5.717343 0.055230 -0.712027
vt 0.000000 0.000000
vt 1.000000 0.000000
vt 1.000000 1.000000
vn -0.017500 0.000000 0.999800
vn -0.999800 0.000000 -0.017600
vn 0.999800 0.000000 0.017500
vn 0.017500 0.000000 -0.999800
vn -0.978500 -0.205800 -0.017200
vn -0.978400 -0.205800 -0.017200
vn -0.010900 0.622200 0.782800
vn -0.000100 0.007500 1.000000
vn -0.017000 0.972400 0.232800
vn 0.205700 -0.978600 0.003600
vn 0.202300 -0.971900 0.120600
vn 0.017600 0.000000 -0.999800
vn -0.992100 -0.124000 -0.017400
vn -0.017600 -0.000000 0.999800
vn 0.206400 -0.971900 -0.113500
vn 0.012200 0.693300 0.720500
vn 0.017600 0.998700 0.046900
vn 0.000100 0.008600 1.000000
vn 0.978500 0.205800 0.017200
vn 0.978400 0.205800 0.017200
vn 0.999000 0.041400 0.017500
vn -0.999000 -0.041400 -0.017500
vn 0.992100 0.124000 0.017400
vn -0.017600 -0.000100 0.999800
vn -0.000000 -0.000300 -1.000000
vn 0.000000 -0.860000 -0.510300
vn 0.000000 -0.860300 -0.509700
vn 0.999800 0.000000 0.017600
vn 0.000000 -1.000000 0.000000
vn -0.000000 1.000000 0.000000
vn 0.000000 0.000000 1.000000
vn -0.999800 -0.000300 -0.017500
vn -0.999800 0.000000 -0.017500
vn 0.000100 1.000000 0.000000
vn 0.999700 0.015800 0.017500
vn -0.999700 -0.015800 -0.017500
vn 0.012000 0.681800 0.731500
vn 0.000100 0.004200 1.000000
vn 0.006500 0.368300 0.929700
vn -0.205700 0.978600 -0.003600
vn -0.202300 0.971900 -0.120600
vn -0.206400 0.971900 0.113500
vn -0.000100 0.005000 1.000000
vn -0.013600 0.776400 0.630100
vn -0.007600 0.432300 0.901700
vn 0.017600 0.000100 -0.999800
vn -0.013900 0.805800 0.592000
vn 0.016400 -0.940900 0.338400
vn 0.002500 -0.144200 0.989500
vn 0.999800 0.000300 0.017500
vn 0.002400 -0.135500 0.990800
vn 0.000000 -0.000800 1.000000
vn 0.001200 -0.068300 0.997700
vn -0.000600 -0.999900 -0.013200
usemtl material_0
s off
f 1/1/1 2/2/1 3/3/1
f 4/1/1 3/2/1 2/3/1
f 5/1/2 6/2/2 7/3/2
f 8/1/2 7/2/2 6/3/2
f 9/1/3 10/2/3 11/3/3
f 12/1/3 11/2/3 10/3/3
f 13/1/4 14/2/4 15/3/4
f 16/1/4 15/2/4 14/3/4
f 41/1/5 42/2/5 43/3/5
f 44/1/6 43/2/6 42/3/6
f 45/1/7 41/2/8 46/3/9
f 41/1/6 43/2/6 46/3/6
f 47/1/6 46/2/6 43/3/6
f 48/1/10 49/2/10 50/3/10
f 49/1/10 51/2/10 50/3/10
f 50/1/10 51/2/10 52/3/10
f 53/1/10 52/2/10 51/3/10
f 54/1/11 55/2/11 56/3/11
f 57/1/11 56/2/11 55/3/11
f 58/1/12 59/2/12 60/3/12
f 59/1/4 61/2/4 60/3/4
f 61/1/12 62/2/12 60/3/12
f 62/1/12 63/2/12 60/3/12
f 60/1/12 63/2/12 64/3/12
f 65/1/12 64/2/12 63/3/12
f 66/1/13 67/2/13 68/3/13
f 69/1/13 68/2/13 67/3/13
f 70/1/14 71/2/14 72/3/14
f 72/1/1 71/2/1 73/3/1
f 73/1/14 71/2/14 74/3/14
f 74/1/14 71/2/14 75/3/14
f 71/1/14 76/2/14 75/3/14
f 77/1/14 75/2/14 76/3/14
f 78/1/15 79/2/15 80/3/15
f 81/1/15 80/2/15 79/3/15
f 82/1/16 83/2/17 84/3/18
f 83/1/19 85/2/19 84/3/19
f 86/1/20 84/2/20 85/3/20
f 83/1/20 87/2/20 85/3/20
f 88/1/20 85/2/20 87/3/20
f 89/1/21 90/2/21 91/3/21
f 91/1/21 90/2/21 92/3/21
f 93/1/21 92/2/21 90/3/21
f 94/1/4 95/2/4 96/3/4
f 96/1/12 95/2/12 97/3/12
f 95/1/12 98/2/12 97/3/12
f 97/1/4 98/2/4 99/3/4
f 100/1/4 99/2/4 98/3/4
f 101/1/22 102/2/22 103/3/22
f 103/1/22 102/2/22 104/3/22
f 105/1/22 104/2/22 102/3/22
f 106/1/23 107/2/23 108/3/23
f 109/1/23 108/2/23 107/3/23
f 110/1/14 111/2/14 112/3/14
f 112/1/24 111/2/24 113/3/24
f 111/1/14 114/2/14 113/3/14
f 113/1/1 114/2/1 115/3/1
f 116/1/1 115/2/1 114/3/1
f 117/1/25 118/2/26 119/3/27
f 119/1/28 118/2/28 120/3/28
f 120/1/28 118/2/28 121/3/28
f 121/1/28 118/2/28 122/3/28
f 122/1/28 118/2/28 123/3/28
f 124/1/3 123/2/3 118/3/3
f 125/1/29 126/2/29 127/3/29
f 126/1/29 128/2/29 127/3/29
f 127/1/29 128/2/29 129/3/29
f 130/1/29 129/2/29 128/3/29
f 131/1/30 132/2/30 133/3/30
f 134/1/30 133/2/30 132/3/30
f 135/1/31 136/2/31 137/3/31
f 137/1/2 136/2/2 138/3/2
f 138/1/32 136/2/32 139/3/32
f 139/1/2 136/2/2 140/3/2
f 140/1/2 136/2/2 141/3/2
f 142/1/33 141/2/33 136/3/33
f 132/1/34 143/2/34 134/3/34
f 143/1/30 144/2/30 134/3/30
f 134/1/30 144/2/30 145/3/30
f 145/1/30 144/2/30 146/3/30
f 144/1/30 147/2/30 146/3/30
f 147/1/30 148/2/30 146/3/30
f 148/1/30 149/2/30 146/3/30
f 150/1/30 146/2/30 149/3/30
f 148/1/30 151/2/30 149/3/30
f 152/1/30 149/2/30 151/3/30
f 310/1/35 311/2/35 312/3/35
f 313/1/35 312/2/35 311/3/35
f 314/1/12 315/2/12 316/3/12
f 317/1/12 316/2/12 315/3/12
f 318/1/14 319/2/14 320/3/14
f 321/1/14 320/2/14 319/3/14
f 322/1/33 323/2/33 324/3/33
f 325/1/33 324/2/33 323/3/33
f 350/1/35 351/2/35 352/3/35
f 353/1/35 352/2/35 351/3/35
f 354/1/4 355/2/4 356/3/4
f 357/1/4 356/2/4 355/3/4
f 358/1/1 359/2/1 360/3/1
f 361/1/1 360/2/1 359/3/1
f 362/1/33 363/2/33 364/3/33
f 365/1/33 364/2/33 363/3/33
f 390/1/1 391/2/1 392/3/1
f 393/1/1 392/2/1 391/3/1
f 394/1/2 395/2/2 396/3/2
f 397/1/2 396/2/2 395/3/2
f 398/1/28 399/2/28 400/3/28
f 401/1/28 400/2/28 399/3/28
f 402/1/4 403/2/4 404/3/4
f 405/1/4 404/2/4 403/3/4
usemtl __auto_10
f 17/1/4 18/2/4 19/3/4
f 18/1/4 17/2/4 20/3/4
f 21/1/28 22/2/28 23/3/28
f 22/1/28 21/2/28 24/3/28
f 25/1/33 26/2/33 27/3/33
f 26/1/33 25/2/33 28/3/33
f 29/1/1 30/2/1 31/3/1
f 30/1/1 29/2/1 32/3/1
f 326/1/36 327/2/36 328/3/36
f 327/1/36 326/2/36 329/3/36
f 330/1/14 331/2/14 332/3/14
f 331/1/14 330/2/14 333/3/14
f 334/1/12 335/2/12 336/3/12
f 335/1/12 334/2/12 337/3/12
f 338/1/3 339/2/3 340/3/3
f 339/1/3 338/2/3 341/3/3
f 366/1/36 367/2/36 368/3/36
f 367/1/36 366/2/36 369/3/36
f 370/1/1 371/2/1 372/3/1
f 371/1/1 370/2/1 373/3/1
f 374/1/4 375/2/4 376/3/4
f 375/1/4 374/2/4 377/3/4
f 378/1/3 379/2/3 380/3/3
f 379/1/3 378/2/3 381/3/3
f 406/1/4 407/2/4 408/3/4
f 407/1/4 406/2/4 409/3/4
f 410/1/28 411/2/28 412/3/28
f 411/1/28 410/2/28 413/3/28
f 414/1/2 415/2/2 416/3/2
f 415/1/2 414/2/2 417/3/2
f 418/1/1 419/2/1 420/3/1
f 419/1/1 418/2/1 421/3/1
usemtl __auto_11
f 153/1/20 154/2/20 155/3/20
f 154/1/20 153/2/20 156/3/20
f 154/1/37 156/2/38 157/3/39
f 158/1/20 153/2/20 159/3/20
f 153/1/19 158/2/19 156/3/19
f 160/1/40 161/2/40 162/3/40
f 161/1/40 160/2/40 163/3/40
f 163/1/40 160/2/40 164/3/40
f 163/1/40 164/2/40 165/3/40
f 166/1/41 167/2/41 168/3/41
f 167/1/41 166/2/41 169/3/41
f 170/1/14 171/2/14 172/3/14
f 171/1/14 170/2/14 173/3/14
f 173/1/14 170/2/14 174/3/14
f 173/1/14 174/2/14 175/3/14
f 173/1/1 175/2/1 176/3/1
f 173/1/14 176/2/14 177/3/14
f 178/1/23 179/2/23 180/3/23
f 179/1/23 178/2/23 181/3/23
f 182/1/12 183/2/12 184/3/12
f 183/1/12 182/2/12 185/3/12
f 183/1/12 185/2/12 186/3/12
f 186/1/12 185/2/12 187/3/12
f 187/1/4 185/2/4 188/3/4
f 188/1/12 185/2/12 189/3/12
f 190/1/42 191/2/42 192/3/42
f 191/1/42 190/2/42 193/3/42
f 194/1/6 195/2/6 196/3/6
f 195/1/6 194/2/6 197/3/6
f 195/1/6 198/2/6 199/3/6
f 198/1/5 195/2/5 197/3/5
f 198/1/43 197/2/44 200/3/45
f 201/1/22 202/2/22 203/3/22
f 202/1/22 201/2/22 204/3/22
f 204/1/22 201/2/22 205/3/22
f 206/1/1 207/2/1 208/3/1
f 207/1/1 206/2/1 209/3/1
f 209/1/14 206/2/14 210/3/14
f 209/1/14 210/2/14 211/3/14
f 211/1/1 210/2/1 212/3/1
f 213/1/21 214/2/21 215/3/21
f 214/1/21 213/2/21 216/3/21
f 216/1/21 213/2/21 217/3/21
f 218/1/13 219/2/13 220/3/13
f 219/1/13 218/2/13 221/3/13
f 222/1/4 223/2/4 224/3/4
f 223/1/4 222/2/4 225/3/4
f 225/1/12 222/2/12 226/3/12
f 225/1/46 226/2/46 227/3/46
f 227/1/12 226/2/12 228/3/12
f 229/1/33 230/2/33 231/3/33
f 230/1/2 229/2/2 232/3/2
f 232/1/2 229/2/2 233/3/2
f 233/1/2 229/2/2 234/3/2
f 234/1/2 229/2/2 235/3/2
f 235/1/47 229/2/48 236/3/49
f 237/1/30 238/2/30 239/3/30
f 238/1/30 237/2/30 240/3/30
f 240/1/30 237/2/30 241/3/30
f 240/1/30 241/2/30 242/3/30
f 243/1/29 244/2/29 245/3/29
f 244/1/29 243/2/29 246/3/29
f 247/1/3 248/2/3 249/3/3
f 248/1/28 247/2/28 250/3/28
f 250/1/28 247/2/28 251/3/28
f 251/1/50 247/2/50 252/3/50
f 252/1/28 247/2/28 253/3/28
f 253/1/51 247/2/52 254/3/53
f 255/1/29 256/2/29 257/3/29
f 256/1/29 255/2/29 258/3/29
f 256/1/29 259/2/29 260/3/29
f 259/1/29 256/2/29 258/3/29
f 259/1/29 258/2/29 261/3/29
f 259/1/29 261/2/29 262/3/29
f 259/1/29 262/2/29 263/3/29
f 263/1/29 262/2/29 245/3/29
f 245/1/29 262/2/29 264/3/29
f 245/1/54 264/2/54 243/3/54
l 39 37
l 33 34
l 36 35
l 37 33
l 40 36
l 34 36
l 38 37
l 33 35
l 39 40
l 34 39
l 35 38
l 38 40
l 303 304
l 280 285
l 288 302
l 270 281
l 269 279
l 297 309
l 265 271
l 276 277
l 307 306
l 268 269
l 284 285
l 305 303
l 292 305
l 307 296
l 276 287
l 269 270
l 285 286
l 295 296
l 277 284
l 274 286
l 266 267
l 279 281
l 291 290
l 283 282
l 296 297
l 300 301
l 301 289
l 280 275
l 299 308
l 267 272
l 289 276
l 304 301
l 299 300
l 302 295
l 293 278
l 282 293
l 287 283
l 272 273
l 309 307
l 303 291
l 288 278
l 294 299
l 286 271
l 283 294
l 292 288
l 274 265
l 308 298
l 273 274
l 265 266
l 306 305
l 281 282
l 289 290
l 290 304
l 297 298
l 298 294
l 272 275
l 268 275
l 282 295
l 271 270
l 279 278
l 276 278
l 277 280
l 267 268
l 291 292
l 284 283
l 342 343
l 349 346
l 344 345
l 345 349
l 342 347
l 343 345
l 346 347
l 348 344
l 346 343
l 344 342
l 348 349
l 347 348
l 382 383
l 386 389
l 385 384
l 389 385
l 382 387
l 385 383
l 386 387
l 388 384
l 383 386
l 384 382
l 388 389
l 387 388
l 428 426
l 422 423
l 425 424
l 426 422
l 429 425
l 423 425
l 427 426
l 424 422
l 428 429
l 423 428
l 424 427
l 429 427
