# Blender v2.76 (sub 0) OBJ File: 'my building1.blend'
# www.blender.org
mtllib instance_0_ID23.001_instance_0_ID23.003.mtl
o computer_monitor1_instance_0_ID23.001_instance_0_ID23.003
v 0.042289 1.263285 2.215303
v -0.549096 1.286564 2.160985
v -0.525817 1.263285 2.215303
v 0.065568 1.286564 2.160985
v 0.065568 1.286564 2.160985
v 0.042289 1.263285 2.215303
v -0.549096 1.286564 2.160985
v -0.525817 1.263285 2.215303
v 0.065568 1.286564 2.160985
v -0.549096 1.286564 2.153225
v -0.549096 1.286564 2.160985
v 0.065568 1.286564 2.153225
v 0.065568 1.286564 2.153225
v 0.065568 1.286564 2.160985
v -0.549096 1.286564 2.153225
v -0.549096 1.286564 2.160985
v -0.525817 0.943725 2.215303
v -0.549096 1.286564 2.160985
v -0.549096 0.920446 2.160985
v -0.525817 1.263285 2.215303
v -0.525817 1.263285 2.215303
v -0.525817 0.943725 2.215303
v -0.549096 1.286564 2.160985
v -0.549096 0.920446 2.160985
v -0.525817 1.263285 2.160985
v 0.042289 1.263285 2.215303
v -0.525817 1.263285 2.215303
v 0.042289 1.263285 2.160985
v 0.042289 1.263285 2.160985
v -0.525817 1.263285 2.160985
v 0.042289 1.263285 2.215303
v -0.525817 1.263285 2.215303
v 0.065568 1.286564 2.160985
v 0.042289 0.943725 2.215303
v 0.065568 0.920446 2.160985
v 0.042289 1.263285 2.215303
v 0.042289 1.263285 2.215303
v 0.065568 1.286564 2.160985
v 0.042289 0.943725 2.215303
v 0.065568 0.920446 2.160985
v 0.065568 1.286564 2.153225
v 0.065568 0.920446 2.160985
v 0.065568 0.920446 2.153225
v 0.065568 1.286564 2.160985
v 0.065568 1.286564 2.160985
v 0.065568 1.286564 2.153225
v 0.065568 0.920446 2.160985
v 0.065568 0.920446 2.153225
v 0.065568 0.920446 2.153225
v 0.042289 0.943725 2.153225
v 0.065568 1.286564 2.153225
v -0.199852 0.930654 2.153225
v -0.549096 0.920446 2.153225
v -0.199852 0.932594 2.153225
v -0.286178 0.930654 2.153225
v -0.286178 0.932594 2.153225
v -0.525817 0.943725 2.153225
v -0.525817 1.263285 2.153225
v -0.549096 1.286564 2.153225
v 0.042289 1.263285 2.153225
v -0.286178 0.932594 2.153225
v -0.199852 0.932594 2.153225
v -0.525817 0.943725 2.153225
v 0.042289 0.943725 2.153225
v -0.525817 1.263285 2.153225
v 0.042289 1.263285 2.153225
v -0.549096 1.286564 2.153225
v 0.065568 1.286564 2.153225
v -0.549096 0.920446 2.153225
v -0.286178 0.930654 2.153225
v -0.199852 0.930654 2.153225
v 0.065568 0.920446 2.153225
v -0.549096 0.920446 2.160985
v -0.549096 1.286564 2.153225
v -0.549096 0.920446 2.153225
v -0.549096 1.286564 2.160985
v -0.549096 1.286564 2.160985
v -0.549096 0.920446 2.160985
v -0.549096 1.286564 2.153225
v -0.549096 0.920446 2.153225
v -0.549096 0.920446 2.160985
v 0.042289 0.943725 2.215303
v -0.525817 0.943725 2.215303
v 0.065568 0.920446 2.160985
v 0.065568 0.920446 2.160985
v -0.549096 0.920446 2.160985
v 0.042289 0.943725 2.215303
v -0.525817 0.943725 2.215303
v -0.525817 0.943725 2.160985
v -0.525817 1.263285 2.215303
v -0.525817 0.943725 2.215303
v -0.525817 1.263285 2.160985
v -0.525817 1.263285 2.160985
v -0.525817 0.943725 2.160985
v -0.525817 1.263285 2.215303
v -0.525817 0.943725 2.215303
v -0.525817 1.263285 2.153225
v 0.042289 1.263285 2.160985
v -0.525817 1.263285 2.160985
v 0.042289 1.263285 2.153225
v 0.042289 1.263285 2.153225
v -0.525817 1.263285 2.153225
v 0.042289 1.263285 2.160985
v -0.525817 1.263285 2.160985
v 0.042289 1.263285 2.215303
v 0.042289 0.943725 2.160985
v 0.042289 0.943725 2.215303
v 0.042289 1.263285 2.160985
v 0.042289 1.263285 2.160985
v 0.042289 1.263285 2.215303
v 0.042289 0.943725 2.160985
v 0.042289 0.943725 2.215303
v -0.549096 0.920446 2.153225
v 0.065568 0.920446 2.160985
v -0.549096 0.920446 2.160985
v 0.065568 0.920446 2.153225
v 0.065568 0.920446 2.153225
v -0.549096 0.920446 2.153225
v 0.065568 0.920446 2.160985
v -0.549096 0.920446 2.160985
v 0.042289 0.943725 2.160985
v -0.525817 0.943725 2.215303
v 0.042289 0.943725 2.215303
v -0.525817 0.943725 2.160985
v -0.525817 0.943725 2.160985
v 0.042289 0.943725 2.160985
v -0.525817 0.943725 2.215303
v 0.042289 0.943725 2.215303
v -0.525817 1.263285 2.153225
v -0.525817 0.943725 2.153225
v -0.525817 1.263285 2.153225
v -0.525817 0.943725 2.153225
v 0.042289 1.263285 2.153225
v 0.042289 0.943725 2.153225
v 0.042289 1.263285 2.153225
v 0.042289 0.943725 2.153225
v 0.042289 0.943725 2.160985
v -0.525817 0.943725 2.153225
v -0.525817 0.943725 2.160985
v 0.042289 0.943725 2.153225
v 0.042289 0.943725 2.153225
v 0.042289 0.943725 2.160985
v -0.525817 0.943725 2.153225
v -0.525817 0.943725 2.160985
v 0.042289 0.943725 2.160985
v -0.525817 1.263285 2.160985
v 0.042289 1.263285 2.160985
v -0.525817 0.943725 2.160985
v 0.042289 1.263285 2.215303
v -0.525817 0.943725 2.215303
v 0.042289 0.943725 2.215303
v -0.525817 1.263285 2.215303
v -0.525817 1.263285 2.215303
v 0.042289 1.263285 2.215303
v -0.525817 0.943725 2.215303
v 0.042289 0.943725 2.215303
vt 0.000000 0.000000
vt 1.000000 0.000000
vt 1.000000 1.000000
vt 0.998804 1.000000
vt -0.000000 1.000000
vt 0.998804 -0.000000
vn 0.000000 0.919100 0.393900
vn 0.000000 -0.919100 -0.393900
vn 0.000000 1.000000 0.000000
vn 0.000000 -1.000000 0.000000
vn -0.919100 0.000000 0.393900
vn 0.919100 0.000000 -0.393900
vn 0.919100 0.000000 0.393900
vn -0.919100 0.000000 -0.393900
vn 1.000000 0.000000 0.000000
vn -1.000000 0.000000 0.000000
vn 0.000000 0.000000 -1.000000
vn -0.000000 0.000000 1.000000
vn 0.000000 -0.919100 0.393900
vn 0.000000 0.919100 -0.393900
usemtl dell
s 1
f 1/1/1 2/2/1 3/3/1
f 2/1/1 1/2/1 4/3/1
f 5/1/2 6/2/2 7/3/2
f 8/1/2 7/2/2 6/3/2
f 9/1/3 10/2/3 11/3/3
f 10/1/3 9/2/3 12/3/3
f 13/1/4 14/2/4 15/3/4
f 16/1/4 15/2/4 14/3/4
f 17/1/5 18/2/5 19/3/5
f 18/1/5 17/2/5 20/3/5
f 21/1/6 22/2/6 23/3/6
f 24/1/6 23/2/6 22/3/6
f 25/1/4 26/2/4 27/3/4
f 26/1/4 25/2/4 28/3/4
f 29/1/3 30/2/3 31/3/3
f 32/1/3 31/2/3 30/3/3
f 33/1/7 34/2/7 35/3/7
f 34/1/7 33/2/7 36/3/7
f 37/1/8 38/2/8 39/3/8
f 40/1/8 39/2/8 38/3/8
f 41/1/9 42/2/9 43/3/9
f 42/1/9 41/2/9 44/3/9
f 45/1/10 46/2/10 47/3/10
f 48/1/10 47/2/10 46/3/10
f 49/1/11 50/2/11 51/3/11
f 50/1/11 49/2/11 52/3/11
f 52/1/11 49/2/11 53/3/11
f 50/1/11 52/2/11 54/3/11
f 52/1/11 53/2/11 55/3/11
f 55/1/11 53/2/11 56/3/11
f 56/1/11 53/2/11 57/3/11
f 57/1/11 53/2/11 58/3/11
f 58/1/11 53/2/11 59/3/11
f 51/1/11 60/2/11 59/3/11
f 60/1/11 51/2/11 50/3/11
f 59/1/11 60/2/11 58/3/11
f 54/1/11 57/2/11 50/3/11
f 57/1/11 54/2/11 56/3/11
f 61/1/12 62/2/12 63/3/12
f 64/1/12 63/2/12 62/3/12
f 65/1/12 66/2/12 67/3/12
f 64/1/12 68/2/12 66/3/12
f 67/1/12 66/2/12 68/3/12
f 67/1/12 69/2/12 65/3/12
f 65/1/12 69/2/12 63/3/12
f 63/1/12 69/2/12 61/3/12
f 61/1/12 69/2/12 70/3/12
f 70/1/12 69/2/12 71/3/12
f 62/1/12 71/2/12 64/3/12
f 69/1/12 72/2/12 71/3/12
f 71/1/12 72/2/12 64/3/12
f 68/1/12 64/2/12 72/3/12
f 73/1/10 74/2/10 75/3/10
f 74/1/10 73/2/10 76/3/10
f 77/1/9 78/2/9 79/3/9
f 80/1/9 79/2/9 78/3/9
f 81/1/13 82/2/13 83/3/13
f 82/1/13 81/2/13 84/3/13
f 85/1/14 86/2/14 87/3/14
f 88/1/14 87/2/14 86/3/14
f 89/1/9 90/2/9 91/3/9
f 90/1/9 89/2/9 92/3/9
f 93/1/10 94/2/10 95/3/10
f 96/1/10 95/2/10 94/3/10
f 97/1/4 98/2/4 99/3/4
f 98/1/4 97/2/4 100/3/4
f 101/1/3 102/2/3 103/3/3
f 104/1/3 103/2/3 102/3/3
f 105/1/10 106/2/10 107/3/10
f 106/1/10 105/2/10 108/3/10
f 109/1/9 110/2/9 111/3/9
f 112/1/9 111/2/9 110/3/9
f 113/1/4 114/2/4 115/3/4
f 114/1/4 113/2/4 116/3/4
f 117/1/3 118/2/3 119/3/3
f 120/1/3 119/2/3 118/3/3
f 121/1/3 122/2/3 123/3/3
f 122/1/3 121/2/3 124/3/3
f 125/1/4 126/2/4 127/3/4
f 128/1/4 127/2/4 126/3/4
f 129/1/9 89/2/9 130/3/9
f 89/1/9 129/2/9 92/3/9
f 93/1/10 131/2/10 94/3/10
f 132/1/10 94/2/10 131/3/10
f 106/1/10 133/2/10 134/3/10
f 133/1/10 106/2/10 108/3/10
f 109/1/9 111/2/9 135/3/9
f 136/1/9 135/2/9 111/3/9
f 137/1/3 138/2/3 139/3/3
f 138/1/3 137/2/3 140/3/3
f 141/1/4 142/2/4 143/3/4
f 144/1/4 143/2/4 142/3/4
f 149/1/12 150/2/12 151/3/12
f 150/1/12 149/2/12 152/3/12
usemtl dt1
f 145/1/11 146/4/11 147/5/11
f 146/4/11 145/1/11 148/6/11
usemtl material.005
f 153/1/11 154/2/11 155/3/11
f 156/1/11 155/2/11 154/3/11
