# Blender v2.76 (sub 0) OBJ File: 'my building1.blend'
# www.blender.org
mtllib instance_21.001_ID1736.mtl
o instance_21.001_ID1736
v -6.574759 1.506057 -0.095250
v -6.574759 0.902807 -0.095250
v -5.590510 1.506057 -0.095250
v -5.590510 0.902807 -0.095250
v -6.574759 0.902807 -0.095250
v -5.590510 1.506057 -0.095250
v -5.590510 0.902807 -0.095250
v -6.574759 1.506057 -0.095250
v -5.590510 0.902807 -0.095250
v -5.590510 1.506057 -0.095250
v -6.574759 0.902807 -0.095250
v -6.574759 1.506057 -0.095250
v -6.629102 0.918280 -0.095250
v -6.629102 0.906334 -0.095250
v -6.596677 0.918280 -0.095250
v -6.596677 0.906334 -0.095250
v -6.629102 0.906334 -0.095250
v -6.596677 0.918280 -0.095250
v -6.596677 0.906334 -0.095250
v -6.629102 0.918280 -0.095250
v -6.596677 0.918280 -0.095250
v -6.629102 0.918280 -0.095250
v -6.596677 0.906334 -0.095250
v -6.629102 0.906334 -0.095250
v -5.511135 0.823432 -0.095250
v -6.654135 0.823432 -0.095250
v -5.511135 0.823432 -0.071438
v -6.654135 0.823432 -0.071437
v -6.654135 1.587806 -0.095250
v -6.654135 1.587806 -0.047625
v -6.654135 0.823432 -0.095250
v -6.654135 0.823432 -0.071437
v -6.654135 0.690479 -0.071437
v -6.654135 0.690479 -0.047625
v -5.511135 1.587806 -0.095250
v -5.511135 0.823432 -0.071438
v -5.511135 1.587806 -0.047625
v -5.511135 0.690479 -0.047625
v -5.511135 0.690479 -0.071438
v -5.511135 0.823432 -0.095250
v -6.654135 0.823432 -0.095250
v -5.511135 0.823432 -0.071438
v -6.654135 0.823432 -0.071437
v -5.511135 0.823432 -0.095250
v -6.654135 1.587806 -0.047625
v -6.654135 0.690479 -0.071437
v -6.654135 0.690479 -0.047625
v -6.654135 0.823432 -0.071437
v -6.654135 0.823432 -0.095250
v -6.654135 1.587806 -0.095250
v -5.511135 1.587806 -0.095250
v -5.511135 0.823432 -0.071438
v -5.511135 0.823432 -0.095250
v -5.511135 0.690479 -0.047625
v -5.511135 0.690479 -0.071438
v -5.511135 1.587806 -0.047625
v -6.654135 0.823432 -0.071437
v -6.654135 0.823432 -0.095250
v -5.511135 0.823432 -0.095250
v -5.511135 0.823432 -0.071438
v -6.654135 1.587806 -0.047625
v -6.654135 0.690479 -0.047625
v -6.654135 1.587806 -0.095250
v -6.654135 0.690479 -0.071437
v -5.511135 0.690479 -0.071438
v -5.511135 1.587806 -0.095250
v -5.511135 1.587806 -0.047625
v -5.511135 0.690479 -0.047625
v -6.629102 0.976303 -0.095250
v -6.629102 0.964357 -0.095250
v -6.596677 0.976303 -0.095250
v -6.596677 0.964357 -0.095250
v -6.629102 0.964357 -0.095250
v -6.596677 0.976303 -0.095250
v -6.596677 0.964357 -0.095250
v -6.629102 0.976303 -0.095250
v -6.596677 0.976303 -0.095250
v -6.629102 0.976303 -0.095250
v -6.596677 0.964357 -0.095250
v -6.629102 0.964357 -0.095250
v -5.511135 0.690479 -0.047625
v -5.447635 1.587806 -0.047625
v -5.511135 1.587806 -0.047625
v -6.717635 1.587806 -0.047625
v -6.717635 0.664682 -0.047625
v -6.654135 1.587806 -0.047625
v -6.654135 0.690479 -0.047625
v -5.447635 0.664682 -0.047625
v -6.654135 1.587806 -0.047625
v -5.511135 1.587806 -0.047625
v -6.717635 1.587806 -0.047625
v -5.447635 1.587806 -0.047625
v -6.717635 1.587806 0.000000
v -5.447635 1.587806 0.000000
v -5.511135 0.690479 -0.071438
v -6.654135 0.690479 -0.071437
v -5.511135 0.690479 -0.047625
v -6.654135 0.690479 -0.047625
v -5.447635 0.664682 -0.047625
v -6.717635 0.664682 -0.047625
v -5.447635 0.664682 0.000000
v -6.717635 0.664682 0.000000
v -6.717635 1.587806 -0.047625
v -6.717635 1.587806 0.000000
v -6.717635 0.664682 -0.047625
v -6.717635 0.664682 0.000000
v -6.654135 1.587806 -0.095250
v -5.511135 1.587806 -0.095250
v -6.654135 1.587806 -0.047625
v -5.511135 1.587806 -0.047625
v -6.654135 0.690479 -0.071437
v -6.622385 0.807557 -0.071437
v -6.654135 0.823432 -0.071437
v -5.542885 0.807557 -0.071438
v -5.542885 0.706354 -0.071438
v -5.511135 0.823432 -0.071438
v -6.622385 0.706354 -0.071437
v -5.511135 0.690479 -0.071438
v -6.629102 0.925107 -0.095250
v -6.629102 0.918280 -0.095250
v -6.596677 0.925107 -0.095250
v -6.596677 0.918280 -0.095250
v -6.629102 0.943879 -0.095250
v -6.629102 0.937052 -0.095250
v -6.596677 0.943879 -0.095250
v -6.596677 0.937052 -0.095250
v -6.629102 0.964357 -0.095250
v -6.629102 0.955824 -0.095250
v -6.596677 0.964357 -0.095250
v -6.596677 0.955824 -0.095250
v -6.654135 0.823432 -0.095250
v -6.629102 0.976303 -0.095250
v -6.654135 1.587806 -0.095250
v -6.596677 0.976303 -0.095250
v -6.596677 0.906334 -0.095250
v -6.574759 1.506057 -0.095250
v -5.590510 1.506057 -0.095250
v -5.590510 0.902807 -0.095250
v -5.511135 1.587806 -0.095250
v -6.629102 0.906334 -0.095250
v -6.574759 0.902807 -0.095250
v -5.511135 0.823432 -0.095250
v -5.447635 0.664682 -0.047625
v -5.511135 0.690479 -0.047625
v -5.447635 1.587806 -0.047625
v -6.717635 0.664682 -0.047625
v -6.654135 0.690479 -0.047625
v -6.654135 1.587806 -0.047625
v -6.717635 1.587806 -0.047625
v -5.511135 1.587806 -0.047625
v -5.447635 1.587806 -0.047625
v -6.717635 1.587806 0.000000
v -5.447635 1.587806 0.000000
v -6.717635 1.587806 -0.047625
v -5.511135 1.587806 -0.047625
v -6.654135 1.587806 -0.047625
v -6.654135 0.690479 -0.071437
v -5.511135 0.690479 -0.047625
v -6.654135 0.690479 -0.047625
v -5.511135 0.690479 -0.071438
v -6.717635 0.664682 -0.047625
v -5.447635 0.664682 0.000000
v -6.717635 0.664682 0.000000
v -5.447635 0.664682 -0.047625
v -6.717635 1.587806 0.000000
v -6.717635 0.664682 -0.047625
v -6.717635 0.664682 0.000000
v -6.717635 1.587806 -0.047625
v -5.511135 1.587806 -0.095250
v -6.654135 1.587806 -0.047625
v -5.511135 1.587806 -0.047625
v -6.654135 1.587806 -0.095250
v -5.511135 0.690479 -0.071438
v -5.542885 0.706354 -0.071438
v -5.511135 0.823432 -0.071438
v -6.654135 0.690479 -0.071437
v -6.622385 0.706354 -0.071437
v -6.622385 0.807557 -0.071437
v -5.542885 0.807557 -0.071438
v -6.654135 0.823432 -0.071437
v -5.511135 0.823432 -0.095250
v -5.590510 0.902807 -0.095250
v -5.511135 1.587806 -0.095250
v -6.654135 0.823432 -0.095250
v -6.574759 0.902807 -0.095250
v -6.596677 0.906334 -0.095250
v -6.574759 1.506057 -0.095250
v -6.629102 0.906334 -0.095250
v -6.629102 0.918280 -0.095250
v -6.629102 0.925107 -0.095250
v -6.629102 0.937052 -0.095250
v -6.629102 0.943879 -0.095250
v -6.629102 0.955824 -0.095250
v -6.629102 0.964357 -0.095250
v -6.629102 0.976303 -0.095250
v -5.590510 1.506057 -0.095250
v -6.654135 1.587806 -0.095250
v -6.596677 0.976303 -0.095250
v -6.596677 0.918280 -0.095250
v -6.596677 0.925107 -0.095250
v -6.596677 0.937052 -0.095250
v -6.596677 0.943879 -0.095250
v -6.596677 0.955824 -0.095250
v -6.596677 0.964357 -0.095250
v -6.654135 1.587806 -0.047625
v -6.717635 1.587806 -0.047625
v -6.654135 0.690479 -0.047625
v -5.511135 0.690479 -0.047625
v -5.511135 1.587806 -0.047625
v -5.447635 1.587806 -0.047625
v -5.447635 0.664682 -0.047625
v -6.717635 0.664682 -0.047625
v -6.717635 1.587806 0.000000
v -5.447635 1.587806 0.000000
v -6.654135 0.690479 -0.071437
v -5.511135 0.690479 -0.071438
v -5.447635 0.664682 0.000000
v -6.717635 0.664682 0.000000
v -5.511135 1.587806 -0.095250
v -6.654135 1.587806 -0.095250
v -6.654135 0.823432 -0.071437
v -5.511135 0.823432 -0.071438
v -6.622385 0.807557 -0.071437
v -5.542885 0.807557 -0.071438
v -6.622385 0.706354 -0.071437
v -5.542885 0.706354 -0.071438
v -6.654135 0.823432 -0.095250
v -5.511135 0.823432 -0.095250
v -6.629102 0.906334 -0.095250
v -6.596677 0.906334 -0.095250
v -6.596677 0.918280 -0.095250
v -6.629102 0.918280 -0.095250
v -6.596677 0.937052 -0.095250
v -6.629102 0.937052 -0.095250
v -6.629102 0.925107 -0.095250
v -6.596677 0.925107 -0.095250
v -5.590510 1.506057 -0.095250
v -6.574759 1.506057 -0.095250
v -6.574759 0.902807 -0.095250
v -5.590510 0.902807 -0.095250
v -6.596677 0.943879 -0.095250
v -6.596677 0.955824 -0.095250
v -6.629102 0.955824 -0.095250
v -6.629102 0.943879 -0.095250
v -6.596677 0.976303 -0.095250
v -6.629102 0.976303 -0.095250
v -6.629102 0.964357 -0.095250
v -6.596677 0.964357 -0.095250
v -6.629102 0.937052 -0.095250
v -6.629102 0.925107 -0.095250
v -6.596677 0.937052 -0.095250
v -6.596677 0.925107 -0.095250
v -6.629102 0.925107 -0.095250
v -6.596677 0.937052 -0.095250
v -6.596677 0.925107 -0.095250
v -6.629102 0.937052 -0.095250
v -6.596677 0.937052 -0.095250
v -6.629102 0.937052 -0.095250
v -6.596677 0.925107 -0.095250
v -6.629102 0.925107 -0.095250
v -6.622385 0.807557 -0.071437
v -6.622385 0.706354 -0.071437
v -5.542885 0.807557 -0.071438
v -5.542885 0.706354 -0.071438
v -6.622385 0.706354 -0.071437
v -5.542885 0.807557 -0.071438
v -5.542885 0.706354 -0.071438
v -6.622385 0.807557 -0.071437
v -6.622385 0.807557 -0.071437
v -5.542885 0.807557 -0.071438
v -5.542885 0.706354 -0.071438
v -6.622385 0.706354 -0.071437
v -5.447635 1.587806 0.000000
v -5.447635 1.587806 -0.047625
v -5.447635 0.664682 0.000000
v -5.447635 0.664682 -0.047625
v -5.447635 1.587806 -0.047625
v -5.447635 0.664682 0.000000
v -5.447635 0.664682 -0.047625
v -5.447635 1.587806 0.000000
v -5.447635 1.587806 0.000000
v -5.447635 0.664682 0.000000
v -5.447635 0.664682 -0.047625
v -5.447635 1.587806 -0.047625
v -6.629102 0.955824 -0.095250
v -6.629102 0.943879 -0.095250
v -6.596677 0.955824 -0.095250
v -6.596677 0.943879 -0.095250
v -6.629102 0.943879 -0.095250
v -6.596677 0.955824 -0.095250
v -6.596677 0.943879 -0.095250
v -6.629102 0.955824 -0.095250
v -6.596677 0.955824 -0.095250
v -6.629102 0.955824 -0.095250
v -6.596677 0.943879 -0.095250
v -6.629102 0.943879 -0.095250
vt 0.000000 0.000000
vt 1.000000 0.000000
vt 1.000000 1.000000
vt 0.616319 0.130208
vt 0.078125 0.460069
vt 0.078125 0.130208
vt 0.616319 0.460069
vn 0.000000 0.000000 -1.000000
vn 0.000000 1.000000 0.000000
vn -0.000000 0.010200 0.999900
vn -0.000000 -1.000000 -0.000000
vn -1.000000 0.000000 0.000000
vn -0.000000 0.000000 1.000000
vn 1.000000 0.000000 0.000000
usemtl __DarkGray_
s off
f 143/1/1 144/2/1 145/3/1
f 144/1/1 143/2/1 146/3/1
f 144/1/1 146/2/1 147/3/1
f 147/1/1 146/2/1 148/3/1
f 148/1/1 146/2/1 149/3/1
f 150/1/1 145/2/1 144/3/1
f 151/1/2 152/2/2 153/3/2
f 152/1/2 151/2/2 154/3/2
f 154/1/3 151/2/3 155/3/3
f 154/1/4 155/2/4 156/3/4
f 157/1/4 158/2/4 159/3/4
f 158/1/4 157/2/4 160/3/4
f 161/1/4 162/2/4 163/3/4
f 162/1/4 161/2/4 164/3/4
f 165/1/5 166/2/5 167/3/5
f 166/1/5 165/2/5 168/3/5
f 169/1/2 170/2/2 171/3/2
f 170/1/2 169/2/2 172/3/2
f 173/1/1 174/2/1 175/3/1
f 174/1/1 173/2/1 176/3/1
f 174/1/1 176/2/1 177/3/1
f 177/1/1 176/2/1 178/3/1
f 175/1/1 179/2/1 180/3/1
f 179/1/1 175/2/1 174/3/1
f 180/1/1 179/2/1 178/3/1
f 180/1/1 178/2/1 176/3/1
f 181/1/1 182/2/1 183/3/1
f 182/1/1 181/2/1 184/3/1
f 182/1/1 184/2/1 185/3/1
f 185/1/1 184/2/1 186/3/1
f 185/1/1 186/2/1 187/3/1
f 186/1/1 184/2/1 188/3/1
f 188/1/1 184/2/1 189/3/1
f 189/1/1 184/2/1 190/3/1
f 190/1/1 184/2/1 191/3/1
f 191/1/1 184/2/1 192/3/1
f 192/1/1 184/2/1 193/3/1
f 193/1/1 184/2/1 194/3/1
f 194/1/1 184/2/1 195/3/1
f 183/1/1 196/2/1 197/3/1
f 196/1/1 183/2/1 182/3/1
f 197/1/1 196/2/1 187/3/1
f 197/1/1 187/2/1 198/3/1
f 198/1/1 187/2/1 186/3/1
f 198/1/5 186/2/5 199/3/5
f 198/1/6 199/2/6 200/3/6
f 198/1/6 200/2/6 201/3/6
f 198/1/7 201/2/7 202/3/7
f 198/1/6 202/2/6 203/3/6
f 198/1/7 203/2/7 204/3/7
f 197/1/1 198/2/1 195/3/1
f 197/1/1 195/2/1 184/3/1
f 193/1/1 204/2/1 203/3/1
f 204/1/1 193/2/1 194/3/1
f 191/1/1 202/2/1 201/3/1
f 202/1/1 191/2/1 192/3/1
f 189/1/1 200/2/1 199/3/1
f 200/1/1 189/2/1 190/3/1
usemtl material_0
f 1/1/6 2/1/6 3/1/6
f 4/1/6 3/1/6 2/1/6
f 13/1/6 14/2/6 15/3/6
f 16/1/6 15/2/6 14/3/6
f 25/1/2 26/2/2 27/3/2
f 28/1/2 27/2/2 26/3/2
f 29/1/7 30/2/7 31/3/7
f 31/1/7 30/2/7 32/3/7
f 32/1/7 30/2/7 33/3/7
f 34/1/7 33/2/7 30/3/7
f 35/1/5 36/2/5 37/3/5
f 37/1/5 36/2/5 38/3/5
f 39/1/5 38/2/5 36/3/5
f 40/1/5 36/2/5 35/3/5
f 69/1/6 70/2/6 71/3/6
f 72/1/6 71/2/6 70/3/6
f 81/1/6 82/2/6 83/3/6
f 84/1/6 85/2/6 86/3/6
f 86/1/6 85/2/6 87/3/6
f 87/1/6 85/2/6 81/3/6
f 85/1/6 88/2/6 81/3/6
f 82/1/6 81/2/6 88/3/6
f 89/1/2 90/2/2 91/3/2
f 90/1/4 92/2/4 91/3/4
f 91/1/4 92/2/4 93/3/4
f 94/1/4 93/2/4 92/3/4
f 95/1/2 96/2/2 97/3/2
f 98/1/2 97/2/2 96/3/2
f 99/1/2 100/2/2 101/3/2
f 102/1/2 101/2/2 100/3/2
f 103/1/7 104/2/7 105/3/7
f 106/1/7 105/2/7 104/3/7
f 107/1/4 108/2/4 109/3/4
f 110/1/4 109/2/4 108/3/4
f 111/1/6 112/2/6 113/3/6
f 112/1/6 114/2/6 113/3/6
f 115/1/6 116/2/6 114/3/6
f 113/1/6 114/2/6 116/3/6
f 112/1/6 111/2/6 117/3/6
f 117/1/6 111/2/6 115/3/6
f 111/1/6 118/2/6 115/3/6
f 116/1/6 115/2/6 118/3/6
f 119/1/6 120/2/6 121/3/6
f 122/1/6 121/2/6 120/3/6
f 123/1/6 124/2/6 125/3/6
f 126/1/6 125/2/6 124/3/6
f 127/1/6 128/2/6 129/3/6
f 130/1/6 129/2/6 128/3/6
f 131/1/6 132/2/6 133/3/6
f 132/1/6 134/2/6 133/3/6
f 129/1/6 130/2/6 134/3/6
f 130/1/6 125/2/6 134/3/6
f 125/1/6 126/2/6 134/3/6
f 126/1/6 121/2/6 134/3/6
f 121/1/6 122/2/6 134/3/6
f 122/1/6 135/2/6 134/3/6
f 135/1/6 136/2/6 134/3/6
f 134/1/6 136/2/6 133/3/6
f 136/1/6 137/2/6 133/3/6
f 138/1/6 139/2/6 137/3/6
f 133/1/6 137/2/6 139/3/6
f 132/1/6 131/2/6 127/3/6
f 127/1/6 131/2/6 128/3/6
f 128/1/6 131/2/6 123/3/6
f 123/1/6 131/2/6 124/3/6
f 124/1/6 131/2/6 119/3/6
f 119/1/6 131/2/6 120/3/6
f 120/1/6 131/2/6 140/3/6
f 140/1/6 131/2/6 135/3/6
f 136/1/6 135/2/6 141/3/6
f 135/1/6 131/2/6 141/3/6
f 141/1/6 131/2/6 138/3/6
f 131/1/6 142/2/6 138/3/6
f 139/1/6 138/2/6 142/3/6
f 249/1/6 250/2/6 251/3/6
f 252/1/6 251/2/6 250/3/6
f 261/1/6 262/2/6 263/3/6
f 264/1/6 263/2/6 262/3/6
f 273/1/5 274/2/5 275/3/5
f 276/1/5 275/2/5 274/3/5
f 285/1/6 286/2/6 287/3/6
f 288/1/6 287/2/6 286/3/6
usemtl __CorrogateShiny_2
f 5/4/1 6/5/1 7/6/1
f 6/5/1 5/4/1 8/7/1
usemtl __Maroon_
f 17/1/1 18/2/1 19/3/1
f 18/1/1 17/2/1 20/3/1
usemtl __Charcoal_
f 41/1/4 42/2/4 43/3/4
f 42/1/4 41/2/4 44/3/4
f 45/1/5 46/2/5 47/3/5
f 46/1/5 45/2/5 48/3/5
f 48/1/5 45/2/5 49/3/5
f 49/1/5 45/2/5 50/3/5
f 51/1/7 52/2/7 53/3/7
f 52/1/7 54/2/7 55/3/7
f 54/1/7 52/2/7 56/3/7
f 56/1/7 52/2/7 51/3/7
f 73/1/1 74/2/1 75/3/1
f 74/1/1 73/2/1 76/3/1
f 253/1/1 254/2/1 255/3/1
f 254/1/1 253/2/1 256/3/1
f 265/1/1 266/2/1 267/3/1
f 266/1/1 265/2/1 268/3/1
f 277/1/7 278/2/7 279/3/7
f 278/1/7 277/2/7 280/3/7
f 289/1/1 290/2/1 291/3/1
f 290/1/1 289/2/1 292/3/1
l 11 9
l 12 11
l 10 12
l 9 10
l 23 21
l 24 23
l 22 24
l 21 22
l 68 67
l 61 63
l 57 58
l 57 64
l 67 66
l 60 59
l 59 66
l 58 59
l 61 62
l 68 65
l 60 65
l 57 60
l 63 58
l 62 64
l 79 77
l 80 79
l 78 80
l 77 78
l 241 242
l 206 212
l 239 240
l 224 226
l 245 246
l 210 209
l 246 247
l 232 229
l 209 205
l 209 219
l 228 219
l 242 243
l 235 236
l 223 224
l 240 237
l 222 216
l 208 209
l 227 228
l 236 233
l 231 232
l 219 220
l 212 218
l 247 248
l 248 245
l 230 231
l 216 215
l 220 227
l 210 214
l 208 207
l 244 241
l 225 223
l 243 244
l 221 215
l 238 239
l 208 216
l 234 235
l 212 211
l 205 220
l 211 217
l 229 230
l 205 207
l 206 213
l 226 225
l 207 215
l 211 210
l 237 238
l 233 234
l 213 218
l 221 222
l 218 217
l 214 213
l 205 206
l 259 257
l 260 259
l 258 260
l 257 258
l 270 271
l 272 269
l 271 272
l 269 270
l 283 282
l 284 281
l 283 284
l 281 282
l 295 293
l 296 295
l 294 296
l 293 294
