# Blender v2.76 (sub 0) OBJ File: 'my building1.blend'
# www.blender.org
mtllib instance_0_ID23.mtl
o tv_instance_0_ID23
v -2.044842 0.769409 0.262414
v -2.057542 0.769409 0.729969
v -2.044842 0.769409 0.729969
v -2.057542 0.769409 0.262414
v -2.057542 0.769409 0.729969
v -2.044842 1.167893 0.729969
v -2.044842 0.769409 0.729969
v -2.057542 1.167893 0.729969
v -2.044842 1.167893 0.262414
v -2.057542 0.769409 0.262414
v -2.044842 0.769409 0.262414
v -2.057542 1.167893 0.262414
v -2.057542 1.167893 0.262414
v -2.044842 1.167893 0.729969
v -2.057542 1.167893 0.729969
v -2.044842 1.167893 0.262414
v -2.057542 0.769409 0.262414
v -2.044842 0.769409 0.262414
v -2.057542 0.769409 0.729969
v -2.044842 0.769409 0.729969
v -2.057542 1.167893 0.729969
v -2.057542 0.769409 0.729969
v -2.044842 1.167893 0.729969
v -2.044842 0.769409 0.729969
v -2.057542 1.167893 0.262414
v -2.044842 1.167893 0.262414
v -2.057542 0.769409 0.262414
v -2.044842 0.769409 0.262414
v -2.044842 1.167893 0.262414
v -2.057542 1.167893 0.262414
v -2.044842 1.167893 0.729969
v -2.057542 1.167893 0.729969
v -2.438542 0.871009 0.612621
v -2.184542 0.769409 0.579093
v -2.184542 0.769409 0.729969
v -2.438542 0.871009 0.579093
v -2.438542 0.871009 0.579093
v -2.438542 0.871009 0.612621
v -2.184542 0.769409 0.579093
v -2.184542 0.769409 0.729969
v -2.413142 0.667809 0.430054
v -2.159142 0.667809 0.562329
v -2.413142 0.667809 0.562329
v -2.070242 0.667809 0.746733
v -2.159142 0.667809 0.746733
v -2.070242 0.667809 0.245650
v -2.159142 0.667809 0.430054
v -2.159142 0.667809 0.245650
v -2.159142 0.667809 0.245650
v -2.159142 0.667809 0.430054
v -2.070242 0.667809 0.245650
v -2.413142 0.667809 0.430054
v -2.159142 0.667809 0.562329
v -2.070242 0.667809 0.746733
v -2.159142 0.667809 0.746733
v -2.413142 0.667809 0.562329
v -2.159142 0.693209 0.746733
v -2.070242 0.667809 0.746733
v -2.070242 0.693209 0.746733
v -2.159142 0.667809 0.746733
v -2.159142 0.667809 0.746733
v -2.159142 0.693209 0.746733
v -2.070242 0.667809 0.746733
v -2.070242 0.693209 0.746733
v -2.159142 0.693209 0.746733
v -2.159142 0.667809 0.562329
v -2.159142 0.667809 0.746733
v -2.159142 0.693209 0.562329
v -2.159142 0.693209 0.562329
v -2.159142 0.693209 0.746733
v -2.159142 0.667809 0.562329
v -2.159142 0.667809 0.746733
v -2.413142 0.693209 0.562329
v -2.159142 0.667809 0.562329
v -2.159142 0.693209 0.562329
v -2.413142 0.667809 0.562329
v -2.413142 0.667809 0.562329
v -2.413142 0.693209 0.562329
v -2.159142 0.667809 0.562329
v -2.159142 0.693209 0.562329
v -2.413142 0.693209 0.562329
v -2.413142 0.667809 0.430054
v -2.413142 0.667809 0.562329
v -2.413142 0.693209 0.430054
v -2.413142 0.693209 0.430054
v -2.413142 0.693209 0.562329
v -2.413142 0.667809 0.430054
v -2.413142 0.667809 0.562329
v -2.413142 0.667809 0.430054
v -2.159142 0.693209 0.430054
v -2.159142 0.667809 0.430054
v -2.413142 0.693209 0.430054
v -2.413142 0.693209 0.430054
v -2.413142 0.667809 0.430054
v -2.159142 0.693209 0.430054
v -2.159142 0.667809 0.430054
v -2.159142 0.693209 0.430054
v -2.159142 0.667809 0.245650
v -2.159142 0.667809 0.430054
v -2.159142 0.693209 0.245650
v -2.159142 0.693209 0.245650
v -2.159142 0.693209 0.430054
v -2.159142 0.667809 0.245650
v -2.159142 0.667809 0.430054
v -2.159142 0.667809 0.245650
v -2.070242 0.693209 0.245650
v -2.070242 0.667809 0.245650
v -2.159142 0.693209 0.245650
v -2.159142 0.693209 0.245650
v -2.159142 0.667809 0.245650
v -2.070242 0.693209 0.245650
v -2.070242 0.667809 0.245650
v -2.070242 0.693209 0.245650
v -2.070242 0.667809 0.746733
v -2.070242 0.667809 0.245650
v -2.070242 0.693209 0.746733
v -2.070242 0.693209 0.746733
v -2.070242 0.693209 0.245650
v -2.070242 0.667809 0.746733
v -2.070242 0.667809 0.245650
v -2.044842 0.739227 0.445923
v -2.044842 0.724940 0.539173
v -2.044842 0.724940 0.445923
v -2.044842 0.739227 0.539173
v -2.044842 0.739227 0.539173
v -2.044842 0.739227 0.445923
v -2.044842 0.724940 0.539173
v -2.044842 0.724940 0.445923
v -2.057542 1.167893 0.729969
v -2.057542 0.769409 0.262414
v -2.057542 0.769409 0.729969
v -2.057542 1.167893 0.262414
v -2.057542 1.167893 0.262414
v -2.057542 1.167893 0.729969
v -2.057542 0.769409 0.262414
v -2.057542 0.769409 0.729969
v -2.044842 0.693209 0.228886
v -2.044842 0.724940 0.445923
v -2.044842 0.693209 0.763497
v -2.044842 0.769409 0.262414
v -2.044842 1.218693 0.228886
v -2.044842 0.739227 0.445923
v -2.044842 0.739227 0.539173
v -2.044842 1.167893 0.262414
v -2.044842 1.167893 0.729969
v -2.044842 0.769409 0.729969
v -2.044842 1.218693 0.763497
v -2.044842 0.724940 0.539173
v -2.044842 1.218693 0.228886
v -2.044842 1.167893 0.729969
v -2.044842 1.218693 0.763497
v -2.044842 0.769409 0.729969
v -2.044842 0.769409 0.262414
v -2.044842 0.739227 0.539173
v -2.044842 0.724940 0.539173
v -2.044842 0.724940 0.445923
v -2.044842 0.693209 0.763497
v -2.044842 1.167893 0.262414
v -2.044842 0.739227 0.445923
v -2.044842 0.693209 0.228886
v -2.044842 1.218693 0.228886
v -2.184542 1.218693 0.763497
v -2.044842 1.218693 0.763497
v -2.184542 1.218693 0.228886
v -2.184542 1.218693 0.228886
v -2.044842 1.218693 0.228886
v -2.184542 1.218693 0.763497
v -2.044842 1.218693 0.763497
v -2.184542 1.218693 0.763497
v -2.044842 0.693209 0.763497
v -2.044842 1.218693 0.763497
v -2.184542 0.693209 0.763497
v -2.184542 0.693209 0.763497
v -2.184542 1.218693 0.763497
v -2.044842 0.693209 0.763497
v -2.044842 1.218693 0.763497
v -2.438542 0.693209 0.579093
v -2.413142 0.693209 0.562329
v -2.184542 0.693209 0.579093
v -2.438542 0.693209 0.413290
v -2.413142 0.693209 0.430054
v -2.159142 0.693209 0.430054
v -2.184542 0.693209 0.413290
v -2.159142 0.693209 0.245650
v -2.184542 0.693209 0.228886
v -2.070242 0.693209 0.245650
v -2.044842 0.693209 0.763497
v -2.070242 0.693209 0.746733
v -2.044842 0.693209 0.228886
v -2.159142 0.693209 0.746733
v -2.184542 0.693209 0.763497
v -2.159142 0.693209 0.562329
v -2.413142 0.693209 0.562329
v -2.184542 0.693209 0.579093
v -2.159142 0.693209 0.562329
v -2.159142 0.693209 0.746733
v -2.184542 0.693209 0.763497
v -2.044842 0.693209 0.763497
v -2.184542 0.693209 0.228886
v -2.070242 0.693209 0.245650
v -2.044842 0.693209 0.228886
v -2.070242 0.693209 0.746733
v -2.159142 0.693209 0.245650
v -2.184542 0.693209 0.413290
v -2.159142 0.693209 0.430054
v -2.438542 0.693209 0.413290
v -2.413142 0.693209 0.430054
v -2.438542 0.693209 0.579093
v -2.044842 0.693209 0.228886
v -2.184542 1.218693 0.228886
v -2.044842 1.218693 0.228886
v -2.184542 0.693209 0.228886
v -2.184542 0.693209 0.228886
v -2.044842 0.693209 0.228886
v -2.184542 1.218693 0.228886
v -2.044842 1.218693 0.228886
v -2.184542 0.693209 0.763497
v -2.184542 0.769409 0.729969
v -2.184542 0.693209 0.579093
v -2.184542 1.218693 0.763497
v -2.184542 1.167893 0.729969
v -2.184542 1.167893 0.262414
v -2.184542 0.769409 0.413290
v -2.184542 0.693209 0.228886
v -2.184542 0.693209 0.413290
v -2.184542 0.769409 0.262414
v -2.184542 1.218693 0.228886
v -2.184542 0.769409 0.579093
v -2.438542 0.871009 0.413290
v -2.184542 0.769409 0.413290
v -2.438542 0.693209 0.413290
v -2.184542 0.693209 0.413290
v -2.438542 0.990093 0.612621
v -2.184542 0.769409 0.729969
v -2.184542 1.167893 0.729969
v -2.438542 0.871009 0.612621
v -2.184542 0.769409 0.579093
v -2.438542 0.693209 0.579093
v -2.184542 0.693209 0.579093
v -2.438542 0.871009 0.579093
v -2.438542 0.990093 0.612621
v -2.438542 0.871009 0.579093
v -2.438542 0.871009 0.612621
v -2.438542 0.871009 0.413290
v -2.438542 0.871009 0.379762
v -2.438542 0.990093 0.379762
v -2.438542 0.693209 0.413290
v -2.438542 0.693209 0.579093
v -2.184542 0.769409 0.413290
v -2.438542 0.693209 0.413290
v -2.184542 0.693209 0.413290
v -2.438542 0.871009 0.413290
v -2.184542 0.769409 0.729969
v -2.184542 0.693209 0.579093
v -2.184542 0.769409 0.579093
v -2.184542 1.218693 0.763497
v -2.184542 1.167893 0.262414
v -2.184542 1.218693 0.228886
v -2.184542 0.769409 0.262414
v -2.184542 0.693209 0.228886
v -2.184542 0.769409 0.413290
v -2.184542 0.693209 0.413290
v -2.184542 1.167893 0.729969
v -2.184542 0.693209 0.763497
v -2.438542 0.871009 0.612621
v -2.438542 0.990093 0.612621
v -2.184542 0.769409 0.729969
v -2.184542 1.167893 0.729969
v -2.438542 0.871009 0.579093
v -2.184542 0.769409 0.579093
v -2.438542 0.693209 0.579093
v -2.184542 0.693209 0.579093
v -2.438542 0.871009 0.413290
v -2.438542 0.871009 0.579093
v -2.438542 0.693209 0.413290
v -2.438542 0.693209 0.579093
v -2.438542 0.990093 0.379762
v -2.438542 0.990093 0.612621
v -2.438542 0.871009 0.379762
v -2.438542 0.871009 0.612621
v -2.184542 1.167893 0.262414
v -2.438542 0.990093 0.612621
v -2.184542 1.167893 0.729969
v -2.438542 0.990093 0.379762
v -2.438542 0.990093 0.379762
v -2.184542 1.167893 0.262414
v -2.438542 0.990093 0.612621
v -2.184542 1.167893 0.729969
v -2.438542 0.871009 0.379762
v -2.184542 1.167893 0.262414
v -2.184542 0.769409 0.262414
v -2.438542 0.990093 0.379762
v -2.438542 0.990093 0.379762
v -2.438542 0.871009 0.379762
v -2.184542 1.167893 0.262414
v -2.184542 0.769409 0.262414
v -2.438542 0.871009 0.379762
v -2.184542 0.769409 0.413290
v -2.438542 0.871009 0.413290
v -2.184542 0.769409 0.262414
v -2.184542 0.769409 0.262414
v -2.438542 0.871009 0.379762
v -2.184542 0.769409 0.413290
v -2.438542 0.871009 0.413290
vt 0.000128 0.606630
vt 0.504502 0.950765
vt 0.000128 0.999872
vt 0.461533 0.606630
vt 0.997403 0.987348
vt -0.005598 0.997088
vt 0.998893 -0.004336
vt 0.006642 0.003367
vt 0.991949 0.001619
vt 0.002490 0.993574
vt 0.000000 0.000000
vt 1.000000 0.000000
vt 1.000000 1.000000
vn -1.000000 0.000000 0.000000
vn 1.000000 0.000000 0.000000
vn 0.000000 1.000000 0.000000
vn 0.000000 0.000000 -1.000000
vn 0.000000 -0.000000 1.000000
vn 0.000000 -1.000000 -0.000000
vn -0.371400 -0.928500 0.000000
vn 0.371400 0.928500 0.000000
vn -0.419400 -0.000000 0.907800
vn 0.419400 0.000000 -0.907800
vn -0.573500 0.819200 0.000000
vn 0.573500 -0.819200 0.000000
vn -0.419400 0.000000 -0.907800
vn 0.419400 0.000000 0.907800
usemtl smb
s 1
f 129/1/1 130/2/1 131/3/1
f 130/2/1 129/1/1 132/4/1
f 133/5/2 134/6/2 135/7/2
f 136/8/2 135/9/2 134/10/2
usemtl __Charcoal_.001
f 1/11/3 2/12/3 3/13/3
f 2/11/3 1/12/3 4/13/3
f 5/11/4 6/12/4 7/13/4
f 6/11/4 5/12/4 8/13/4
f 9/11/5 10/12/5 11/13/5
f 10/11/5 9/12/5 12/13/5
f 13/11/6 14/12/6 15/13/6
f 14/11/6 13/12/6 16/13/6
f 17/11/6 18/12/6 19/13/6
f 20/11/6 19/12/6 18/13/6
f 21/11/5 22/12/5 23/13/5
f 24/11/5 23/12/5 22/13/5
f 25/11/4 26/12/4 27/13/4
f 28/11/4 27/12/4 26/13/4
f 29/11/3 30/12/3 31/13/3
f 32/11/3 31/12/3 30/13/3
f 33/11/7 34/12/7 35/13/7
f 34/11/7 33/12/7 36/13/7
f 37/11/8 38/12/8 39/13/8
f 40/11/8 39/12/8 38/13/8
f 41/11/6 42/12/6 43/13/6
f 42/11/6 44/12/6 45/13/6
f 44/11/6 42/12/6 46/13/6
f 46/11/6 42/12/6 47/13/6
f 47/11/6 42/12/6 41/13/6
f 46/11/6 47/12/6 48/13/6
f 49/11/3 50/12/3 51/13/3
f 52/11/3 53/12/3 50/13/3
f 50/11/3 53/12/3 51/13/3
f 51/11/3 53/12/3 54/13/3
f 55/11/3 54/12/3 53/13/3
f 56/11/3 53/12/3 52/13/3
f 57/11/5 58/12/5 59/13/5
f 58/11/5 57/12/5 60/13/5
f 61/11/4 62/12/4 63/13/4
f 64/11/4 63/12/4 62/13/4
f 65/11/1 66/12/1 67/13/1
f 66/11/1 65/12/1 68/13/1
f 69/11/2 70/12/2 71/13/2
f 72/11/2 71/12/2 70/13/2
f 73/11/5 74/12/5 75/13/5
f 74/11/5 73/12/5 76/13/5
f 77/11/4 78/12/4 79/13/4
f 80/11/4 79/12/4 78/13/4
f 81/11/1 82/12/1 83/13/1
f 82/11/1 81/12/1 84/13/1
f 85/11/2 86/12/2 87/13/2
f 88/11/2 87/12/2 86/13/2
f 89/11/4 90/12/4 91/13/4
f 90/11/4 89/12/4 92/13/4
f 93/11/5 94/12/5 95/13/5
f 96/11/5 95/12/5 94/13/5
f 97/11/1 98/12/1 99/13/1
f 98/11/1 97/12/1 100/13/1
f 101/11/2 102/12/2 103/13/2
f 104/11/2 103/12/2 102/13/2
f 105/11/4 106/12/4 107/13/4
f 106/11/4 105/12/4 108/13/4
f 109/11/5 110/12/5 111/13/5
f 112/11/5 111/12/5 110/13/5
f 113/11/2 114/12/2 115/13/2
f 114/11/2 113/12/2 116/13/2
f 117/11/1 118/12/1 119/13/1
f 120/11/1 119/12/1 118/13/1
f 125/11/1 126/12/1 127/13/1
f 128/11/1 127/12/1 126/13/1
f 137/11/2 138/12/2 139/13/2
f 138/11/2 137/12/2 140/13/2
f 140/11/2 137/12/2 141/13/2
f 138/11/2 140/12/2 142/13/2
f 142/11/2 140/12/2 143/13/2
f 140/11/2 141/12/2 144/13/2
f 144/11/2 141/12/2 145/13/2
f 139/11/2 146/12/2 147/13/2
f 146/11/2 139/12/2 148/13/2
f 148/11/2 139/12/2 138/13/2
f 146/11/2 148/12/2 143/13/2
f 146/11/2 143/12/2 140/13/2
f 147/11/2 146/12/2 145/13/2
f 147/11/2 145/12/2 141/13/2
f 149/11/1 150/12/1 151/13/1
f 150/11/1 152/12/1 151/13/1
f 153/11/1 154/12/1 152/13/1
f 154/11/1 155/12/1 152/13/1
f 156/11/1 157/12/1 155/13/1
f 155/11/1 157/12/1 152/13/1
f 151/11/1 152/12/1 157/13/1
f 150/11/1 149/12/1 158/13/1
f 158/11/1 149/12/1 153/13/1
f 154/11/1 153/12/1 159/13/1
f 159/11/1 153/12/1 156/13/1
f 149/11/1 160/12/1 153/13/1
f 153/11/1 160/12/1 156/13/1
f 157/11/1 156/12/1 160/13/1
f 161/11/3 162/12/3 163/13/3
f 162/11/3 161/12/3 164/13/3
f 165/11/6 166/12/6 167/13/6
f 168/11/6 167/12/6 166/13/6
f 169/11/5 170/12/5 171/13/5
f 170/11/5 169/12/5 172/13/5
f 173/11/4 174/12/4 175/13/4
f 176/11/4 175/12/4 174/13/4
f 177/11/6 178/12/6 179/13/6
f 178/11/6 177/12/6 180/13/6
f 178/11/6 180/12/6 181/13/6
f 181/11/6 180/12/6 182/13/6
f 182/11/6 180/12/6 183/13/6
f 182/11/6 183/12/6 184/13/6
f 184/11/6 183/12/6 185/13/6
f 184/11/6 185/12/6 186/13/6
f 187/11/6 188/12/6 189/13/6
f 188/11/6 187/12/6 190/13/6
f 189/11/6 188/12/6 186/13/6
f 189/11/6 186/12/6 185/13/6
f 191/11/6 190/12/6 187/13/6
f 190/11/6 191/12/6 179/13/6
f 190/11/6 179/12/6 192/13/6
f 192/11/6 179/12/6 178/13/6
f 193/11/3 194/12/3 195/13/3
f 195/11/3 194/12/3 196/13/3
f 194/11/3 197/12/3 196/13/3
f 198/11/3 196/12/3 197/13/3
f 199/11/3 200/12/3 201/13/3
f 200/11/3 202/12/3 201/13/3
f 196/11/3 198/12/3 202/13/3
f 201/11/3 202/12/3 198/13/3
f 200/11/3 199/12/3 203/13/3
f 199/11/3 204/12/3 203/13/3
f 203/11/3 204/12/3 205/13/3
f 204/11/3 206/12/3 205/13/3
f 205/11/3 206/12/3 207/13/3
f 207/11/3 206/12/3 193/13/3
f 206/11/3 208/12/3 193/13/3
f 194/11/3 193/12/3 208/13/3
f 209/11/4 210/12/4 211/13/4
f 210/11/4 209/12/4 212/13/4
f 213/11/5 214/12/5 215/13/5
f 216/11/5 215/12/5 214/13/5
f 217/11/1 218/12/1 219/13/1
f 218/11/1 217/12/1 220/13/1
f 218/11/1 220/12/1 221/13/1
f 221/11/1 220/12/1 222/13/1
f 223/11/1 224/12/1 225/13/1
f 224/11/1 223/12/1 226/13/1
f 224/11/1 226/12/1 227/13/1
f 227/11/1 226/12/1 222/13/1
f 227/11/1 222/12/1 220/13/1
f 228/11/1 219/12/1 218/13/1
f 229/11/4 230/12/4 231/13/4
f 232/11/4 231/12/4 230/13/4
f 233/11/9 234/12/9 235/13/9
f 234/11/9 233/12/9 236/13/9
f 237/11/5 238/12/5 239/13/5
f 238/11/5 237/12/5 240/13/5
f 241/11/1 242/12/1 243/13/1
f 242/11/1 241/12/1 244/13/1
f 244/11/1 241/12/1 245/13/1
f 245/11/1 241/12/1 246/13/1
f 242/11/1 247/12/1 248/13/1
f 247/11/1 242/12/1 244/13/1
f 249/11/5 250/12/5 251/13/5
f 250/11/5 249/12/5 252/13/5
f 253/11/2 254/12/2 255/13/2
f 256/11/2 257/12/2 258/13/2
f 257/11/2 259/12/2 258/13/2
f 258/11/2 259/12/2 260/13/2
f 259/11/2 261/12/2 260/13/2
f 262/11/2 260/12/2 261/13/2
f 257/11/2 256/12/2 263/13/2
f 263/11/2 256/12/2 253/13/2
f 256/11/2 264/12/2 253/13/2
f 254/11/2 253/12/2 264/13/2
f 265/11/10 266/12/10 267/13/10
f 268/11/10 267/12/10 266/13/10
f 269/11/4 270/12/4 271/13/4
f 272/11/4 271/12/4 270/13/4
f 273/11/2 274/12/2 275/13/2
f 276/11/2 275/12/2 274/13/2
f 277/11/2 278/12/2 279/13/2
f 279/11/2 278/12/2 273/13/2
f 273/11/2 278/12/2 274/13/2
f 280/11/2 274/12/2 278/13/2
f 281/11/11 282/12/11 283/13/11
f 282/11/11 281/12/11 284/13/11
f 285/11/12 286/12/12 287/13/12
f 288/11/12 287/12/12 286/13/12
f 289/11/13 290/12/13 291/13/13
f 290/11/13 289/12/13 292/13/13
f 293/11/14 294/12/14 295/13/14
f 296/11/14 295/12/14 294/13/14
f 297/11/7 298/12/7 299/13/7
f 298/11/7 297/12/7 300/13/7
f 301/11/8 302/12/8 303/13/8
f 304/11/8 303/12/8 302/13/8
usemtl __Ivory_.001_NONE_NONE
f 121/11/2 122/12/2 123/13/2
f 122/11/2 121/12/2 124/13/2
