# Blender v2.76 (sub 0) OBJ File: 'my building1.blend'
# www.blender.org
mtllib instance_17.015_ID921.005.mtl
o instance_17.015_ID921.005
v 0.343226 0.055230 5.742624
v 0.343226 0.455938 5.742624
v 0.343782 0.055230 5.710878
v 0.343782 0.455938 5.710878
v 0.311481 0.455938 5.742066
v 0.343226 0.455938 5.742624
v 0.311481 0.055230 5.742066
v 0.343226 0.055230 5.742624
v 0.343782 0.455938 5.710878
v 0.312037 0.455938 5.710321
v 0.343782 0.055230 5.710878
v 0.312037 0.055230 5.710321
v 0.311481 0.455938 5.742066
v 0.311481 0.055230 5.742066
v 0.312037 0.455938 5.710321
v 0.312037 0.055230 5.710321
v 0.343226 0.455938 5.742624
v 0.343782 0.055230 5.710878
v 0.343782 0.455938 5.710878
v 0.343226 0.055230 5.742624
v 0.343226 0.455938 5.742624
v 0.311481 0.055230 5.742066
v 0.343226 0.055230 5.742624
v 0.311481 0.455938 5.742066
v 0.312037 0.455938 5.710321
v 0.343782 0.055230 5.710878
v 0.312037 0.055230 5.710321
v 0.343782 0.455938 5.710878
v 0.311481 0.055230 5.742066
v 0.312037 0.455938 5.710321
v 0.312037 0.055230 5.710321
v 0.311481 0.455938 5.742066
v 0.343226 0.455938 5.742624
v 0.343782 0.455938 5.710878
v 0.343226 0.055230 5.742624
v 0.343782 0.055230 5.710878
v 0.311481 0.455938 5.742066
v 0.311481 0.055230 5.742066
v 0.312037 0.455938 5.710321
v 0.312037 0.055230 5.710321
v 0.600701 0.984997 5.686439
v 0.744340 1.001563 5.685476
v 0.311984 0.832893 5.713359
v 0.743718 0.832893 5.720940
v 0.528412 0.984997 5.685170
v 0.456127 0.984997 5.683900
v 0.312606 1.001563 5.677897
v 0.456127 0.984997 5.683900
v 0.456670 0.978464 5.652834
v 0.528412 0.984997 5.685170
v 0.528959 0.978464 5.654104
v 0.600701 0.984997 5.686439
v 0.601244 0.978464 5.655373
v 0.312606 1.001563 5.677897
v 0.313153 0.995030 5.646831
v 0.456127 0.984997 5.683900
v 0.456670 0.978464 5.652834
v 0.311606 0.660557 5.734898
v 0.311481 0.487688 5.742066
v 0.311984 0.832893 5.713359
v 0.312037 0.487030 5.710321
v 0.312162 0.657926 5.703234
v 0.312535 0.827648 5.682022
v 0.312606 1.001563 5.677897
v 0.313153 0.995030 5.646831
v 0.311984 0.832893 5.713359
v 0.743718 0.832893 5.720940
v 0.311606 0.660557 5.734898
v 0.743340 0.660557 5.742477
v 0.743340 0.660557 5.742477
v 0.743718 0.832893 5.720940
v 0.743215 0.487688 5.749647
v 0.743771 0.487030 5.717902
v 0.743896 0.657926 5.710814
v 0.744269 0.827648 5.689602
v 0.744340 1.001563 5.685476
v 0.744886 0.995030 5.654411
v 0.600701 0.984997 5.686439
v 0.601244 0.978464 5.655373
v 0.744340 1.001563 5.685476
v 0.744886 0.995030 5.654411
v 0.528959 0.978464 5.654104
v 0.456670 0.978464 5.652834
v 0.601244 0.978464 5.655373
v 0.744269 0.827648 5.689602
v 0.744886 0.995030 5.654411
v 0.313153 0.995030 5.646831
v 0.312535 0.827648 5.682022
v 0.743896 0.657926 5.710814
v 0.312162 0.657926 5.703234
v 0.743771 0.487030 5.717902
v 0.527904 0.487030 5.714111
v 0.312037 0.487030 5.710321
v 0.303902 0.455938 6.173800
v 0.304458 0.455938 6.142055
v 0.303902 0.487688 6.173800
v 0.311481 0.487688 5.742066
v 0.311481 0.455938 5.742066
v 0.312037 0.487030 5.710321
v 0.312037 0.455938 5.710321
v 0.311606 0.660557 5.734898
v 0.743340 0.660557 5.742477
v 0.311481 0.487688 5.742066
v 0.527348 0.487688 5.745856
v 0.743215 0.487688 5.749647
v 0.744269 0.827648 5.689602
v 0.312535 0.827648 5.682022
v 0.743896 0.657926 5.710814
v 0.312162 0.657926 5.703234
v 0.735633 0.455938 6.181379
v 0.735633 0.487688 6.181379
v 0.736192 0.455938 6.149634
v 0.743215 0.455938 5.749647
v 0.743215 0.487688 5.749647
v 0.743771 0.455938 5.717902
v 0.743771 0.487030 5.717902
v 0.527904 0.487030 5.714111
v 0.312037 0.487030 5.710321
v 0.743771 0.487030 5.717902
v 0.743771 0.455938 5.717902
v 0.712027 0.455938 5.717343
v 0.527904 0.455938 5.714111
v 0.343782 0.455938 5.710878
v 0.312037 0.455938 5.710321
v 0.303902 0.487688 6.173800
v 0.311481 0.487688 5.742066
v 0.519769 0.487688 6.177589
v 0.527348 0.487688 5.745856
v 0.735633 0.487688 6.181379
v 0.743215 0.487688 5.749647
v 0.304458 0.455938 6.142055
v 0.336203 0.455938 6.142612
v 0.311481 0.455938 5.742066
v 0.343226 0.455938 5.742624
v 0.519769 0.487688 6.177589
v 0.735633 0.487688 6.181379
v 0.303902 0.487688 6.173800
v 0.303902 0.455938 6.173800
v 0.335647 0.455938 6.174357
v 0.519769 0.455938 6.177589
v 0.703888 0.455938 6.180822
v 0.735633 0.455938 6.181379
v 0.335647 0.455938 6.174357
v 0.519769 0.455938 6.177589
v 0.343782 0.455938 5.710878
v 0.527904 0.455938 5.714111
v 0.703888 0.455938 6.180822
v 0.704447 0.455938 6.149077
v 0.711470 0.455938 5.749089
v 0.712027 0.455938 5.717343
v 0.736192 0.455938 6.149634
v 0.743215 0.455938 5.749647
v 0.311984 0.832893 5.713359
v 0.456127 0.984997 5.683900
v 0.312606 1.001563 5.677897
v 0.600701 0.984997 5.686439
v 0.528412 0.984997 5.685170
v 0.744340 1.001563 5.685476
v 0.743718 0.832893 5.720940
v 0.528959 0.978464 5.654104
v 0.600701 0.984997 5.686439
v 0.601244 0.978464 5.655373
v 0.528412 0.984997 5.685170
v 0.456670 0.978464 5.652834
v 0.456127 0.984997 5.683900
v 0.313153 0.995030 5.646831
v 0.456127 0.984997 5.683900
v 0.456670 0.978464 5.652834
v 0.312606 1.001563 5.677897
v 0.312535 0.827648 5.682022
v 0.312606 1.001563 5.677897
v 0.313153 0.995030 5.646831
v 0.311984 0.832893 5.713359
v 0.312162 0.657926 5.703234
v 0.312037 0.487030 5.710321
v 0.311481 0.487688 5.742066
v 0.311606 0.660557 5.734898
v 0.743718 0.832893 5.720940
v 0.311606 0.660557 5.734898
v 0.743340 0.660557 5.742477
v 0.311984 0.832893 5.713359
v 0.744340 1.001563 5.685476
v 0.744269 0.827648 5.689602
v 0.744886 0.995030 5.654411
v 0.743718 0.832893 5.720940
v 0.743896 0.657926 5.710814
v 0.743771 0.487030 5.717902
v 0.743215 0.487688 5.749647
v 0.743340 0.660557 5.742477
v 0.601244 0.978464 5.655373
v 0.744340 1.001563 5.685476
v 0.744886 0.995030 5.654411
v 0.600701 0.984997 5.686439
v 0.313153 0.995030 5.646831
v 0.744269 0.827648 5.689602
v 0.312535 0.827648 5.682022
v 0.456670 0.978464 5.652834
v 0.601244 0.978464 5.655373
v 0.744886 0.995030 5.654411
v 0.528959 0.978464 5.654104
v 0.312162 0.657926 5.703234
v 0.527904 0.487030 5.714111
v 0.312037 0.487030 5.710321
v 0.743771 0.487030 5.717902
v 0.743896 0.657926 5.710814
v 0.311481 0.455938 5.742066
v 0.312037 0.487030 5.710321
v 0.312037 0.455938 5.710321
v 0.311481 0.487688 5.742066
v 0.304458 0.455938 6.142055
v 0.303902 0.487688 6.173800
v 0.303902 0.455938 6.173800
v 0.743340 0.660557 5.742477
v 0.527348 0.487688 5.745856
v 0.743215 0.487688 5.749647
v 0.311481 0.487688 5.742066
v 0.311606 0.660557 5.734898
v 0.312535 0.827648 5.682022
v 0.743896 0.657926 5.710814
v 0.312162 0.657926 5.703234
v 0.744269 0.827648 5.689602
v 0.743215 0.487688 5.749647
v 0.743771 0.455938 5.717902
v 0.743771 0.487030 5.717902
v 0.743215 0.455938 5.749647
v 0.735633 0.487688 6.181379
v 0.736192 0.455938 6.149634
v 0.735633 0.455938 6.181379
v 0.312037 0.487030 5.710321
v 0.343782 0.455938 5.710878
v 0.312037 0.455938 5.710321
v 0.527904 0.455938 5.714111
v 0.712027 0.455938 5.717343
v 0.743771 0.455938 5.717902
v 0.743771 0.487030 5.717902
v 0.527904 0.487030 5.714111
v 0.527348 0.487688 5.745856
v 0.735633 0.487688 6.181379
v 0.743215 0.487688 5.749647
v 0.519769 0.487688 6.177589
v 0.311481 0.487688 5.742066
v 0.303902 0.487688 6.173800
v 0.336203 0.455938 6.142612
v 0.311481 0.455938 5.742066
v 0.343226 0.455938 5.742624
v 0.304458 0.455938 6.142055
v 0.735633 0.487688 6.181379
v 0.703888 0.455938 6.180822
v 0.735633 0.455938 6.181379
v 0.519769 0.455938 6.177589
v 0.335647 0.455938 6.174357
v 0.303902 0.455938 6.173800
v 0.303902 0.487688 6.173800
v 0.519769 0.487688 6.177589
v 0.736192 0.455938 6.149634
v 0.711470 0.455938 5.749089
v 0.743215 0.455938 5.749647
v 0.704447 0.455938 6.149077
v 0.527904 0.455938 5.714111
v 0.712027 0.455938 5.717343
v 0.703888 0.455938 6.180822
v 0.519769 0.455938 6.177589
v 0.343782 0.455938 5.710878
v 0.335647 0.455938 6.174357
v 0.600701 0.984997 5.686439
v 0.528412 0.984997 5.685170
v 0.456127 0.984997 5.683900
v 0.312606 1.001563 5.677897
v 0.311984 0.832893 5.713359
v 0.743718 0.832893 5.720940
v 0.744340 1.001563 5.685476
v 0.456670 0.978464 5.652834
v 0.528959 0.978464 5.654104
v 0.601244 0.978464 5.655373
v 0.313153 0.995030 5.646831
v 0.312037 0.487030 5.710321
v 0.312162 0.657926 5.703234
v 0.311481 0.487688 5.742066
v 0.311606 0.660557 5.734898
v 0.312535 0.827648 5.682022
v 0.743340 0.660557 5.742477
v 0.743215 0.487688 5.749647
v 0.743771 0.487030 5.717902
v 0.743896 0.657926 5.710814
v 0.744269 0.827648 5.689602
v 0.744886 0.995030 5.654411
v 0.527904 0.487030 5.714111
v 0.303902 0.487688 6.173800
v 0.312037 0.455938 5.710321
v 0.311481 0.455938 5.742066
v 0.304458 0.455938 6.142055
v 0.303902 0.455938 6.173800
v 0.527348 0.487688 5.745856
v 0.743771 0.455938 5.717902
v 0.735633 0.487688 6.181379
v 0.735633 0.455938 6.181379
v 0.736192 0.455938 6.149634
v 0.743215 0.455938 5.749647
v 0.712027 0.455938 5.717343
v 0.527904 0.455938 5.714111
v 0.343782 0.455938 5.710878
v 0.519769 0.487688 6.177589
v 0.336203 0.455938 6.142612
v 0.343226 0.455938 5.742624
v 0.335647 0.455938 6.174357
v 0.519769 0.455938 6.177589
v 0.703888 0.455938 6.180822
v 0.711470 0.455938 5.749089
v 0.704447 0.455938 6.149077
v 0.736192 0.455938 6.149634
v 0.704447 0.455938 6.149077
v 0.736080 0.055230 6.155983
v 0.704335 0.055230 6.155426
v 0.703888 0.055230 6.180822
v 0.704335 0.055230 6.155426
v 0.703888 0.455938 6.180822
v 0.704447 0.455938 6.149077
v 0.735633 0.055230 6.181379
v 0.735633 0.455938 6.181379
v 0.736080 0.055230 6.155983
v 0.736192 0.455938 6.149634
v 0.703888 0.455938 6.180822
v 0.735633 0.455938 6.181379
v 0.703888 0.055230 6.180822
v 0.735633 0.055230 6.181379
v 0.704447 0.455938 6.149077
v 0.736080 0.055230 6.155983
v 0.704335 0.055230 6.155426
v 0.736192 0.455938 6.149634
v 0.704335 0.055230 6.155426
v 0.703888 0.455938 6.180822
v 0.704447 0.455938 6.149077
v 0.703888 0.055230 6.180822
v 0.735633 0.455938 6.181379
v 0.736080 0.055230 6.155983
v 0.736192 0.455938 6.149634
v 0.735633 0.055230 6.181379
v 0.735633 0.455938 6.181379
v 0.703888 0.055230 6.180822
v 0.735633 0.055230 6.181379
v 0.703888 0.455938 6.180822
v 0.704447 0.455938 6.149077
v 0.704335 0.055230 6.155426
v 0.736192 0.455938 6.149634
v 0.736080 0.055230 6.155983
v 0.703888 0.055230 6.180822
v 0.703888 0.455938 6.180822
v 0.735633 0.455938 6.181379
v 0.735633 0.055230 6.181379
v 0.336203 0.455938 6.142612
v 0.304458 0.455938 6.142055
v 0.336091 0.055230 6.148961
v 0.304346 0.055230 6.148404
v 0.303902 0.055230 6.173800
v 0.304346 0.055230 6.148404
v 0.303902 0.455938 6.173800
v 0.304458 0.455938 6.142055
v 0.335647 0.055230 6.174357
v 0.335647 0.455938 6.174357
v 0.336091 0.055230 6.148961
v 0.336203 0.455938 6.142612
v 0.303902 0.455938 6.173800
v 0.335647 0.455938 6.174357
v 0.303902 0.055230 6.173800
v 0.335647 0.055230 6.174357
v 0.304458 0.455938 6.142055
v 0.336091 0.055230 6.148961
v 0.304346 0.055230 6.148404
v 0.336203 0.455938 6.142612
v 0.304346 0.055230 6.148404
v 0.303902 0.455938 6.173800
v 0.304458 0.455938 6.142055
v 0.303902 0.055230 6.173800
v 0.335647 0.455938 6.174357
v 0.336091 0.055230 6.148961
v 0.336203 0.455938 6.142612
v 0.335647 0.055230 6.174357
v 0.335647 0.455938 6.174357
v 0.303902 0.055230 6.173800
v 0.335647 0.055230 6.174357
v 0.303902 0.455938 6.173800
v 0.304458 0.455938 6.142055
v 0.304346 0.055230 6.148404
v 0.336203 0.455938 6.142612
v 0.336091 0.055230 6.148961
v 0.303902 0.055230 6.173800
v 0.303902 0.455938 6.173800
v 0.335647 0.455938 6.174357
v 0.335647 0.055230 6.174357
v 0.743215 0.055230 5.749647
v 0.743215 0.455938 5.749647
v 0.743771 0.055230 5.717902
v 0.743771 0.455938 5.717902
v 0.711470 0.455938 5.749089
v 0.743215 0.455938 5.749647
v 0.711470 0.055230 5.749089
v 0.743215 0.055230 5.749647
v 0.743771 0.455938 5.717902
v 0.712027 0.455938 5.717343
v 0.743771 0.055230 5.717902
v 0.712027 0.055230 5.717343
v 0.711470 0.455938 5.749089
v 0.711470 0.055230 5.749089
v 0.712027 0.455938 5.717343
v 0.712027 0.055230 5.717343
v 0.743215 0.455938 5.749647
v 0.743771 0.055230 5.717902
v 0.743771 0.455938 5.717902
v 0.743215 0.055230 5.749647
v 0.743215 0.455938 5.749647
v 0.711470 0.055230 5.749089
v 0.743215 0.055230 5.749647
v 0.711470 0.455938 5.749089
v 0.712027 0.455938 5.717343
v 0.743771 0.055230 5.717902
v 0.712027 0.055230 5.717343
v 0.743771 0.455938 5.717902
v 0.711470 0.055230 5.749089
v 0.712027 0.455938 5.717343
v 0.712027 0.055230 5.717343
v 0.711470 0.455938 5.749089
v 0.743215 0.455938 5.749647
v 0.743771 0.455938 5.717902
v 0.743215 0.055230 5.749647
v 0.743771 0.055230 5.717902
v 0.711470 0.455938 5.749089
v 0.711470 0.055230 5.749089
v 0.712027 0.455938 5.717343
v 0.712027 0.055230 5.717343
vt 0.000000 0.000000
vt 1.000000 0.000000
vt 1.000000 1.000000
vn -0.999800 0.000000 -0.017500
vn 0.017600 0.000000 -0.999800
vn -0.017500 0.000000 0.999800
vn 0.999800 0.000000 0.017500
vn 0.017200 -0.205800 -0.978500
vn 0.017200 -0.205800 -0.978400
vn -0.000000 0.782800 -0.622300
vn -0.003600 -0.978600 0.205700
vn -0.120600 -0.971900 0.202300
vn 0.999800 0.000000 0.017600
vn 0.017400 -0.124000 -0.992100
vn -0.999800 -0.000000 -0.017600
vn 0.113500 -0.971900 0.206400
vn 0.000000 -0.720500 0.693400
vn -0.017200 0.205800 0.978400
vn -0.017500 0.041400 0.999000
vn 0.017500 -0.041400 -0.999000
vn -0.017400 0.124000 0.992100
vn -0.000000 -1.000000 0.000300
vn 0.000000 -1.000000 -0.000300
vn -0.017600 0.000000 0.999800
vn -0.017600 -0.000200 0.999800
vn -0.000000 -1.000000 0.000000
vn 0.000000 1.000000 -0.000000
vn 0.000000 -0.995700 0.092900
vn 0.017500 -0.000200 -0.999800
vn 0.017500 0.000000 -0.999800
vn 0.005300 1.000000 0.000000
vn -0.017500 0.015800 0.999700
vn -0.017600 0.015800 0.999700
vn 0.017600 -0.015800 -0.999700
vn 0.017500 -0.015800 -0.999700
vn 0.000000 -0.929700 0.368400
vn -0.017200 0.205800 0.978500
vn 0.003600 0.978600 -0.205700
vn 0.120600 0.971900 -0.202300
vn -0.113500 0.971900 -0.206400
vn -0.000100 0.827100 -0.562000
vn -0.000100 0.826300 -0.563300
vn -0.000100 0.826700 -0.562600
vn 0.017600 0.000200 -0.999800
vn -0.000000 0.989300 0.146100
vn -0.000000 0.989800 0.142500
vn -0.000000 0.989500 0.144200
vn -0.017500 0.000200 0.999800
vn 0.000000 0.999800 0.021800
vn -0.005200 -1.000000 -0.000300
usemtl material_0
s off
f 1/1/1 2/2/1 3/3/1
f 4/1/1 3/2/1 2/3/1
f 5/1/2 6/2/2 7/3/2
f 8/1/2 7/2/2 6/3/2
f 9/1/3 10/2/3 11/3/3
f 12/1/3 11/2/3 10/3/3
f 13/1/4 14/2/4 15/3/4
f 16/1/4 15/2/4 14/3/4
f 41/1/5 42/2/5 43/3/5
f 44/1/6 43/2/6 42/3/6
f 45/1/7 41/2/7 46/3/7
f 41/1/6 43/2/6 46/3/6
f 47/1/6 46/2/6 43/3/6
f 48/1/8 49/2/8 50/3/8
f 49/1/8 51/2/8 50/3/8
f 50/1/8 51/2/8 52/3/8
f 53/1/8 52/2/8 51/3/8
f 54/1/9 55/2/9 56/3/9
f 57/1/9 56/2/9 55/3/9
f 58/1/10 59/2/10 60/3/10
f 59/1/4 61/2/4 60/3/4
f 61/1/10 62/2/10 60/3/10
f 62/1/10 63/2/10 60/3/10
f 60/1/10 63/2/10 64/3/10
f 65/1/10 64/2/10 63/3/10
f 66/1/11 67/2/11 68/3/11
f 69/1/11 68/2/11 67/3/11
f 70/1/12 71/2/12 72/3/12
f 72/1/1 71/2/1 73/3/1
f 73/1/12 71/2/12 74/3/12
f 74/1/12 71/2/12 75/3/12
f 71/1/12 76/2/12 75/3/12
f 77/1/12 75/2/12 76/3/12
f 78/1/13 79/2/13 80/3/13
f 81/1/13 80/2/13 79/3/13
f 82/1/14 83/2/14 84/3/14
f 83/1/15 85/2/15 84/3/15
f 86/1/15 84/2/15 85/3/15
f 83/1/15 87/2/15 85/3/15
f 88/1/15 85/2/15 87/3/15
f 89/1/16 90/2/16 91/3/16
f 91/1/16 90/2/16 92/3/16
f 93/1/16 92/2/16 90/3/16
f 94/1/4 95/2/4 96/3/4
f 96/1/10 95/2/10 97/3/10
f 95/1/10 98/2/10 97/3/10
f 97/1/4 98/2/4 99/3/4
f 100/1/4 99/2/4 98/3/4
f 101/1/17 102/2/17 103/3/17
f 103/1/17 102/2/17 104/3/17
f 105/1/17 104/2/17 102/3/17
f 106/1/18 107/2/18 108/3/18
f 109/1/18 108/2/18 107/3/18
f 110/1/12 111/2/12 112/3/12
f 112/1/12 111/2/12 113/3/12
f 111/1/12 114/2/12 113/3/12
f 113/1/1 114/2/1 115/3/1
f 116/1/1 115/2/1 114/3/1
f 117/1/19 118/2/20 119/3/19
f 119/1/21 118/2/21 120/3/21
f 120/1/22 118/2/22 121/3/22
f 121/1/21 118/2/21 122/3/21
f 122/1/21 118/2/21 123/3/21
f 124/1/3 123/2/3 118/3/3
f 125/1/23 126/2/23 127/3/23
f 126/1/23 128/2/23 127/3/23
f 127/1/23 128/2/23 129/3/23
f 130/1/23 129/2/23 128/3/23
f 131/1/24 132/2/24 133/3/24
f 134/1/24 133/2/24 132/3/24
f 135/1/25 136/2/25 137/3/25
f 137/1/2 136/2/2 138/3/2
f 138/1/26 136/2/26 139/3/26
f 139/1/2 136/2/2 140/3/2
f 140/1/2 136/2/2 141/3/2
f 142/1/27 141/2/27 136/3/27
f 132/1/28 143/2/28 134/3/28
f 143/1/24 144/2/24 134/3/24
f 134/1/24 144/2/24 145/3/24
f 145/1/24 144/2/24 146/3/24
f 144/1/24 147/2/24 146/3/24
f 147/1/24 148/2/24 146/3/24
f 148/1/24 149/2/24 146/3/24
f 150/1/24 146/2/24 149/3/24
f 148/1/24 151/2/24 149/3/24
f 152/1/24 149/2/24 151/3/24
f 310/1/29 311/2/29 312/3/29
f 313/1/30 312/2/30 311/3/30
f 314/1/10 315/2/10 316/3/10
f 317/1/10 316/2/10 315/3/10
f 318/1/12 319/2/12 320/3/12
f 321/1/12 320/2/12 319/3/12
f 322/1/2 323/2/2 324/3/2
f 325/1/27 324/2/27 323/3/27
f 350/1/29 351/2/29 352/3/29
f 353/1/29 352/2/29 351/3/29
f 354/1/4 355/2/4 356/3/4
f 357/1/4 356/2/4 355/3/4
f 358/1/1 359/2/1 360/3/1
f 361/1/1 360/2/1 359/3/1
f 362/1/27 363/2/27 364/3/27
f 365/1/27 364/2/27 363/3/27
f 390/1/1 391/2/1 392/3/1
f 393/1/1 392/2/1 391/3/1
f 394/1/2 395/2/2 396/3/2
f 397/1/2 396/2/2 395/3/2
f 398/1/21 399/2/21 400/3/21
f 401/1/21 400/2/21 399/3/21
f 402/1/4 403/2/4 404/3/4
f 405/1/4 404/2/4 403/3/4
usemtl __auto_10
f 17/1/4 18/2/4 19/3/4
f 18/1/4 17/2/4 20/3/4
f 21/1/21 22/2/21 23/3/21
f 22/1/21 21/2/21 24/3/21
f 25/1/27 26/2/27 27/3/27
f 26/1/27 25/2/27 28/3/27
f 29/1/1 30/2/1 31/3/1
f 30/1/1 29/2/1 32/3/1
f 326/1/31 327/2/31 328/3/31
f 327/1/32 326/2/32 329/3/32
f 330/1/12 331/2/12 332/3/12
f 331/1/12 330/2/12 333/3/12
f 334/1/10 335/2/10 336/3/10
f 335/1/10 334/2/10 337/3/10
f 338/1/3 339/2/3 340/3/3
f 339/1/21 338/2/21 341/3/21
f 366/1/32 367/2/32 368/3/32
f 367/1/32 366/2/32 369/3/32
f 370/1/1 371/2/1 372/3/1
f 371/1/1 370/2/1 373/3/1
f 374/1/4 375/2/4 376/3/4
f 375/1/4 374/2/4 377/3/4
f 378/1/3 379/2/3 380/3/3
f 379/1/3 378/2/3 381/3/3
f 406/1/4 407/2/4 408/3/4
f 407/1/4 406/2/4 409/3/4
f 410/1/21 411/2/21 412/3/21
f 411/1/21 410/2/21 413/3/21
f 414/1/2 415/2/2 416/3/2
f 415/1/2 414/2/2 417/3/2
f 418/1/1 419/2/1 420/3/1
f 419/1/1 418/2/1 421/3/1
usemtl __auto_11
f 153/1/15 154/2/15 155/3/15
f 154/1/15 153/2/15 156/3/15
f 154/1/33 156/2/33 157/3/33
f 158/1/15 153/2/15 159/3/15
f 153/1/34 158/2/34 156/3/34
f 160/1/35 161/2/35 162/3/35
f 161/1/35 160/2/35 163/3/35
f 163/1/35 160/2/35 164/3/35
f 163/1/35 164/2/35 165/3/35
f 166/1/36 167/2/36 168/3/36
f 167/1/36 166/2/36 169/3/36
f 170/1/12 171/2/12 172/3/12
f 171/1/12 170/2/12 173/3/12
f 173/1/12 170/2/12 174/3/12
f 173/1/12 174/2/12 175/3/12
f 173/1/1 175/2/1 176/3/1
f 173/1/12 176/2/12 177/3/12
f 178/1/18 179/2/18 180/3/18
f 179/1/18 178/2/18 181/3/18
f 182/1/10 183/2/10 184/3/10
f 183/1/10 182/2/10 185/3/10
f 183/1/10 185/2/10 186/3/10
f 186/1/10 185/2/10 187/3/10
f 187/1/4 185/2/4 188/3/4
f 188/1/10 185/2/10 189/3/10
f 190/1/37 191/2/37 192/3/37
f 191/1/37 190/2/37 193/3/37
f 194/1/6 195/2/6 196/3/6
f 195/1/6 194/2/6 197/3/6
f 195/1/6 198/2/6 199/3/6
f 198/1/6 195/2/6 197/3/6
f 198/1/38 197/2/39 200/3/40
f 201/1/17 202/2/17 203/3/17
f 202/1/17 201/2/17 204/3/17
f 204/1/17 201/2/17 205/3/17
f 206/1/1 207/2/1 208/3/1
f 207/1/1 206/2/1 209/3/1
f 209/1/12 206/2/12 210/3/12
f 209/1/12 210/2/12 211/3/12
f 211/1/1 210/2/1 212/3/1
f 213/1/16 214/2/16 215/3/16
f 214/1/16 213/2/16 216/3/16
f 216/1/16 213/2/16 217/3/16
f 218/1/11 219/2/11 220/3/11
f 219/1/11 218/2/11 221/3/11
f 222/1/4 223/2/4 224/3/4
f 223/1/4 222/2/4 225/3/4
f 225/1/10 222/2/10 226/3/10
f 225/1/10 226/2/10 227/3/10
f 227/1/10 226/2/10 228/3/10
f 229/1/27 230/2/27 231/3/27
f 230/1/2 229/2/2 232/3/2
f 232/1/2 229/2/2 233/3/2
f 233/1/41 229/2/41 234/3/41
f 234/1/2 229/2/2 235/3/2
f 235/1/42 229/2/43 236/3/44
f 237/1/24 238/2/24 239/3/24
f 238/1/24 237/2/24 240/3/24
f 240/1/24 237/2/24 241/3/24
f 240/1/24 241/2/24 242/3/24
f 243/1/23 244/2/23 245/3/23
f 244/1/23 243/2/23 246/3/23
f 247/1/3 248/2/3 249/3/3
f 248/1/21 247/2/21 250/3/21
f 250/1/21 247/2/21 251/3/21
f 251/1/45 247/2/45 252/3/45
f 252/1/21 247/2/21 253/3/21
f 253/1/46 247/2/46 254/3/46
f 255/1/23 256/2/23 257/3/23
f 256/1/23 255/2/23 258/3/23
f 256/1/23 259/2/23 260/3/23
f 259/1/23 256/2/23 258/3/23
f 259/1/23 258/2/23 261/3/23
f 259/1/23 261/2/23 262/3/23
f 259/1/23 262/2/23 263/3/23
f 263/1/23 262/2/23 245/3/23
f 245/1/23 262/2/23 264/3/23
f 245/1/47 264/2/47 243/3/47
l 39 37
l 33 34
l 36 35
l 37 33
l 40 36
l 34 36
l 38 37
l 33 35
l 39 40
l 34 39
l 35 38
l 38 40
l 303 304
l 280 285
l 288 302
l 270 281
l 269 279
l 297 309
l 265 271
l 276 277
l 307 306
l 268 269
l 284 285
l 305 303
l 292 305
l 307 296
l 276 287
l 269 270
l 285 286
l 295 296
l 277 284
l 274 286
l 266 267
l 279 281
l 291 290
l 283 282
l 296 297
l 300 301
l 301 289
l 280 275
l 299 308
l 267 272
l 289 276
l 304 301
l 299 300
l 302 295
l 293 278
l 282 293
l 287 283
l 272 273
l 309 307
l 303 291
l 288 278
l 294 299
l 286 271
l 283 294
l 292 288
l 274 265
l 308 298
l 273 274
l 265 266
l 306 305
l 281 282
l 289 290
l 290 304
l 297 298
l 298 294
l 272 275
l 268 275
l 282 295
l 271 270
l 279 278
l 276 278
l 277 280
l 267 268
l 291 292
l 284 283
l 342 343
l 349 346
l 344 345
l 345 349
l 342 347
l 343 345
l 346 347
l 348 344
l 346 343
l 344 342
l 348 349
l 347 348
l 382 383
l 386 389
l 385 384
l 389 385
l 382 387
l 385 383
l 386 387
l 388 384
l 383 386
l 384 382
l 388 389
l 387 388
l 428 426
l 422 423
l 425 424
l 426 422
l 429 425
l 423 425
l 427 426
l 424 422
l 428 429
l 423 428
l 424 427
l 429 427
