# Blender v2.76 (sub 0) OBJ File: 'my building1.blend'
# www.blender.org
mtllib instance_17.015_ID921.015.mtl
o instance_17.015_ID921.015
v -5.742624 0.055230 0.343228
v -5.742624 0.455938 0.343228
v -5.710878 0.055230 0.343784
v -5.710878 0.455938 0.343784
v -5.742066 0.455938 0.311483
v -5.742624 0.455938 0.343228
v -5.742066 0.055230 0.311483
v -5.742624 0.055230 0.343228
v -5.710878 0.455938 0.343784
v -5.710321 0.455938 0.312039
v -5.710878 0.055230 0.343784
v -5.710321 0.055230 0.312039
v -5.742066 0.455938 0.311483
v -5.742066 0.055230 0.311483
v -5.710321 0.455938 0.312039
v -5.710321 0.055230 0.312039
v -5.742624 0.455938 0.343228
v -5.710878 0.055230 0.343784
v -5.710878 0.455938 0.343784
v -5.742624 0.055230 0.343228
v -5.742624 0.455938 0.343228
v -5.742066 0.055230 0.311483
v -5.742624 0.055230 0.343228
v -5.742066 0.455938 0.311483
v -5.710321 0.455938 0.312039
v -5.710878 0.055230 0.343784
v -5.710321 0.055230 0.312039
v -5.710878 0.455938 0.343784
v -5.742066 0.055230 0.311483
v -5.710321 0.455938 0.312039
v -5.710321 0.055230 0.312039
v -5.742066 0.455938 0.311483
v -5.742624 0.455938 0.343228
v -5.710878 0.455938 0.343784
v -5.742624 0.055230 0.343228
v -5.710878 0.055230 0.343784
v -5.742066 0.455938 0.311483
v -5.742066 0.055230 0.311483
v -5.710321 0.455938 0.312039
v -5.710321 0.055230 0.312039
v -5.686439 0.984997 0.600703
v -5.685476 1.001563 0.744342
v -5.713359 0.832893 0.311986
v -5.720939 0.832893 0.743720
v -5.685170 0.984997 0.528414
v -5.683900 0.984997 0.456129
v -5.677897 1.001563 0.312608
v -5.683900 0.984997 0.456129
v -5.652834 0.978464 0.456672
v -5.685170 0.984997 0.528414
v -5.654104 0.978464 0.528961
v -5.686439 0.984997 0.600703
v -5.655373 0.978464 0.601246
v -5.677897 1.001563 0.312608
v -5.646831 0.995030 0.313155
v -5.683900 0.984997 0.456129
v -5.652834 0.978464 0.456672
v -5.734898 0.660557 0.311608
v -5.742066 0.487688 0.311483
v -5.713359 0.832893 0.311986
v -5.710321 0.487030 0.312039
v -5.703234 0.657926 0.312164
v -5.682022 0.827648 0.312537
v -5.677897 1.001563 0.312608
v -5.646831 0.995030 0.313155
v -5.713359 0.832893 0.311986
v -5.720939 0.832893 0.743720
v -5.734898 0.660557 0.311608
v -5.742477 0.660557 0.743342
v -5.742477 0.660557 0.743342
v -5.720939 0.832893 0.743720
v -5.749646 0.487688 0.743217
v -5.717901 0.487030 0.743773
v -5.710814 0.657926 0.743898
v -5.689602 0.827648 0.744271
v -5.685476 1.001563 0.744342
v -5.654411 0.995030 0.744888
v -5.686439 0.984997 0.600703
v -5.655373 0.978464 0.601246
v -5.685476 1.001563 0.744342
v -5.654411 0.995030 0.744888
v -5.654104 0.978464 0.528961
v -5.652834 0.978464 0.456672
v -5.655373 0.978464 0.601246
v -5.689602 0.827648 0.744271
v -5.654411 0.995030 0.744888
v -5.646831 0.995030 0.313155
v -5.682022 0.827648 0.312537
v -5.710814 0.657926 0.743898
v -5.703234 0.657926 0.312164
v -5.717901 0.487030 0.743773
v -5.714111 0.487030 0.527906
v -5.710321 0.487030 0.312039
v -6.173800 0.455938 0.303904
v -6.142055 0.455938 0.304460
v -6.173800 0.487688 0.303904
v -5.742066 0.487688 0.311483
v -5.742066 0.455938 0.311483
v -5.710321 0.487030 0.312039
v -5.710321 0.455938 0.312039
v -5.734898 0.660557 0.311608
v -5.742477 0.660557 0.743342
v -5.742066 0.487688 0.311483
v -5.745856 0.487688 0.527350
v -5.749646 0.487688 0.743217
v -5.689602 0.827648 0.744271
v -5.682022 0.827648 0.312537
v -5.710814 0.657926 0.743898
v -5.703234 0.657926 0.312164
v -6.181379 0.455938 0.735635
v -6.181379 0.487688 0.735635
v -6.149634 0.455938 0.736194
v -5.749646 0.455938 0.743217
v -5.749646 0.487688 0.743217
v -5.717901 0.455938 0.743773
v -5.717901 0.487030 0.743773
v -5.714111 0.487030 0.527906
v -5.710321 0.487030 0.312039
v -5.717901 0.487030 0.743773
v -5.717901 0.455938 0.743773
v -5.717343 0.455938 0.712029
v -5.714111 0.455938 0.527906
v -5.710878 0.455938 0.343784
v -5.710321 0.455938 0.312039
v -6.173800 0.487688 0.303904
v -5.742066 0.487688 0.311483
v -6.177589 0.487688 0.519771
v -5.745856 0.487688 0.527350
v -6.181379 0.487688 0.735635
v -5.749646 0.487688 0.743217
v -6.142055 0.455938 0.304460
v -6.142612 0.455938 0.336205
v -5.742066 0.455938 0.311483
v -5.742624 0.455938 0.343228
v -6.177589 0.487688 0.519771
v -6.181379 0.487688 0.735635
v -6.173800 0.487688 0.303904
v -6.173800 0.455938 0.303904
v -6.174357 0.455938 0.335649
v -6.177589 0.455938 0.519771
v -6.180822 0.455938 0.703890
v -6.181379 0.455938 0.735635
v -6.174357 0.455938 0.335649
v -6.177589 0.455938 0.519771
v -5.710878 0.455938 0.343784
v -5.714111 0.455938 0.527906
v -6.180822 0.455938 0.703890
v -6.149077 0.455938 0.704449
v -5.749089 0.455938 0.711472
v -5.717343 0.455938 0.712029
v -6.149634 0.455938 0.736194
v -5.749646 0.455938 0.743217
v -5.713359 0.832893 0.311986
v -5.683900 0.984997 0.456129
v -5.677897 1.001563 0.312608
v -5.686439 0.984997 0.600703
v -5.685170 0.984997 0.528414
v -5.685476 1.001563 0.744342
v -5.720939 0.832893 0.743720
v -5.654104 0.978464 0.528961
v -5.686439 0.984997 0.600703
v -5.655373 0.978464 0.601246
v -5.685170 0.984997 0.528414
v -5.652834 0.978464 0.456672
v -5.683900 0.984997 0.456129
v -5.646831 0.995030 0.313155
v -5.683900 0.984997 0.456129
v -5.652834 0.978464 0.456672
v -5.677897 1.001563 0.312608
v -5.682022 0.827648 0.312537
v -5.677897 1.001563 0.312608
v -5.646831 0.995030 0.313155
v -5.713359 0.832893 0.311986
v -5.703234 0.657926 0.312164
v -5.710321 0.487030 0.312039
v -5.742066 0.487688 0.311483
v -5.734898 0.660557 0.311608
v -5.720939 0.832893 0.743720
v -5.734898 0.660557 0.311608
v -5.742477 0.660557 0.743342
v -5.713359 0.832893 0.311986
v -5.685476 1.001563 0.744342
v -5.689602 0.827648 0.744271
v -5.654411 0.995030 0.744888
v -5.720939 0.832893 0.743720
v -5.710814 0.657926 0.743898
v -5.717901 0.487030 0.743773
v -5.749646 0.487688 0.743217
v -5.742477 0.660557 0.743342
v -5.655373 0.978464 0.601246
v -5.685476 1.001563 0.744342
v -5.654411 0.995030 0.744888
v -5.686439 0.984997 0.600703
v -5.646831 0.995030 0.313155
v -5.689602 0.827648 0.744271
v -5.682022 0.827648 0.312537
v -5.652834 0.978464 0.456672
v -5.655373 0.978464 0.601246
v -5.654411 0.995030 0.744888
v -5.654104 0.978464 0.528961
v -5.703234 0.657926 0.312164
v -5.714111 0.487030 0.527906
v -5.710321 0.487030 0.312039
v -5.717901 0.487030 0.743773
v -5.710814 0.657926 0.743898
v -5.742066 0.455938 0.311483
v -5.710321 0.487030 0.312039
v -5.710321 0.455938 0.312039
v -5.742066 0.487688 0.311483
v -6.142055 0.455938 0.304460
v -6.173800 0.487688 0.303904
v -6.173800 0.455938 0.303904
v -5.742477 0.660557 0.743342
v -5.745856 0.487688 0.527350
v -5.749646 0.487688 0.743217
v -5.742066 0.487688 0.311483
v -5.734898 0.660557 0.311608
v -5.682022 0.827648 0.312537
v -5.710814 0.657926 0.743898
v -5.703234 0.657926 0.312164
v -5.689602 0.827648 0.744271
v -5.749646 0.487688 0.743217
v -5.717901 0.455938 0.743773
v -5.717901 0.487030 0.743773
v -5.749646 0.455938 0.743217
v -6.181379 0.487688 0.735635
v -6.149634 0.455938 0.736194
v -6.181379 0.455938 0.735635
v -5.710321 0.487030 0.312039
v -5.710878 0.455938 0.343784
v -5.710321 0.455938 0.312039
v -5.714111 0.455938 0.527906
v -5.717343 0.455938 0.712029
v -5.717901 0.455938 0.743773
v -5.717901 0.487030 0.743773
v -5.714111 0.487030 0.527906
v -5.745856 0.487688 0.527350
v -6.181379 0.487688 0.735635
v -5.749646 0.487688 0.743217
v -6.177589 0.487688 0.519771
v -5.742066 0.487688 0.311483
v -6.173800 0.487688 0.303904
v -6.142612 0.455938 0.336205
v -5.742066 0.455938 0.311483
v -5.742624 0.455938 0.343228
v -6.142055 0.455938 0.304460
v -6.181379 0.487688 0.735635
v -6.180822 0.455938 0.703890
v -6.181379 0.455938 0.735635
v -6.177589 0.455938 0.519771
v -6.174357 0.455938 0.335649
v -6.173800 0.455938 0.303904
v -6.173800 0.487688 0.303904
v -6.177589 0.487688 0.519771
v -6.149634 0.455938 0.736194
v -5.749089 0.455938 0.711472
v -5.749646 0.455938 0.743217
v -6.149077 0.455938 0.704449
v -5.714111 0.455938 0.527906
v -5.717343 0.455938 0.712029
v -6.180822 0.455938 0.703890
v -6.177589 0.455938 0.519771
v -5.710878 0.455938 0.343784
v -6.174357 0.455938 0.335649
v -5.686439 0.984997 0.600703
v -5.685170 0.984997 0.528414
v -5.683900 0.984997 0.456129
v -5.677897 1.001563 0.312608
v -5.713359 0.832893 0.311986
v -5.720939 0.832893 0.743720
v -5.685476 1.001563 0.744342
v -5.652834 0.978464 0.456672
v -5.654104 0.978464 0.528961
v -5.655373 0.978464 0.601246
v -5.646831 0.995030 0.313155
v -5.710321 0.487030 0.312039
v -5.703234 0.657926 0.312164
v -5.742066 0.487688 0.311483
v -5.734898 0.660557 0.311608
v -5.682022 0.827648 0.312537
v -5.742477 0.660557 0.743342
v -5.749646 0.487688 0.743217
v -5.717901 0.487030 0.743773
v -5.710814 0.657926 0.743898
v -5.689602 0.827648 0.744271
v -5.654411 0.995030 0.744888
v -5.714111 0.487030 0.527906
v -6.173800 0.487688 0.303904
v -5.710321 0.455938 0.312039
v -5.742066 0.455938 0.311483
v -6.142055 0.455938 0.304460
v -6.173800 0.455938 0.303904
v -5.745856 0.487688 0.527350
v -5.717901 0.455938 0.743773
v -6.181379 0.487688 0.735635
v -6.181379 0.455938 0.735635
v -6.149634 0.455938 0.736194
v -5.749646 0.455938 0.743217
v -5.717343 0.455938 0.712029
v -5.714111 0.455938 0.527906
v -5.710878 0.455938 0.343784
v -6.177589 0.487688 0.519771
v -6.142612 0.455938 0.336205
v -5.742624 0.455938 0.343228
v -6.174357 0.455938 0.335649
v -6.177589 0.455938 0.519771
v -6.180822 0.455938 0.703890
v -5.749089 0.455938 0.711472
v -6.149077 0.455938 0.704449
v -6.149634 0.455938 0.736194
v -6.149077 0.455938 0.704449
v -6.155983 0.055230 0.736082
v -6.155426 0.055230 0.704337
v -6.180822 0.055230 0.703890
v -6.155426 0.055230 0.704337
v -6.180822 0.455938 0.703890
v -6.149077 0.455938 0.704449
v -6.181379 0.055230 0.735635
v -6.181379 0.455938 0.735635
v -6.155983 0.055230 0.736082
v -6.149634 0.455938 0.736194
v -6.180822 0.455938 0.703890
v -6.181379 0.455938 0.735635
v -6.180822 0.055230 0.703890
v -6.181379 0.055230 0.735635
v -6.149077 0.455938 0.704449
v -6.155983 0.055230 0.736082
v -6.155426 0.055230 0.704337
v -6.149634 0.455938 0.736194
v -6.155426 0.055230 0.704337
v -6.180822 0.455938 0.703890
v -6.149077 0.455938 0.704449
v -6.180822 0.055230 0.703890
v -6.181379 0.455938 0.735635
v -6.155983 0.055230 0.736082
v -6.149634 0.455938 0.736194
v -6.181379 0.055230 0.735635
v -6.181379 0.455938 0.735635
v -6.180822 0.055230 0.703890
v -6.181379 0.055230 0.735635
v -6.180822 0.455938 0.703890
v -6.149077 0.455938 0.704449
v -6.155426 0.055230 0.704337
v -6.149634 0.455938 0.736194
v -6.155983 0.055230 0.736082
v -6.180822 0.055230 0.703890
v -6.180822 0.455938 0.703890
v -6.181379 0.455938 0.735635
v -6.181379 0.055230 0.735635
v -6.142612 0.455938 0.336205
v -6.142055 0.455938 0.304460
v -6.148961 0.055230 0.336093
v -6.148404 0.055230 0.304348
v -6.173800 0.055230 0.303904
v -6.148404 0.055230 0.304348
v -6.173800 0.455938 0.303904
v -6.142055 0.455938 0.304460
v -6.174357 0.055230 0.335649
v -6.174357 0.455938 0.335649
v -6.148961 0.055230 0.336093
v -6.142612 0.455938 0.336205
v -6.173800 0.455938 0.303904
v -6.174357 0.455938 0.335649
v -6.173800 0.055230 0.303904
v -6.174357 0.055230 0.335649
v -6.142055 0.455938 0.304460
v -6.148961 0.055230 0.336093
v -6.148404 0.055230 0.304348
v -6.142612 0.455938 0.336205
v -6.148404 0.055230 0.304348
v -6.173800 0.455938 0.303904
v -6.142055 0.455938 0.304460
v -6.173800 0.055230 0.303904
v -6.174357 0.455938 0.335649
v -6.148961 0.055230 0.336093
v -6.142612 0.455938 0.336205
v -6.174357 0.055230 0.335649
v -6.174357 0.455938 0.335649
v -6.173800 0.055230 0.303904
v -6.174357 0.055230 0.335649
v -6.173800 0.455938 0.303904
v -6.142055 0.455938 0.304460
v -6.148404 0.055230 0.304348
v -6.142612 0.455938 0.336205
v -6.148961 0.055230 0.336093
v -6.173800 0.055230 0.303904
v -6.173800 0.455938 0.303904
v -6.174357 0.455938 0.335649
v -6.174357 0.055230 0.335649
v -5.749646 0.055230 0.743217
v -5.749646 0.455938 0.743217
v -5.717901 0.055230 0.743773
v -5.717901 0.455938 0.743773
v -5.749089 0.455938 0.711472
v -5.749646 0.455938 0.743217
v -5.749089 0.055230 0.711472
v -5.749646 0.055230 0.743217
v -5.717901 0.455938 0.743773
v -5.717343 0.455938 0.712029
v -5.717901 0.055230 0.743773
v -5.717343 0.055230 0.712029
v -5.749089 0.455938 0.711472
v -5.749089 0.055230 0.711472
v -5.717343 0.455938 0.712029
v -5.717343 0.055230 0.712029
v -5.749646 0.455938 0.743217
v -5.717901 0.055230 0.743773
v -5.717901 0.455938 0.743773
v -5.749646 0.055230 0.743217
v -5.749646 0.455938 0.743217
v -5.749089 0.055230 0.711472
v -5.749646 0.055230 0.743217
v -5.749089 0.455938 0.711472
v -5.717343 0.455938 0.712029
v -5.717901 0.055230 0.743773
v -5.717343 0.055230 0.712029
v -5.717901 0.455938 0.743773
v -5.749089 0.055230 0.711472
v -5.717343 0.455938 0.712029
v -5.717343 0.055230 0.712029
v -5.749089 0.455938 0.711472
v -5.749646 0.455938 0.743217
v -5.717901 0.455938 0.743773
v -5.749646 0.055230 0.743217
v -5.717901 0.055230 0.743773
v -5.749089 0.455938 0.711472
v -5.749089 0.055230 0.711472
v -5.717343 0.455938 0.712029
v -5.717343 0.055230 0.712029
vt 0.000000 0.000000
vt 1.000000 0.000000
vt 1.000000 1.000000
vn 0.017500 0.000000 -0.999800
vn 0.999800 0.000000 0.017600
vn -0.999800 0.000000 -0.017500
vn -0.017500 0.000000 0.999800
vn 0.978500 -0.205800 0.017200
vn 0.978400 -0.205800 0.017200
vn 0.622300 0.782800 -0.000000
vn -0.205700 -0.978600 -0.003600
vn -0.202300 -0.971900 -0.120600
vn -0.017600 0.000000 0.999800
vn 0.992100 -0.124000 0.017400
vn 0.017600 -0.000000 -0.999800
vn -0.206400 -0.971900 0.113500
vn -0.693400 -0.720500 0.000000
vn -0.978400 0.205800 -0.017200
vn -0.999000 0.041400 -0.017500
vn 0.999000 -0.041400 0.017500
vn -0.992100 0.124000 -0.017400
vn 0.017600 -0.000100 -0.999800
vn -0.000300 -1.000000 -0.000000
vn 0.000300 -1.000000 0.000000
vn -0.999800 0.000000 -0.017600
vn -0.999800 -0.000500 -0.017600
vn -0.000000 -1.000000 0.000000
vn 0.000000 1.000000 0.000000
vn 0.000000 -1.000000 0.001000
vn 0.999800 -0.000300 0.017500
vn 0.999800 0.000000 0.017500
vn -0.000100 1.000000 0.000000
vn -0.999700 0.015800 -0.017500
vn 0.999700 -0.015800 0.017500
vn -0.368400 -0.929700 0.000000
vn -0.978500 0.205800 -0.017200
vn 0.205700 0.978600 0.003600
vn 0.202300 0.971900 0.120600
vn 0.206400 0.971900 -0.113500
vn 0.431300 0.902200 -0.003500
vn 0.433300 0.901200 -0.003500
vn 0.432300 0.901700 -0.003500
vn -0.017600 0.000100 0.999800
vn 0.999800 -0.000100 0.017600
vn 0.999800 0.000500 0.017600
vn -0.146100 0.989300 -0.000000
vn -0.142500 0.989800 -0.000000
vn -0.144200 0.989500 -0.000000
vn -0.999800 -0.000100 -0.017600
vn -0.999800 0.000300 -0.017500
vn -0.068300 0.997700 -0.001000
vn -0.068400 0.997700 -0.001000
vn 0.000600 -0.999900 0.013400
usemtl material_0
s off
f 1/1/1 2/2/1 3/3/1
f 4/1/1 3/2/1 2/3/1
f 5/1/2 6/2/2 7/3/2
f 8/1/2 7/2/2 6/3/2
f 9/1/3 10/2/3 11/3/3
f 12/1/3 11/2/3 10/3/3
f 13/1/4 14/2/4 15/3/4
f 16/1/4 15/2/4 14/3/4
f 41/1/5 42/2/5 43/3/5
f 44/1/6 43/2/6 42/3/6
f 45/1/7 41/2/7 46/3/7
f 41/1/6 43/2/6 46/3/6
f 47/1/6 46/2/6 43/3/6
f 48/1/8 49/2/8 50/3/8
f 49/1/8 51/2/8 50/3/8
f 50/1/8 51/2/8 52/3/8
f 53/1/8 52/2/8 51/3/8
f 54/1/9 55/2/9 56/3/9
f 57/1/9 56/2/9 55/3/9
f 58/1/10 59/2/10 60/3/10
f 59/1/4 61/2/4 60/3/4
f 61/1/10 62/2/10 60/3/10
f 62/1/10 63/2/10 60/3/10
f 60/1/10 63/2/10 64/3/10
f 65/1/10 64/2/10 63/3/10
f 66/1/11 67/2/11 68/3/11
f 69/1/11 68/2/11 67/3/11
f 70/1/12 71/2/12 72/3/12
f 72/1/1 71/2/1 73/3/1
f 73/1/12 71/2/12 74/3/12
f 74/1/12 71/2/12 75/3/12
f 71/1/12 76/2/12 75/3/12
f 77/1/12 75/2/12 76/3/12
f 78/1/13 79/2/13 80/3/13
f 81/1/13 80/2/13 79/3/13
f 82/1/14 83/2/14 84/3/14
f 83/1/15 85/2/15 84/3/15
f 86/1/15 84/2/15 85/3/15
f 83/1/15 87/2/15 85/3/15
f 88/1/15 85/2/15 87/3/15
f 89/1/16 90/2/16 91/3/16
f 91/1/16 90/2/16 92/3/16
f 93/1/16 92/2/16 90/3/16
f 94/1/4 95/2/4 96/3/4
f 96/1/10 95/2/10 97/3/10
f 95/1/10 98/2/10 97/3/10
f 97/1/4 98/2/4 99/3/4
f 100/1/4 99/2/4 98/3/4
f 101/1/17 102/2/17 103/3/17
f 103/1/17 102/2/17 104/3/17
f 105/1/17 104/2/17 102/3/17
f 106/1/18 107/2/18 108/3/18
f 109/1/18 108/2/18 107/3/18
f 110/1/12 111/2/12 112/3/12
f 112/1/19 111/2/19 113/3/19
f 111/1/12 114/2/12 113/3/12
f 113/1/1 114/2/1 115/3/1
f 116/1/1 115/2/1 114/3/1
f 117/1/20 118/2/21 119/3/20
f 119/1/22 118/2/22 120/3/22
f 120/1/23 118/2/23 121/3/23
f 121/1/22 118/2/22 122/3/22
f 122/1/22 118/2/22 123/3/22
f 124/1/3 123/2/3 118/3/3
f 125/1/24 126/2/24 127/3/24
f 126/1/24 128/2/24 127/3/24
f 127/1/24 128/2/24 129/3/24
f 130/1/24 129/2/24 128/3/24
f 131/1/25 132/2/25 133/3/25
f 134/1/25 133/2/25 132/3/25
f 135/1/26 136/2/26 137/3/26
f 137/1/2 136/2/2 138/3/2
f 138/1/27 136/2/27 139/3/27
f 139/1/2 136/2/2 140/3/2
f 140/1/2 136/2/2 141/3/2
f 142/1/28 141/2/28 136/3/28
f 132/1/29 143/2/29 134/3/29
f 143/1/25 144/2/25 134/3/25
f 134/1/25 144/2/25 145/3/25
f 145/1/25 144/2/25 146/3/25
f 144/1/25 147/2/25 146/3/25
f 147/1/25 148/2/25 146/3/25
f 148/1/25 149/2/25 146/3/25
f 150/1/25 146/2/25 149/3/25
f 148/1/25 151/2/25 149/3/25
f 152/1/25 149/2/25 151/3/25
f 310/1/30 311/2/30 312/3/30
f 313/1/30 312/2/30 311/3/30
f 314/1/10 315/2/10 316/3/10
f 317/1/10 316/2/10 315/3/10
f 318/1/12 319/2/12 320/3/12
f 321/1/12 320/2/12 319/3/12
f 322/1/28 323/2/28 324/3/28
f 325/1/28 324/2/28 323/3/28
f 350/1/30 351/2/30 352/3/30
f 353/1/30 352/2/30 351/3/30
f 354/1/4 355/2/4 356/3/4
f 357/1/4 356/2/4 355/3/4
f 358/1/1 359/2/1 360/3/1
f 361/1/1 360/2/1 359/3/1
f 362/1/28 363/2/28 364/3/28
f 365/1/28 364/2/28 363/3/28
f 390/1/1 391/2/1 392/3/1
f 393/1/1 392/2/1 391/3/1
f 394/1/2 395/2/2 396/3/2
f 397/1/2 396/2/2 395/3/2
f 398/1/22 399/2/22 400/3/22
f 401/1/22 400/2/22 399/3/22
f 402/1/4 403/2/4 404/3/4
f 405/1/4 404/2/4 403/3/4
usemtl __auto_10
f 17/1/4 18/2/4 19/3/4
f 18/1/4 17/2/4 20/3/4
f 21/1/22 22/2/22 23/3/22
f 22/1/22 21/2/22 24/3/22
f 25/1/28 26/2/28 27/3/28
f 26/1/28 25/2/28 28/3/28
f 29/1/1 30/2/1 31/3/1
f 30/1/1 29/2/1 32/3/1
f 326/1/31 327/2/31 328/3/31
f 327/1/31 326/2/31 329/3/31
f 330/1/12 331/2/12 332/3/12
f 331/1/12 330/2/12 333/3/12
f 334/1/10 335/2/10 336/3/10
f 335/1/10 334/2/10 337/3/10
f 338/1/3 339/2/3 340/3/3
f 339/1/3 338/2/3 341/3/3
f 366/1/31 367/2/31 368/3/31
f 367/1/31 366/2/31 369/3/31
f 370/1/1 371/2/1 372/3/1
f 371/1/1 370/2/1 373/3/1
f 374/1/4 375/2/4 376/3/4
f 375/1/4 374/2/4 377/3/4
f 378/1/3 379/2/3 380/3/3
f 379/1/3 378/2/3 381/3/3
f 406/1/4 407/2/4 408/3/4
f 407/1/4 406/2/4 409/3/4
f 410/1/22 411/2/22 412/3/22
f 411/1/22 410/2/22 413/3/22
f 414/1/2 415/2/2 416/3/2
f 415/1/2 414/2/2 417/3/2
f 418/1/1 419/2/1 420/3/1
f 419/1/1 418/2/1 421/3/1
usemtl __auto_11
f 153/1/15 154/2/15 155/3/15
f 154/1/15 153/2/15 156/3/15
f 154/1/32 156/2/32 157/3/32
f 158/1/15 153/2/15 159/3/15
f 153/1/33 158/2/33 156/3/33
f 160/1/34 161/2/34 162/3/34
f 161/1/34 160/2/34 163/3/34
f 163/1/34 160/2/34 164/3/34
f 163/1/34 164/2/34 165/3/34
f 166/1/35 167/2/35 168/3/35
f 167/1/35 166/2/35 169/3/35
f 170/1/12 171/2/12 172/3/12
f 171/1/12 170/2/12 173/3/12
f 173/1/12 170/2/12 174/3/12
f 173/1/12 174/2/12 175/3/12
f 173/1/1 175/2/1 176/3/1
f 173/1/12 176/2/12 177/3/12
f 178/1/18 179/2/18 180/3/18
f 179/1/18 178/2/18 181/3/18
f 182/1/10 183/2/10 184/3/10
f 183/1/10 182/2/10 185/3/10
f 183/1/10 185/2/10 186/3/10
f 186/1/10 185/2/10 187/3/10
f 187/1/4 185/2/4 188/3/4
f 188/1/10 185/2/10 189/3/10
f 190/1/36 191/2/36 192/3/36
f 191/1/36 190/2/36 193/3/36
f 194/1/6 195/2/6 196/3/6
f 195/1/6 194/2/6 197/3/6
f 195/1/6 198/2/6 199/3/6
f 198/1/6 195/2/6 197/3/6
f 198/1/37 197/2/38 200/3/39
f 201/1/17 202/2/17 203/3/17
f 202/1/17 201/2/17 204/3/17
f 204/1/17 201/2/17 205/3/17
f 206/1/1 207/2/1 208/3/1
f 207/1/1 206/2/1 209/3/1
f 209/1/12 206/2/12 210/3/12
f 209/1/12 210/2/12 211/3/12
f 211/1/1 210/2/1 212/3/1
f 213/1/16 214/2/16 215/3/16
f 214/1/16 213/2/16 216/3/16
f 216/1/16 213/2/16 217/3/16
f 218/1/11 219/2/11 220/3/11
f 219/1/11 218/2/11 221/3/11
f 222/1/4 223/2/4 224/3/4
f 223/1/4 222/2/4 225/3/4
f 225/1/10 222/2/10 226/3/10
f 225/1/40 226/2/40 227/3/40
f 227/1/10 226/2/10 228/3/10
f 229/1/28 230/2/28 231/3/28
f 230/1/2 229/2/2 232/3/2
f 232/1/41 229/2/41 233/3/41
f 233/1/42 229/2/42 234/3/42
f 234/1/2 229/2/2 235/3/2
f 235/1/43 229/2/44 236/3/45
f 237/1/25 238/2/25 239/3/25
f 238/1/25 237/2/25 240/3/25
f 240/1/25 237/2/25 241/3/25
f 240/1/25 241/2/25 242/3/25
f 243/1/24 244/2/24 245/3/24
f 244/1/24 243/2/24 246/3/24
f 247/1/3 248/2/3 249/3/3
f 248/1/22 247/2/22 250/3/22
f 250/1/46 247/2/46 251/3/46
f 251/1/47 247/2/47 252/3/47
f 252/1/22 247/2/22 253/3/22
f 253/1/48 247/2/49 254/3/49
f 255/1/24 256/2/24 257/3/24
f 256/1/24 255/2/24 258/3/24
f 256/1/24 259/2/24 260/3/24
f 259/1/24 256/2/24 258/3/24
f 259/1/24 258/2/24 261/3/24
f 259/1/24 261/2/24 262/3/24
f 259/1/24 262/2/24 263/3/24
f 263/1/24 262/2/24 245/3/24
f 245/1/24 262/2/24 264/3/24
f 245/1/50 264/2/50 243/3/50
l 39 37
l 33 34
l 36 35
l 37 33
l 40 36
l 34 36
l 38 37
l 33 35
l 39 40
l 34 39
l 35 38
l 38 40
l 303 304
l 280 285
l 288 302
l 270 281
l 269 279
l 297 309
l 265 271
l 276 277
l 307 306
l 268 269
l 284 285
l 305 303
l 292 305
l 307 296
l 276 287
l 269 270
l 285 286
l 295 296
l 277 284
l 274 286
l 266 267
l 279 281
l 291 290
l 283 282
l 296 297
l 300 301
l 301 289
l 280 275
l 299 308
l 267 272
l 289 276
l 304 301
l 299 300
l 302 295
l 293 278
l 282 293
l 287 283
l 272 273
l 309 307
l 303 291
l 288 278
l 294 299
l 286 271
l 283 294
l 292 288
l 274 265
l 308 298
l 273 274
l 265 266
l 306 305
l 281 282
l 289 290
l 290 304
l 297 298
l 298 294
l 272 275
l 268 275
l 282 295
l 271 270
l 279 278
l 276 278
l 277 280
l 267 268
l 291 292
l 284 283
l 342 343
l 349 346
l 344 345
l 345 349
l 342 347
l 343 345
l 346 347
l 348 344
l 346 343
l 344 342
l 348 349
l 347 348
l 382 383
l 386 389
l 385 384
l 389 385
l 382 387
l 385 383
l 386 387
l 388 384
l 383 386
l 384 382
l 388 389
l 387 388
l 428 426
l 422 423
l 425 424
l 426 422
l 429 425
l 423 425
l 427 426
l 424 422
l 428 429
l 423 428
l 424 427
l 429 427
