# Blender v2.76 (sub 0) OBJ File: ''
# www.blender.org
mtllib ID15.mtl
o SketchUp.001_ID15
v 3.000000 0.000000 -12.000000
v 0.000000 0.000000 -6.000001
v 0.000000 0.000000 -12.000000
v 3.000000 0.000000 -6.000001
v 3.000000 0.000000 -10.560001
v 6.000001 0.000000 -10.560001
v 6.000001 0.000000 -6.000001
v 0.000000 0.000000 -12.000000
v 3.000000 0.000000 -12.000000
v 3.000000 0.000000 -10.560001
v 6.000001 0.000000 -10.560001
v 6.000001 0.000000 -6.000001
v 3.000000 0.000000 -6.000001
v 0.000000 0.000000 -6.000001
v 0.000000 3.000000 -12.000000
v 3.000000 0.000000 -12.000000
v 0.000000 0.000000 -12.000000
v 3.000000 3.000000 -12.000000
v 0.000000 3.000000 -12.000000
v 3.000000 3.000000 -12.000000
v 6.000001 0.000000 -10.560001
v 3.000000 0.000000 -12.000000
v 3.000000 0.000000 -10.560001
v 6.000001 0.000000 -12.000000
v 6.000001 0.000000 -12.000000
v 6.000001 0.000000 -10.560001
v 6.000001 3.000000 -6.000001
v 6.000001 0.000000 -6.000001
v 6.000001 3.000000 -12.000000
v 6.000001 0.000000 -12.000000
v 6.000001 3.000000 -6.000001
v 6.000001 3.000000 -12.000000
v 3.000000 0.000000 0.000000
v 0.000000 0.000000 -6.000001
v 0.000000 0.000000 0.000000
v 3.000000 0.000000 -6.000001
v 0.000000 0.000000 0.000000
v 3.000000 0.000000 0.000000
v 0.000000 3.000000 -12.000000
v 0.000000 0.000000 0.000000
v 0.000000 3.000000 0.000000
v 0.000000 0.000000 -6.000001
v 0.000000 0.000000 -12.000000
v 0.000000 3.000000 0.000000
v 6.000001 3.000000 -12.000000
v 3.000000 0.000000 -12.000000
v 6.000001 0.000000 -12.000000
v 3.000000 3.000000 -12.000000
v 6.000001 3.000000 0.000000
v 3.000000 0.000000 0.000000
v 6.000001 0.000000 0.000000
v 0.000000 0.000000 0.000000
v 0.000000 3.000000 0.000000
v 6.000001 0.000000 0.000000
v 6.000001 3.000000 0.000000
vn 0.000000 -1.000000 0.000000
vn 0.000000 0.000000 -1.000000
vn 0.000000 1.000000 0.000000
vn 1.000000 0.000000 0.000000
vn -1.000000 0.000000 0.000000
vn 0.000000 0.000000 1.000000
usemtl material
s off
f 1//1 2//1 3//1
f 2//1 1//1 4//1
f 4//1 1//1 5//1
f 4//1 5//1 6//1
f 4//1 6//1 7//1
f 15//2 16//2 17//2
f 16//2 15//2 18//2
f 21//3 22//3 23//3
f 22//3 21//3 24//3
f 26//4 27//4 28//4
f 27//4 26//4 29//4
f 29//4 26//4 30//4
f 33//3 34//3 35//3
f 34//3 33//3 36//3
f 39//5 40//5 41//5
f 40//5 39//5 42//5
f 42//5 39//5 43//5
f 45//6 46//6 47//6
f 46//6 45//6 48//6
f 49//6 50//6 51//6
f 50//6 49//6 52//6
f 52//6 49//6 53//6
l 8 9
l 9 10
l 10 11
l 11 12
l 13 12
l 14 13
l 8 14
l 19 20
l 9 20
l 8 19
l 25 11
l 9 25
l 31 32
l 12 31
l 32 25
l 37 38
l 13 38
l 14 37
l 44 37
l 44 19
l 20 32
l 54 55
l 55 44
l 38 54
