# Blender v2.76 (sub 0) OBJ File: ''
# www.blender.org
mtllib ID3.mtl
o SketchUp_ID3
v 6.000001 0.000000 0.000000
v 3.000000 0.000000 -6.000001
v 3.000000 0.000000 0.000000
v 6.000001 0.000000 -6.000001
v 3.000000 0.000000 -6.000001
v 6.000001 0.000000 -6.000001
v 3.000000 0.000000 0.000000
v 6.000001 0.000000 0.000000
v 3.000000 3.000000 -6.000001
v 6.000001 0.000000 -6.000001
v 3.000000 0.000000 -6.000001
v 6.000001 3.000000 -6.000001
v 6.000001 3.000000 -6.000001
v 3.000000 3.000000 -6.000001
v 6.000001 0.000000 -6.000001
v 3.000000 0.000000 -6.000001
v 3.000000 3.000000 -6.000001
v 6.000001 3.000000 -6.000001
v 6.000001 3.000000 -6.000001
v 6.000001 0.000000 0.000000
v 6.000001 3.000000 0.000000
v 6.000001 0.000000 -6.000001
v 6.000001 3.000000 0.000000
vn 0.000000 1.000000 0.000000
vn 0.000000 0.000000 1.000000
vn -1.000000 0.000000 0.000000
vn 0.000000 0.000000 -1.000000
usemtl Color_A03
s off
f 1//1 2//1 3//1
f 2//1 1//1 4//1
f 13//2 14//2 15//2
f 16//2 15//2 14//2
f 19//3 20//3 21//3
f 20//3 19//3 22//3
usemtl material
f 9//4 10//4 11//4
f 10//4 9//4 12//4
l 5 6
l 5 7
l 7 8
l 6 8
l 17 5
l 18 17
l 6 18
l 8 23
l 23 18
