# Blender v2.76 (sub 0) OBJ File: 'my building1.blend'
# www.blender.org
mtllib ID39.mtl
o SketchUp.026_ID39
v 5.470213 4.088900 -6.069663
v 5.468326 4.073101 -6.071507
v 5.470213 4.073101 -6.069663
v 5.468326 4.088900 -6.071507
v 5.468326 4.088900 -6.071507
v 5.470213 4.088900 -6.069663
v 5.468326 4.073101 -6.071507
v 5.470213 4.073101 -6.069663
v 5.468326 4.073101 -6.071507
v 5.470213 4.073101 -6.069663
v 5.470213 4.088900 -6.069663
v 5.468326 4.088900 -6.071507
v 5.472098 4.088900 -6.071507
v 5.470213 4.073101 -6.069663
v 5.472098 4.073101 -6.071507
v 5.470213 4.088900 -6.069663
v 5.470213 4.088900 -6.069663
v 5.472098 4.088900 -6.071507
v 5.470213 4.073101 -6.069663
v 5.472098 4.073101 -6.071507
v 5.472098 4.073101 -6.071507
v 5.472098 4.088900 -6.071507
v 5.470213 4.088900 -6.069663
v 5.470213 4.088900 -6.073354
v 5.468326 4.088900 -6.071507
v 5.472098 4.088900 -6.071507
v 5.472098 4.088900 -6.071507
v 5.470213 4.088900 -6.069663
v 5.470213 4.088900 -6.073354
v 5.468326 4.088900 -6.071507
v 5.470213 4.088900 -6.073354
v 5.468326 4.088900 -6.071507
v 5.470213 4.073101 -6.073354
v 5.468326 4.073101 -6.071507
v 5.470213 4.088900 -6.073354
v 5.470213 4.088900 -6.073354
v 5.468326 4.088900 -6.071507
v 5.470213 4.073101 -6.073354
v 5.468326 4.073101 -6.071507
v 5.470213 4.073101 -6.073354
v 5.470213 4.088900 -6.073354
v 5.472098 4.073101 -6.071507
v 5.470213 4.073101 -6.073354
v 5.472098 4.088900 -6.071507
v 5.472098 4.088900 -6.071507
v 5.470213 4.088900 -6.073354
v 5.472098 4.073101 -6.071507
v 5.470213 4.073101 -6.073354
vn -0.698900 0.000000 0.715200
vn -0.698700 0.000000 0.715400
vn 0.699400 0.000000 0.714700
vn 0.699500 0.000000 0.714600
vn 0.000000 1.000000 0.000000
vn -0.699300 0.000000 -0.714800
vn -0.699500 0.000000 -0.714700
vn 0.700100 0.000000 -0.714000
vn 0.699900 0.000000 -0.714200
vn 0.698700 0.000000 -0.715400
vn 0.698900 0.000000 -0.715200
vn -0.699500 0.000000 -0.714600
vn -0.699400 0.000000 -0.714700
vn 0.000000 -1.000000 0.000000
vn 0.699500 0.000000 0.714700
vn 0.699300 0.000000 0.714800
vn -0.699900 0.000000 0.714200
vn -0.700100 0.000000 0.714000
usemtl material.001
s off
f 1//1 2//1 3//1
f 2//2 1//2 4//2
f 13//3 14//3 15//3
f 14//4 13//4 16//4
f 23//5 24//5 25//5
f 24//5 23//5 26//5
f 32//6 33//6 34//6
f 33//7 32//7 35//7
f 41//8 42//8 43//8
f 42//9 41//9 44//9
usemtl material_0.001
f 5//10 6//10 7//10
f 8//11 7//11 6//11
f 17//12 18//12 19//12
f 20//13 19//13 18//13
f 27//14 28//14 29//14
f 30//14 29//14 28//14
f 36//15 37//15 38//15
f 39//16 38//16 37//16
f 45//17 46//17 47//17
f 48//18 47//18 46//18
l 9 10
l 10 21
l 40 9
l 21 40
