# Blender v2.76 (sub 0) OBJ File: 'my building1.blend'
# www.blender.org
mtllib ID70.mtl
o SketchUp.007_ID70
v 3.970800 5.764464 -3.732800
v 4.834400 5.533599 -3.732800
v 3.970800 5.533599 -3.732800
v 5.494800 3.400001 -3.732800
v 4.834400 3.400001 -3.732800
v 5.494800 5.764464 -3.732800
v 3.970800 5.764464 -3.732800
v 4.834400 5.533599 -3.732800
v 5.494800 5.764464 -3.732800
v 5.494800 3.400001 -3.732800
v 4.834400 3.400001 -3.732800
v 3.970800 5.533599 -3.732800
v 4.834400 3.400001 -3.732800
v 5.494800 3.400001 -3.732800
v 4.834400 5.533599 -3.732800
v 3.970800 5.533599 -3.732800
v 3.970800 5.764464 -3.732800
v 5.494800 5.764464 -3.732800
vn 0.000000 0.000000 1.000000
vn 0.000000 0.000000 -1.000000
usemtl Lisanne_Caulk
s off
f 7//1 8//1 9//1
f 9//1 8//1 10//1
f 11//1 10//1 8//1
f 12//1 8//1 7//1
usemtl Color_F05.001
f 1//2 2//2 3//2
f 2//2 4//2 5//2
f 4//2 2//2 6//2
f 6//2 2//2 1//2
l 13 14
l 13 15
l 15 16
l 16 17
l 17 18
l 14 18
