# Blender v2.76 (sub 0) OBJ File: 'stuff for a town.blend'
# www.blender.org
mtllib Cube.028.mtl
o Cube.004_Cube.028
v 1.285326 -0.989371 -1.170654
v 0.066127 -1.000576 0.045559
v 1.285326 -0.389371 -1.170654
v 0.066127 -0.400576 0.045559
v 1.263148 -0.389371 -1.192563
v 1.263148 -0.989371 -1.192563
v 0.043949 -1.000576 0.023650
v 0.043949 -0.400576 0.023650
v -1.649674 -0.997088 -4.093725
v -2.868873 -1.008293 -2.877512
v -1.649674 -0.397088 -4.093725
v -2.868873 -0.408293 -2.877512
v -1.671852 -0.397088 -4.115634
v -1.671852 -0.997088 -4.115634
v -2.891051 -1.008293 -2.899421
v -2.891051 -0.408293 -2.899421
v 1.251615 -0.996366 -2.880718
v 0.035402 -1.007571 -4.099917
v 1.251615 -0.396366 -2.880718
v 0.035402 -0.407571 -4.099917
v 1.273524 -0.396366 -2.902896
v 1.273524 -0.996366 -2.902896
v 0.057311 -1.007571 -4.122095
v 0.057311 -0.407571 -4.122095
v -1.668791 -0.988940 0.057819
v -2.885004 -1.000145 -1.161380
v -1.668791 -0.388940 0.057819
v -2.885004 -0.400145 -1.161380
v -1.646882 -0.388940 0.035641
v -1.646882 -0.988940 0.035641
v -2.863095 -1.000145 -1.183558
v -2.863095 -0.400145 -1.183558
v -2.891783 -0.999181 -1.253969
v -2.891783 -0.999181 -2.780354
v -2.891783 -0.399181 -1.253969
v -2.891783 -0.399181 -2.780354
v -2.861783 -0.399181 -1.253969
v -2.861783 -0.999181 -1.253969
v -2.861783 -0.999181 -2.780354
v -2.861783 -0.399181 -2.780354
v 1.251847 -0.999068 -1.283161
v 1.251848 -0.999068 -2.834545
v 1.251847 -0.399068 -1.283161
v 1.251848 -0.399068 -2.834545
v 1.281847 -0.399068 -1.283161
v 1.281847 -0.999068 -1.283161
v 1.281848 -0.999068 -2.834545
v 1.281848 -0.399068 -2.834545
v -1.581314 -1.001403 -4.120335
v -0.029930 -1.001403 -4.120335
v -1.581314 -0.401403 -4.120335
v -0.029930 -0.401403 -4.120335
v -1.581314 -0.401403 -4.090334
v -1.581314 -1.001403 -4.090334
v -0.029930 -1.001403 -4.090334
v -0.029930 -0.401403 -4.090334
v -1.724055 0.999392 -4.247578
v -1.724055 1.084192 -4.247578
v 0.112614 0.999392 -4.247660
v 0.112614 1.084192 -4.247660
v 1.411393 0.999392 -2.948997
v 1.411393 1.084192 -2.948997
v 1.411475 0.999392 -1.112328
v 1.411475 1.084192 -1.112328
v 0.112811 0.999392 0.186451
v 0.112811 1.084192 0.186452
v -1.723858 0.999392 0.186533
v -1.723858 1.084192 0.186533
v -3.022636 0.999392 -1.112130
v -3.022637 1.084192 -1.112130
v -3.022719 0.999392 -2.948799
v -3.022719 1.084192 -2.948799
v -0.796439 2.084192 -2.052734
v -0.814806 2.084192 -2.052733
v -0.783452 2.084192 -2.039748
v -0.783451 2.084192 -2.021381
v -0.796438 2.084192 -2.008393
v -0.814804 2.084192 -2.008392
v -0.827792 2.084192 -2.021379
v -0.827793 2.084192 -2.039746
v -1.593326 0.999392 -3.932009
v -0.018088 0.999392 -3.932079
v 1.095824 0.999392 -2.818267
v 1.095894 0.999392 -1.243029
v -0.017918 0.999392 -0.129118
v -1.593156 0.999392 -0.129048
v -2.707067 0.999392 -1.242859
v -2.707138 0.999392 -2.818097
v -0.821376 1.999392 -2.068592
v -0.789871 1.999392 -2.068594
v -0.767593 1.999392 -2.046317
v -0.767592 1.999392 -2.014813
v -0.789868 1.999392 -1.992535
v -0.821373 1.999392 -1.992533
v -0.843651 1.999392 -2.014809
v -0.843652 1.999392 -2.046314
v 1.284185 -1.000000 -1.163594
v 1.284185 1.000000 -1.163594
v 1.164185 -1.000000 -1.163595
v 1.164185 1.000000 -1.163595
v 1.284185 -1.000000 -1.283594
v 1.284185 1.000000 -1.283594
v 1.164185 -1.000000 -1.283595
v 1.164185 1.000000 -1.283595
v 1.283747 -1.000000 -2.775541
v 1.283747 1.000000 -2.775541
v 1.163747 -1.000000 -2.775541
v 1.163747 1.000000 -2.775541
v 1.283747 -1.000000 -2.895540
v 1.283747 1.000000 -2.895540
v 1.163747 -1.000000 -2.895540
v 1.163747 1.000000 -2.895540
v -2.772064 -1.000000 -2.772962
v -2.772064 1.000000 -2.772962
v -2.892064 -1.000000 -2.772962
v -2.892064 1.000000 -2.772962
v -2.772064 -1.000000 -2.892962
v -2.772064 1.000000 -2.892962
v -2.892064 -1.000000 -2.892962
v -2.892064 1.000000 -2.892962
v -2.770502 -1.000000 -1.156061
v -2.770502 1.000000 -1.156061
v -2.890502 -1.000000 -1.156061
v -2.890502 1.000000 -1.156061
v -2.770502 -1.000000 -1.276061
v -2.770502 1.000000 -1.276061
v -2.890502 -1.000000 -1.276061
v -2.890502 1.000000 -1.276061
v -1.672412 -0.995605 -3.999910
v -1.672412 1.004395 -3.999910
v -1.672412 -0.995605 -4.119910
v -1.672412 1.004395 -4.119910
v -1.552412 -0.995605 -3.999910
v -1.552412 1.004395 -3.999910
v -1.552412 -0.995605 -4.119910
v -1.552412 1.004395 -4.119910
v -0.062050 -0.995605 -4.003849
v -0.062050 1.004395 -4.003849
v -0.062050 -0.995605 -4.123848
v -0.062050 1.004395 -4.123848
v 0.057950 -0.995605 -4.003849
v 0.057950 1.004395 -4.003849
v 0.057950 -0.995605 -4.123848
v 0.057950 1.004395 -4.123848
v -1.672069 -1.078208 -4.122087
v -1.672069 -0.998208 -4.122087
v 0.060638 -1.078208 -4.122165
v 0.060638 -0.998208 -4.122165
v 1.285902 -1.078208 -2.897010
v 1.285902 -0.998208 -2.897010
v 1.285979 -1.078208 -1.164303
v 1.285979 -0.998208 -1.164303
v 0.060825 -1.078208 0.060961
v 0.060825 -0.998208 0.060961
v -1.671882 -1.078208 0.061038
v -1.671882 -0.998208 0.061038
v -2.897146 -1.078208 -1.164117
v -2.897146 -0.998208 -1.164117
v -2.897223 -1.078208 -2.896823
v -2.897223 -0.998208 -2.896823
v -0.060000 -1.000000 0.060000
v -0.060000 1.000000 0.060000
v -0.060000 -1.000000 -0.060000
v -0.060000 1.000000 -0.060000
v 0.060000 -1.000000 0.060000
v 0.060000 1.000000 0.060000
v 0.060000 -1.000000 -0.060000
v 0.060000 1.000000 -0.060000
v -1.670236 -1.000000 0.060858
v -1.670236 1.000000 0.060858
v -1.670236 -1.000000 -0.059142
v -1.670236 1.000000 -0.059142
v -1.550236 -1.000000 0.060858
v -1.550236 1.000000 0.060858
v -1.550236 -1.000000 -0.059142
v -1.550236 1.000000 -0.059142
vn 0.706200 0.000000 0.708000
vn -0.706200 0.000000 -0.708000
vn -0.004600 1.000000 0.004600
vn 0.004600 -1.000000 -0.004600
vn -0.702800 0.000000 0.711400
vn 0.702800 0.000000 -0.711400
vn -0.708000 0.000000 0.706200
vn 0.708000 0.000000 -0.706200
vn -0.004600 1.000000 -0.004600
vn 0.004600 -1.000000 0.004600
vn -0.711400 0.000000 -0.702800
vn 0.711400 0.000000 0.702800
vn -1.000000 0.000000 0.000000
vn 1.000000 0.000000 0.000000
vn 0.000000 1.000000 0.000000
vn 0.000000 -1.000000 0.000000
vn 0.000000 0.000000 -1.000000
vn 0.000000 0.000000 1.000000
vn 0.707100 -0.000000 -0.707100
vn 0.707100 -0.000000 0.707100
vn -0.707100 -0.000000 0.707100
vn 0.293200 0.910000 -0.293200
vn -0.707100 -0.000000 -0.707100
vn 0.000000 0.910000 0.414600
vn -0.293200 0.910000 -0.293200
vn -0.000000 0.910000 -0.414600
vn 0.414600 0.910000 -0.000000
vn -0.293200 0.910000 0.293200
vn 0.293200 0.910000 0.293200
vn -0.414600 0.910000 0.000000
vn 0.000000 -0.881100 0.472900
vn 0.334400 -0.881100 0.334300
vn 0.334300 -0.881100 -0.334400
vn -0.334400 -0.881100 -0.334300
vn -0.334300 -0.881100 0.334400
vn 0.472900 -0.881100 -0.000000
vn -0.000000 -0.881100 -0.472900
vn -0.472900 -0.881100 0.000000
usemtl Material
s off
f 1//1 3//1 4//1
f 6//2 7//2 8//2
f 4//3 3//3 5//3
f 2//4 7//4 6//4
f 4//5 8//5 7//5
f 1//6 6//6 5//6
f 9//1 11//1 12//1
f 14//2 15//2 16//2
f 12//3 11//3 13//3
f 10//4 15//4 14//4
f 12//5 16//5 15//5
f 9//6 14//6 13//6
f 17//7 19//7 20//7
f 22//8 23//8 24//8
f 20//9 19//9 21//9
f 18//10 23//10 22//10
f 20//11 24//11 23//11
f 17//12 22//12 21//12
f 25//7 27//7 28//7
f 30//8 31//8 32//8
f 28//9 27//9 29//9
f 26//10 31//10 30//10
f 28//11 32//11 31//11
f 25//12 30//12 29//12
f 35//13 36//13 34//13
f 39//14 40//14 37//14
f 35//15 37//15 40//15
f 34//16 39//16 38//16
f 36//17 40//17 39//17
f 33//18 38//18 37//18
f 43//13 44//13 42//13
f 47//14 48//14 45//14
f 43//15 45//15 48//15
f 42//16 47//16 46//16
f 44//17 48//17 47//17
f 41//18 46//18 45//18
f 51//17 52//17 50//17
f 55//18 56//18 53//18
f 51//15 53//15 56//15
f 50//16 55//16 54//16
f 52//14 56//14 55//14
f 49//13 54//13 53//13
f 100//18 99//18 97//18
f 104//13 103//13 99//13
f 102//17 101//17 103//17
f 98//14 97//14 101//14
f 99//16 103//16 101//16
f 104//15 100//15 98//15
f 108//18 107//18 105//18
f 112//13 111//13 107//13
f 110//17 109//17 111//17
f 106//14 105//14 109//14
f 105//16 107//16 111//16
f 112//15 108//15 106//15
f 116//18 115//18 113//18
f 120//13 119//13 115//13
f 118//17 117//17 119//17
f 114//14 113//14 117//14
f 115//16 119//16 117//16
f 120//15 116//15 114//15
f 124//18 123//18 121//18
f 128//13 127//13 123//13
f 126//17 125//17 127//17
f 122//14 121//14 125//14
f 123//16 127//16 125//16
f 126//15 128//15 124//15
f 132//13 131//13 129//13
f 136//17 135//17 131//17
f 134//14 133//14 135//14
f 130//18 129//18 133//18
f 131//16 135//16 133//16
f 136//15 132//15 130//15
f 140//13 139//13 137//13
f 144//17 143//17 139//17
f 142//14 141//14 143//14
f 138//18 137//18 141//18
f 139//16 143//16 141//16
f 142//15 144//15 140//15
f 164//13 163//13 161//13
f 168//17 167//17 163//17
f 166//14 165//14 167//14
f 162//18 161//18 165//18
f 163//16 167//16 165//16
f 168//15 164//15 162//15
f 172//13 171//13 169//13
f 176//17 175//17 171//17
f 174//14 173//14 175//14
f 170//18 169//18 173//18
f 169//16 171//16 175//16
f 176//15 172//15 170//15
f 2//1 1//1 4//1
f 5//2 6//2 8//2
f 8//3 4//3 5//3
f 1//4 2//4 6//4
f 2//5 4//5 7//5
f 3//6 1//6 5//6
f 10//1 9//1 12//1
f 13//2 14//2 16//2
f 16//3 12//3 13//3
f 9//4 10//4 14//4
f 10//5 12//5 15//5
f 11//6 9//6 13//6
f 18//7 17//7 20//7
f 21//8 22//8 24//8
f 24//9 20//9 21//9
f 17//10 18//10 22//10
f 18//11 20//11 23//11
f 19//12 17//12 21//12
f 26//7 25//7 28//7
f 29//8 30//8 32//8
f 32//9 28//9 29//9
f 25//10 26//10 30//10
f 26//11 28//11 31//11
f 27//12 25//12 29//12
f 33//13 35//13 34//13
f 38//14 39//14 37//14
f 36//15 35//15 40//15
f 33//16 34//16 38//16
f 34//17 36//17 39//17
f 35//18 33//18 37//18
f 41//13 43//13 42//13
f 46//14 47//14 45//14
f 44//15 43//15 48//15
f 41//16 42//16 46//16
f 42//17 44//17 47//17
f 43//18 41//18 45//18
f 49//17 51//17 50//17
f 54//18 55//18 53//18
f 52//15 51//15 56//15
f 49//16 50//16 54//16
f 50//14 52//14 55//14
f 51//13 49//13 53//13
f 98//18 100//18 97//18
f 100//13 104//13 99//13
f 104//17 102//17 103//17
f 102//14 98//14 101//14
f 97//16 99//16 101//16
f 102//15 104//15 98//15
f 106//18 108//18 105//18
f 108//13 112//13 107//13
f 112//17 110//17 111//17
f 110//14 106//14 109//14
f 109//16 105//16 111//16
f 110//15 112//15 106//15
f 114//18 116//18 113//18
f 116//13 120//13 115//13
f 120//17 118//17 119//17
f 118//14 114//14 117//14
f 113//16 115//16 117//16
f 118//15 120//15 114//15
f 122//18 124//18 121//18
f 124//13 128//13 123//13
f 128//17 126//17 127//17
f 126//14 122//14 125//14
f 121//16 123//16 125//16
f 122//15 126//15 124//15
f 130//13 132//13 129//13
f 132//17 136//17 131//17
f 136//14 134//14 135//14
f 134//18 130//18 133//18
f 129//16 131//16 133//16
f 134//15 136//15 130//15
f 138//13 140//13 137//13
f 140//17 144//17 139//17
f 144//14 142//14 143//14
f 142//18 138//18 141//18
f 137//16 139//16 141//16
f 138//15 142//15 140//15
f 162//13 164//13 161//13
f 164//17 168//17 163//17
f 168//14 166//14 167//14
f 166//18 162//18 165//18
f 161//16 163//16 165//16
f 166//15 168//15 162//15
f 170//13 172//13 169//13
f 172//17 176//17 171//17
f 176//14 174//14 175//14
f 174//18 170//18 173//18
f 173//16 169//16 175//16
f 174//15 176//15 170//15
usemtl Material.008
f 58//17 60//17 59//17
f 60//19 62//19 61//19
f 62//14 64//14 63//14
f 64//20 66//20 65//20
f 66//18 68//18 67//18
f 67//21 68//21 70//21
f 60//22 73//22 75//22
f 72//23 58//23 57//23
f 69//13 70//13 72//13
f 63//16 84//16 83//16
f 79//15 77//15 74//15
f 68//24 66//24 77//24
f 58//25 72//25 80//25
f 58//26 74//26 73//26
f 64//27 62//27 75//27
f 70//28 68//28 78//28
f 66//29 64//29 76//29
f 70//30 79//30 80//30
f 82//31 90//31 89//31
f 67//16 69//16 87//16
f 65//16 85//16 84//16
f 69//16 71//16 88//16
f 61//16 83//16 82//16
f 67//16 86//16 85//16
f 57//16 81//16 88//16
f 59//16 82//16 81//16
f 92//16 94//16 90//16
f 88//32 81//32 89//32
f 87//33 95//33 94//33
f 85//34 93//34 92//34
f 83//35 91//35 90//35
f 88//36 96//36 95//36
f 85//37 86//37 94//37
f 84//38 92//38 91//38
f 57//17 58//17 59//17
f 59//19 60//19 61//19
f 61//14 62//14 63//14
f 63//20 64//20 65//20
f 65//18 66//18 67//18
f 69//21 67//21 70//21
f 62//22 60//22 75//22
f 71//23 72//23 57//23
f 71//13 69//13 72//13
f 61//16 63//16 83//16
f 75//15 73//15 74//15
f 74//15 80//15 79//15
f 79//15 78//15 77//15
f 77//15 76//15 75//15
f 75//15 74//15 77//15
f 78//24 68//24 77//24
f 74//25 58//25 80//25
f 60//26 58//26 73//26
f 76//27 64//27 75//27
f 79//28 70//28 78//28
f 77//29 66//29 76//29
f 72//30 70//30 80//30
f 81//31 82//31 89//31
f 86//16 67//16 87//16
f 63//16 65//16 84//16
f 87//16 69//16 88//16
f 59//16 61//16 82//16
f 65//16 67//16 85//16
f 71//16 57//16 88//16
f 57//16 59//16 81//16
f 96//16 89//16 90//16
f 90//16 91//16 92//16
f 92//16 93//16 94//16
f 94//16 95//16 96//16
f 96//16 90//16 94//16
f 96//32 88//32 89//32
f 86//33 87//33 94//33
f 84//34 85//34 92//34
f 82//35 83//35 90//35
f 87//36 88//36 95//36
f 93//37 85//37 94//37
f 83//38 84//38 91//38
usemtl Material.003
f 146//17 148//17 147//17
f 148//19 150//19 149//19
f 150//14 152//14 151//14
f 152//20 154//20 153//20
f 154//18 156//18 155//18
f 156//21 158//21 157//21
f 156//15 154//15 146//15
f 160//23 146//23 145//23
f 158//13 160//13 159//13
f 151//16 155//16 159//16
f 145//17 146//17 147//17
f 147//19 148//19 149//19
f 149//14 150//14 151//14
f 151//20 152//20 153//20
f 153//18 154//18 155//18
f 155//21 156//21 157//21
f 150//15 148//15 146//15
f 146//15 160//15 158//15
f 158//15 156//15 146//15
f 154//15 152//15 150//15
f 150//15 146//15 154//15
f 159//23 160//23 145//23
f 157//13 158//13 159//13
f 159//16 145//16 151//16
f 147//16 149//16 151//16
f 151//16 153//16 155//16
f 155//16 157//16 159//16
f 145//16 147//16 151//16
