# Blender v2.76 (sub 0) OBJ File: 'stuff for a town.blend'
# www.blender.org
mtllib Cylinder.007.mtl
o tree2.005_Cylinder.007
v 0.000000 1.000000 0.000000
v 0.723607 1.552781 0.525725
v -0.276388 1.552780 0.850649
v -0.894426 1.552784 0.000000
v -0.276388 1.552780 -0.850649
v 0.723607 1.552781 -0.525725
v 0.276388 2.447220 0.850649
v -0.723607 2.447220 0.525725
v -0.723607 2.447220 -0.525725
v 0.276388 2.447220 -0.850649
v 0.894426 2.447216 0.000000
v 0.000000 3.000000 0.000000
v -0.162456 1.149346 0.499995
v 0.425323 1.149346 0.309011
v 0.262869 1.474262 0.809012
v 0.850648 1.474264 0.000000
v 0.425323 1.149346 -0.309011
v -0.525730 1.149348 0.000000
v -0.688189 1.474264 0.499997
v -0.162456 1.149346 -0.499995
v -0.688189 1.474264 -0.499997
v 0.262869 1.474262 -0.809012
v 0.951058 2.000000 0.309013
v 0.951058 2.000000 -0.309013
v 0.000000 2.000000 1.000000
v 0.587786 2.000000 0.809017
v -0.951058 2.000000 0.309013
v -0.587786 2.000000 0.809017
v -0.587786 2.000000 -0.809017
v -0.951058 2.000000 -0.309013
v 0.587786 2.000000 -0.809017
v 0.000000 2.000000 -1.000000
v 0.688189 2.525736 0.499997
v -0.262869 2.525738 0.809012
v -0.850648 2.525736 0.000000
v -0.262869 2.525738 -0.809012
v 0.688189 2.525736 -0.499997
v 0.162456 2.850654 0.499995
v 0.525730 2.850652 0.000000
v -0.425323 2.850654 0.309011
v -0.425323 2.850654 -0.309011
v 0.162456 2.850654 -0.499995
v 0.000000 -1.000000 -0.400000
v 0.000000 1.250000 -0.400000
v 0.153073 -1.000000 -0.369552
v 0.153073 1.250000 -0.369552
v 0.282843 -1.000000 -0.282843
v 0.282843 1.250000 -0.282843
v 0.369552 -1.000000 -0.153073
v 0.369552 1.250000 -0.153073
v 0.400000 -1.000000 0.000000
v 0.400000 1.250000 0.000000
v 0.369552 -1.000000 0.153073
v 0.369552 1.250000 0.153073
v 0.282843 -1.000000 0.282843
v 0.282843 1.250000 0.282843
v 0.153073 -1.000000 0.369552
v 0.153073 1.250000 0.369552
v 0.000000 -1.000000 0.400000
v 0.000000 1.250000 0.400000
v -0.153073 -1.000000 0.369552
v -0.153073 1.250000 0.369552
v -0.282843 -1.000000 0.282843
v -0.282843 1.250000 0.282843
v -0.369552 -1.000000 0.153073
v -0.369552 1.250000 0.153073
v -0.400000 -1.000000 -0.000000
v -0.400000 1.250000 -0.000000
v -0.369552 -1.000000 -0.153073
v -0.369552 1.250000 -0.153073
v -0.282843 -1.000000 -0.282843
v -0.282843 1.250000 -0.282843
v -0.153073 -1.000000 -0.369552
v -0.153073 1.250000 -0.369552
vn 0.195100 0.000000 -0.980800
vn 0.555600 0.000000 -0.831500
vn 0.831500 0.000000 -0.555600
vn 0.980800 0.000000 -0.195100
vn 0.980800 0.000000 0.195100
vn 0.831500 0.000000 0.555600
vn 0.555600 0.000000 0.831500
vn 0.195100 0.000000 0.980800
vn -0.195100 0.000000 0.980800
vn -0.555600 0.000000 0.831500
vn -0.831500 0.000000 0.555600
vn -0.980800 0.000000 0.195100
vn -0.980800 0.000000 -0.195100
vn -0.831500 0.000000 -0.555600
vn 0.000000 1.000000 0.000000
vn -0.195100 0.000000 -0.980800
vn -0.555600 0.000000 -0.831500
vn 0.000000 -1.000000 0.000000
vn 0.102400 -0.943500 0.315100
vn 0.700200 -0.661700 0.268000
vn -0.268000 -0.943500 0.194700
vn -0.268000 -0.943500 -0.194700
vn 0.102400 -0.943500 -0.315100
vn 0.905000 -0.330400 0.268000
vn 0.024700 -0.330400 0.943500
vn -0.889700 -0.330400 0.315100
vn -0.574600 -0.330400 -0.748800
vn 0.534600 -0.330400 -0.777900
vn 0.802600 -0.125600 0.583100
vn -0.306600 -0.125600 0.943500
vn -0.992100 -0.125600 0.000000
vn -0.306600 -0.125600 -0.943500
vn 0.802600 -0.125600 -0.583100
vn 0.408900 0.661700 0.628400
vn -0.471300 0.661700 0.583100
vn -0.700200 0.661700 -0.268000
vn 0.038500 0.661700 -0.748800
vn 0.724000 0.661700 -0.194700
vn 0.268000 0.943500 -0.194700
vn 0.491100 0.794700 -0.356800
vn 0.408900 0.661700 -0.628400
vn -0.102400 0.943500 -0.315100
vn -0.187600 0.794700 -0.577300
vn -0.471300 0.661700 -0.583100
vn -0.331300 0.943500 0.000000
vn -0.607100 0.794700 0.000000
vn -0.700200 0.661700 0.268000
vn -0.102400 0.943500 0.315100
vn -0.187600 0.794700 0.577300
vn 0.038500 0.661700 0.748800
vn 0.268000 0.943500 0.194700
vn 0.491100 0.794700 0.356800
vn 0.724000 0.661700 0.194700
vn 0.889700 0.330400 -0.315100
vn 0.794700 0.187600 -0.577300
vn 0.574600 0.330400 -0.748800
vn -0.024700 0.330400 -0.943500
vn -0.303500 0.187600 -0.934200
vn -0.534600 0.330400 -0.777900
vn -0.905000 0.330400 -0.268000
vn -0.982200 0.187600 0.000000
vn -0.905000 0.330400 0.268000
vn -0.534600 0.330400 0.777900
vn -0.303500 0.187600 0.934200
vn -0.024700 0.330400 0.943500
vn 0.574600 0.330400 0.748800
vn 0.794700 0.187600 0.577300
vn 0.889700 0.330400 0.315100
vn 0.306600 0.125600 -0.943500
vn 0.303500 -0.187600 -0.934200
vn 0.024700 -0.330400 -0.943500
vn -0.802600 0.125600 -0.583100
vn -0.794700 -0.187600 -0.577300
vn -0.889700 -0.330400 -0.315100
vn -0.802600 0.125600 0.583100
vn -0.794700 -0.187600 0.577300
vn -0.574600 -0.330400 0.748800
vn 0.306600 0.125600 0.943500
vn 0.303500 -0.187600 0.934200
vn 0.534600 -0.330400 0.777900
vn 0.992100 0.125600 0.000000
vn 0.982200 -0.187600 0.000000
vn 0.905000 -0.330400 -0.268000
vn 0.471300 -0.661700 -0.583100
vn 0.187600 -0.794700 -0.577300
vn -0.038500 -0.661700 -0.748800
vn -0.408900 -0.661700 -0.628400
vn -0.491100 -0.794700 -0.356800
vn -0.724000 -0.661700 -0.194700
vn -0.724000 -0.661700 0.194700
vn -0.491100 -0.794700 0.356800
vn -0.408900 -0.661700 0.628400
vn 0.700200 -0.661700 -0.268000
vn 0.607100 -0.794700 0.000000
vn 0.331300 -0.943500 0.000000
vn -0.038500 -0.661700 0.748800
vn 0.187600 -0.794700 0.577300
vn 0.471300 -0.661700 0.583100
usemtl Material.003
s off
f 44//1 46//1 45//1
f 46//2 48//2 47//2
f 48//3 50//3 49//3
f 50//4 52//4 51//4
f 52//5 54//5 53//5
f 54//6 56//6 55//6
f 56//7 58//7 57//7
f 58//8 60//8 59//8
f 60//9 62//9 61//9
f 62//10 64//10 63//10
f 64//11 66//11 65//11
f 66//12 68//12 67//12
f 68//13 70//13 69//13
f 70//14 72//14 71//14
f 64//15 56//15 48//15
f 74//16 44//16 43//16
f 72//17 74//17 73//17
f 57//18 65//18 73//18
f 43//1 44//1 45//1
f 45//2 46//2 47//2
f 47//3 48//3 49//3
f 49//4 50//4 51//4
f 51//5 52//5 53//5
f 53//6 54//6 55//6
f 55//7 56//7 57//7
f 57//8 58//8 59//8
f 59//9 60//9 61//9
f 61//10 62//10 63//10
f 63//11 64//11 65//11
f 65//12 66//12 67//12
f 67//13 68//13 69//13
f 69//14 70//14 71//14
f 48//15 46//15 44//15
f 44//15 74//15 48//15
f 72//15 70//15 68//15
f 68//15 66//15 64//15
f 64//15 62//15 60//15
f 60//15 58//15 56//15
f 56//15 54//15 52//15
f 52//15 50//15 56//15
f 48//15 74//15 72//15
f 72//15 68//15 64//15
f 64//15 60//15 56//15
f 56//15 50//15 48//15
f 48//15 72//15 64//15
f 73//16 74//16 43//16
f 71//17 72//17 73//17
f 73//18 43//18 45//18
f 45//18 47//18 49//18
f 49//18 51//18 53//18
f 53//18 55//18 57//18
f 57//18 59//18 61//18
f 61//18 63//18 57//18
f 65//18 67//18 69//18
f 69//18 71//18 73//18
f 73//18 45//18 49//18
f 49//18 53//18 57//18
f 57//18 63//18 65//18
f 65//18 69//18 73//18
f 73//18 49//18 57//18
usemtl Material.007
f 1//19 14//19 13//19
f 2//20 14//20 16//20
f 1//21 13//21 18//21
f 1//22 18//22 20//22
f 1//23 20//23 17//23
f 2//24 16//24 23//24
f 3//25 15//25 25//25
f 4//26 19//26 27//26
f 5//27 21//27 29//27
f 6//28 22//28 31//28
f 2//29 23//29 26//29
f 3//30 25//30 28//30
f 4//31 27//31 30//31
f 5//32 29//32 32//32
f 6//33 31//33 24//33
f 7//34 33//34 38//34
f 8//35 34//35 40//35
f 9//36 35//36 41//36
f 10//37 36//37 42//37
f 11//38 37//38 39//38
f 39//39 42//39 12//39
f 39//40 37//40 42//40
f 37//41 10//41 42//41
f 42//42 41//42 12//42
f 42//43 36//43 41//43
f 36//44 9//44 41//44
f 41//45 40//45 12//45
f 41//46 35//46 40//46
f 35//47 8//47 40//47
f 40//48 38//48 12//48
f 40//49 34//49 38//49
f 34//50 7//50 38//50
f 38//51 39//51 12//51
f 38//52 33//52 39//52
f 33//53 11//53 39//53
f 24//54 37//54 11//54
f 24//55 31//55 37//55
f 31//56 10//56 37//56
f 32//57 36//57 10//57
f 32//58 29//58 36//58
f 29//59 9//59 36//59
f 30//60 35//60 9//60
f 30//61 27//61 35//61
f 27//62 8//62 35//62
f 28//63 34//63 8//63
f 28//64 25//64 34//64
f 25//65 7//65 34//65
f 26//66 33//66 7//66
f 26//67 23//67 33//67
f 23//68 11//68 33//68
f 31//69 32//69 10//69
f 31//70 22//70 32//70
f 22//71 5//71 32//71
f 29//72 30//72 9//72
f 29//73 21//73 30//73
f 21//74 4//74 30//74
f 27//75 28//75 8//75
f 27//76 19//76 28//76
f 19//77 3//77 28//77
f 25//78 26//78 7//78
f 25//79 15//79 26//79
f 15//80 2//80 26//80
f 23//81 24//81 11//81
f 23//82 16//82 24//82
f 16//83 6//83 24//83
f 17//84 22//84 6//84
f 17//85 20//85 22//85
f 20//86 5//86 22//86
f 20//87 21//87 5//87
f 20//88 18//88 21//88
f 18//89 4//89 21//89
f 18//90 19//90 4//90
f 18//91 13//91 19//91
f 13//92 3//92 19//92
f 16//93 17//93 6//93
f 16//94 14//94 17//94
f 14//95 1//95 17//95
f 13//96 15//96 3//96
f 13//97 14//97 15//97
f 14//98 2//98 15//98
