# Blender v2.76 (sub 0) OBJ File: 'stuff for a town.blend'
# www.blender.org
mtllib Cylinder.017.mtl
o Cylinder.011_Cylinder.017
v -0.240000 0.080000 -0.000000
v -0.240000 -0.080000 -0.000000
v -0.120000 0.080000 -0.207846
v -0.120000 -0.080000 -0.207846
v 0.120000 0.080000 -0.207846
v 0.120000 -0.080000 -0.207846
v 0.240000 0.080000 0.000000
v 0.240000 -0.080000 0.000000
v 0.120000 0.080000 0.207846
v 0.120000 -0.080000 0.207846
v -0.120000 0.080000 0.207846
v -0.120000 -0.080000 0.207846
v -0.168000 0.080000 -0.000000
v -0.084000 0.080000 -0.145492
v 0.084000 0.080000 -0.145492
v 0.168000 0.080000 0.000000
v 0.084000 0.080000 0.145492
v -0.084000 0.080000 0.145492
v -0.168000 0.200000 -0.000000
v -0.084000 0.200000 -0.145492
v 0.084000 0.200000 -0.145492
v 0.168000 0.200000 0.000000
v 0.084000 0.200000 0.145492
v -0.084000 0.200000 0.145492
v -0.100800 0.264000 -0.000000
v -0.050400 0.264000 -0.087295
v 0.050400 0.264000 -0.087295
v 0.100800 0.264000 0.000000
v 0.050400 0.264000 0.087295
v -0.050400 0.264000 0.087295
v -0.080640 1.704000 0.000000
v -0.040320 1.704000 -0.069836
v 0.040320 1.704000 -0.069836
v 0.080640 1.704000 0.000000
v 0.040320 1.704000 0.069836
v -0.040320 1.704000 0.069836
v -0.129024 1.704363 -0.000000
v -0.064512 1.704363 -0.111738
v 0.064512 1.704363 -0.111738
v 0.129024 1.704363 0.000000
v 0.064512 1.704363 0.111738
v -0.064512 1.704363 0.111738
v -0.180634 2.104363 -0.000000
v -0.090317 2.104363 -0.156433
v 0.090317 2.104363 -0.156433
v 0.180634 2.104363 0.000000
v 0.090317 2.104363 0.156433
v -0.090317 2.104363 0.156433
v -0.216760 2.104363 -0.000000
v -0.108380 2.104363 -0.187720
v 0.108380 2.104363 -0.187720
v 0.216760 2.104363 0.000000
v 0.108380 2.104363 0.187720
v -0.108380 2.104363 0.187720
v -0.216760 2.124363 -0.000000
v -0.108380 2.124363 -0.187720
v 0.108380 2.124363 -0.187720
v 0.216760 2.124363 0.000000
v 0.108380 2.124363 0.187720
v -0.108380 2.124363 0.187720
v -0.151732 2.164363 0.000000
v -0.075866 2.164363 -0.131404
v 0.075866 2.164363 -0.131404
v 0.151732 2.164363 0.000000
v 0.075866 2.164363 0.131404
v -0.075866 2.164363 0.131404
v -0.060693 2.224363 0.000000
v -0.030346 2.224363 -0.052561
v 0.030346 2.224363 -0.052561
v 0.060693 2.224363 0.000000
v 0.030346 2.224363 0.052562
v -0.030346 2.224363 0.052562
vt 0.000000 0.500000
vt 1.000000 0.500000
vt 1.000000 1.000000
vt 0.000000 1.000000
vt 0.621094 0.156250
vt 0.621094 0.125000
vt 0.542969 0.125000
vt 0.875000 0.156250
vt 0.875000 0.125000
vt 0.542969 0.156250
vt 0.468750 0.156250
vt 0.468750 0.125000
vt 0.875000 0.160156
vt 0.875000 0.082031
vt 0.832031 0.121094
vt 0.125000 0.156250
vt 0.125000 0.125000
vt 0.214844 0.125000
vt 0.203125 0.093750
vt 0.140625 0.093750
vt 0.125000 0.082031
vt 0.492188 0.175781
vt 0.542969 0.175781
vt 0.855469 0.121094
vt 0.875000 0.148438
vt 0.203125 0.148438
vt 0.234375 0.121094
vt 0.261719 0.121094
vt 0.875000 0.093750
vt 0.214844 0.082031
vt 0.191406 0.187500
vt 0.152344 0.187500
vt 0.140625 0.175781
vt 0.492188 0.156250
vt 0.875000 0.175781
vt 0.203125 0.175781
vt 0.140625 0.156250
vt 0.597656 0.175781
vt 0.597656 0.156250
vt 0.542969 0.187500
vt 0.542969 0.457031
vt 0.515625 0.457031
vt 0.191406 0.136719
vt 0.207031 0.121094
vt 0.875000 0.121094
vt 0.875000 0.136719
vt 0.875000 0.101562
vt 0.191406 0.101562
vt 0.875000 0.187500
vt 0.195312 0.140625
vt 0.218750 0.121094
vt 0.203125 0.121094
vt 0.875000 0.457031
vt 0.187500 0.457031
vt 0.156250 0.457031
vt 0.570312 0.457031
vt 0.578125 0.187500
vt 0.871094 0.121094
vt 0.875000 0.140625
vt 0.195312 0.101562
vt 0.187500 0.109375
vt 0.875000 0.132812
vt 0.144531 0.101562
vt 0.156250 0.109375
vt 0.250000 0.121094
vt 0.210938 0.085938
vt 0.203125 0.089844
vt 0.613281 0.160156
vt 0.542969 0.160156
vt 0.128906 0.085938
vt 0.210938 0.156250
vt 0.839844 0.121094
vt 0.875000 0.089844
vt 0.875000 0.085938
vt 0.875000 0.144531
vt 0.472656 0.160156
vt 0.210938 0.160156
vt 0.128906 0.160156
vt 0.863281 0.121094
vt 0.875000 0.128906
vt 0.199219 0.097656
vt 0.144531 0.097656
vt 0.199219 0.144531
vt 0.226562 0.121094
vt 0.875000 0.097656
vt 0.875000 0.113281
vt 0.191406 0.121094
vt 0.179688 0.113281
vt 0.156250 0.113281
vt 0.179688 0.128906
vt 0.214844 0.156250
vt 0.214844 0.160156
vt 0.203125 0.156250
vt 0.511719 0.187500
vt 0.187500 0.132812
vt 0.875000 0.109375
vt 0.238281 0.121094
vt 0.136719 0.089844
vt 0.851562 0.121094
vn -0.860700 -0.111000 0.496900
vn 0.860700 -0.111000 0.496900
vn 0.000000 -0.111000 -0.993800
vn 0.000000 -0.111000 0.993800
vn 0.860700 -0.111000 -0.496900
vn -0.860700 -0.111000 -0.496900
vn -0.866000 0.000000 -0.500000
vn 0.000000 0.000000 -1.000000
vn 0.866000 0.000000 -0.500000
vn 0.866000 0.000000 0.500000
vn 0.000000 -1.000000 0.000000
vn -0.866000 0.000000 0.500000
vn -0.000000 0.000000 1.000000
vn 0.000000 1.000000 0.000000
vn -0.000000 0.672800 0.739900
vn 0.866000 0.012100 0.500000
vn 0.640700 0.672800 -0.369900
vn -0.640700 0.672800 -0.369900
vn -0.640700 0.672800 0.369900
vn 0.640700 0.672800 0.369900
vn 0.000000 0.672800 -0.739900
vn 0.007500 -1.000000 -0.004300
vn 0.000000 0.012100 -0.999900
vn 0.000000 0.012100 0.999900
vn 0.866000 0.012100 -0.500000
vn -0.866000 0.012100 -0.500000
vn -0.866000 0.012100 0.500000
vn -0.007500 -1.000000 -0.004300
vn -0.007500 -1.000000 0.004300
vn 0.007500 -1.000000 0.004300
vn 0.000000 -1.000000 -0.008700
vn 0.000000 -1.000000 0.008700
vn 0.000000 0.815300 -0.579100
vn -0.524500 0.795800 -0.302800
vn 0.000000 0.815300 0.579100
vn 0.501500 0.815300 -0.289500
vn -0.501500 0.815300 -0.289500
vn -0.501500 0.815300 0.289500
vn 0.501500 0.815300 0.289500
vn -0.524500 0.795800 0.302800
vn 0.524500 0.795800 0.302800
vn 0.000000 0.795800 -0.605600
vn 0.000000 0.795800 0.605600
vn 0.524500 0.795800 -0.302800
usemtl Material.001
s off
f 48/1/1 43/2/1 37/3/1
f 46/1/2 47/2/2 41/3/2
f 44/3/3 45/4/3 39/1/3
f 47/3/4 48/4/4 42/1/4
f 39/2/5 45/3/5 46/4/5
f 37/2/6 43/3/6 44/4/6
f 42/4/1 48/1/1 37/3/1
f 40/4/2 46/1/2 41/3/2
f 38/2/3 44/3/3 39/1/3
f 41/2/4 47/3/4 42/1/4
f 40/1/5 39/2/5 46/4/5
f 38/1/6 37/2/6 44/4/6
usemtl Material.001_NONE
f 3/5/7 4/6/7 2/7/7
f 5/8/8 6/9/8 4/9/8
f 7/10/9 8/7/9 6/6/9
f 9/11/10 10/12/10 8/7/10
f 6/13/11 10/14/11 2/15/11
f 1/10/12 2/7/12 12/12/12
f 11/16/13 12/17/13 10/18/13
f 17/19/14 18/20/14 11/21/14
f 24/22/12 19/23/12 13/10/12
f 13/24/14 14/25/14 3/13/14
f 15/26/14 16/27/14 7/28/14
f 18/29/14 13/24/14 1/15/14
f 16/27/14 17/19/14 9/30/14
f 14/25/14 15/25/14 5/13/14
f 29/31/15 30/32/15 24/33/15
f 22/23/10 23/22/10 17/34/10
f 20/35/8 21/35/8 15/8/8
f 23/36/13 24/33/13 18/37/13
f 21/38/9 22/23/9 16/10/9
f 19/23/7 20/38/7 14/39/7
f 28/40/16 34/41/16 35/42/16
f 21/26/17 27/43/17 28/44/17
f 25/45/18 26/46/18 20/25/18
f 24/29/19 30/47/19 25/45/19
f 28/44/20 29/48/20 23/19/20
f 20/35/21 26/49/21 27/49/21
f 39/50/22 40/51/22 34/52/22
f 26/49/23 32/53/23 33/53/23
f 29/31/24 35/54/24 36/55/24
f 33/56/25 34/41/25 28/40/25
f 31/41/26 32/56/26 26/57/26
f 36/42/27 31/41/27 25/40/27
f 31/45/28 37/58/28 38/59/28
f 42/47/29 37/58/29 31/45/29
f 40/51/30 41/60/30 35/61/30
f 38/59/31 39/59/31 33/62/31
f 41/60/32 42/63/32 36/64/32
f 52/65/11 53/66/11 47/67/11
f 57/68/9 58/69/9 52/69/9
f 50/8/11 51/8/11 45/25/11
f 47/67/11 53/66/11 54/70/11
f 45/26/11 51/71/11 52/65/11
f 49/72/11 50/8/11 44/25/11
f 48/73/11 54/74/11 49/72/11
f 56/8/33 62/75/33 63/75/33
f 55/69/7 56/68/7 50/68/7
f 60/76/12 55/69/12 49/69/12
f 58/69/10 59/76/10 53/76/10
f 50/13/8 56/13/8 57/13/8
f 59/77/13 60/78/13 54/78/13
f 61/79/34 67/45/34 68/80/34
f 65/81/35 66/82/35 60/70/35
f 63/83/36 64/84/36 58/65/36
f 55/72/37 61/79/37 62/75/37
f 66/85/38 61/79/38 55/72/38
f 58/65/39 64/84/39 65/81/39
f 72/86/14 70/45/14 68/80/14
f 66/85/40 72/86/40 67/45/40
f 70/87/41 71/88/41 65/81/41
f 62/75/42 68/80/42 69/80/42
f 65/81/43 71/88/43 72/89/43
f 69/90/44 70/87/44 64/84/44
f 1/10/7 3/5/7 2/7/7
f 3/8/8 5/8/8 4/9/8
f 5/5/9 7/10/9 6/6/9
f 7/10/10 9/11/10 8/7/10
f 2/15/11 4/13/11 6/13/11
f 6/13/11 8/45/11 10/14/11
f 10/14/11 12/14/11 2/15/11
f 11/11/12 1/10/12 12/12/12
f 9/91/13 11/16/13 10/18/13
f 9/30/14 17/19/14 11/21/14
f 18/34/12 24/22/12 13/10/12
f 1/15/14 13/24/14 3/13/14
f 5/92/14 15/26/14 7/28/14
f 11/14/14 18/29/14 1/15/14
f 7/28/14 16/27/14 9/30/14
f 3/13/14 14/25/14 5/13/14
f 23/36/15 29/31/15 24/33/15
f 16/10/10 22/23/10 17/34/10
f 14/8/8 20/35/8 15/8/8
f 17/93/13 23/36/13 18/37/13
f 15/39/9 21/38/9 16/10/9
f 13/10/7 19/23/7 14/39/7
f 29/94/16 28/40/16 35/42/16
f 22/27/17 21/26/17 28/44/17
f 19/24/18 25/45/18 20/25/18
f 19/24/19 24/29/19 25/45/19
f 22/27/20 28/44/20 23/19/20
f 21/35/21 20/35/21 27/49/21
f 33/95/22 39/50/22 34/52/22
f 27/49/23 26/49/23 33/53/23
f 30/32/24 29/31/24 36/55/24
f 27/57/25 33/56/25 28/40/25
f 25/40/26 31/41/26 26/57/26
f 30/94/27 36/42/27 25/40/27
f 32/62/28 31/45/28 38/59/28
f 36/96/29 42/47/29 31/45/29
f 34/52/30 40/51/30 35/61/30
f 32/62/31 38/59/31 33/62/31
f 35/61/32 41/60/32 36/64/32
f 46/97/11 52/65/11 47/67/11
f 51/68/9 57/68/9 52/69/9
f 44/25/11 50/8/11 45/25/11
f 48/98/11 47/67/11 54/70/11
f 46/97/11 45/26/11 52/65/11
f 43/99/11 49/72/11 44/25/11
f 43/99/11 48/73/11 49/72/11
f 57/8/33 56/8/33 63/75/33
f 49/69/7 55/69/7 50/68/7
f 54/76/12 60/76/12 49/69/12
f 52/69/10 58/69/10 53/76/10
f 51/13/8 50/13/8 57/13/8
f 53/77/13 59/77/13 54/78/13
f 62/75/34 61/79/34 68/80/34
f 59/66/35 65/81/35 60/70/35
f 57/71/36 63/83/36 58/65/36
f 56/8/37 55/72/37 62/75/37
f 60/74/38 66/85/38 55/72/38
f 59/66/39 58/65/39 65/81/39
f 68/80/14 67/45/14 72/86/14
f 72/86/14 71/86/14 70/45/14
f 70/45/14 69/80/14 68/80/14
f 61/79/40 66/85/40 67/45/40
f 64/84/41 70/87/41 65/81/41
f 63/75/42 62/75/42 69/80/42
f 66/82/43 65/81/43 72/89/43
f 63/83/44 69/90/44 64/84/44
