# Blender v2.76 (sub 0) OBJ File: 'my building1.blend'
# www.blender.org
mtllib Plane.002_Plane.003.mtl
o dvdbox1_Plane.002_Plane.003
v -1.832499 1.118900 -1.853467
v -1.838849 1.125249 -1.853578
v -1.972199 1.118900 -1.853467
v -1.832499 1.322069 -1.857014
v -1.838849 1.315720 -1.856903
v -1.965849 1.315720 -1.856903
v -1.972199 1.315720 -1.856903
v -1.972199 1.322069 -1.857014
v -1.965849 1.125249 -1.853578
v -1.965849 1.315720 -1.856903
v -1.965849 1.125249 -1.853578
v -1.972199 1.315720 -1.856903
v -1.838849 1.125249 -1.853578
v -1.972199 1.118900 -1.853467
v -1.972199 1.322069 -1.857014
v -1.832499 1.322069 -1.857014
v -1.838849 1.315720 -1.856903
v -1.832499 1.118900 -1.853467
v -1.838849 1.313304 -1.995312
v -1.965849 1.315720 -1.856903
v -1.965849 1.313304 -1.995312
v -1.838849 1.315720 -1.856903
v -1.838849 1.315720 -1.856903
v -1.838849 1.313304 -1.995312
v -1.965849 1.315720 -1.856903
v -1.965849 1.313304 -1.995312
v -1.838849 1.122833 -1.991987
v -1.838849 1.315720 -1.856903
v -1.838849 1.125249 -1.853578
v -1.838849 1.313304 -1.995312
v -1.838849 1.313304 -1.995312
v -1.838849 1.122833 -1.991987
v -1.838849 1.315720 -1.856903
v -1.838849 1.125249 -1.853578
v -1.838849 1.122833 -1.991987
v -1.965849 1.125249 -1.853578
v -1.965849 1.122833 -1.991987
v -1.838849 1.125249 -1.853578
v -1.838849 1.125249 -1.853578
v -1.838849 1.122833 -1.991987
v -1.965849 1.125249 -1.853578
v -1.965849 1.122833 -1.991987
v -1.965849 1.315720 -1.856903
v -1.965849 1.122833 -1.991987
v -1.965849 1.125249 -1.853578
v -1.965849 1.313304 -1.995312
v -1.965849 1.313304 -1.995312
v -1.965849 1.315720 -1.856903
v -1.965849 1.122833 -1.991987
v -1.965849 1.125249 -1.853578
v -1.965849 1.313304 -1.995312
v -1.972199 1.315720 -1.856903
v -1.972199 1.313304 -1.995312
v -1.965849 1.315720 -1.856903
v -1.965849 1.315720 -1.856903
v -1.965849 1.313304 -1.995312
v -1.972199 1.315720 -1.856903
v -1.972199 1.313304 -1.995312
v -1.972199 1.116484 -1.991876
v -1.972199 1.315720 -1.856903
v -1.972199 1.118900 -1.853467
v -1.972199 1.313304 -1.995312
v -1.972199 1.313304 -1.995312
v -1.972199 1.116484 -1.991876
v -1.972199 1.315720 -1.856903
v -1.972199 1.118900 -1.853467
v -1.832499 1.116484 -1.991876
v -1.972199 1.118900 -1.853467
v -1.972199 1.116484 -1.991876
v -1.832499 1.118900 -1.853467
v -1.832499 1.118900 -1.853467
v -1.832499 1.116484 -1.991876
v -1.972199 1.118900 -1.853467
v -1.972199 1.116484 -1.991876
v -1.832499 1.322069 -1.857014
v -1.832499 1.116484 -1.991876
v -1.832499 1.118900 -1.853467
v -1.832499 1.319653 -1.995423
v -1.832499 1.319653 -1.995423
v -1.832499 1.322069 -1.857014
v -1.832499 1.116484 -1.991876
v -1.832499 1.118900 -1.853467
v -1.832499 1.319653 -1.995423
v -1.972199 1.322069 -1.857014
v -1.972199 1.319653 -1.995423
v -1.832499 1.322069 -1.857014
v -1.832499 1.322069 -1.857014
v -1.832499 1.319653 -1.995423
v -1.972199 1.322069 -1.857014
v -1.972199 1.319653 -1.995423
v -1.832499 1.116484 -1.991876
v -1.838849 1.122833 -1.991987
v -1.972199 1.116484 -1.991876
v -1.832499 1.319653 -1.995423
v -1.838849 1.313304 -1.995312
v -1.965849 1.313304 -1.995312
v -1.972199 1.313304 -1.995312
v -1.972199 1.319653 -1.995423
v -1.965849 1.122833 -1.991987
v -1.965849 1.313304 -1.995312
v -1.965849 1.122833 -1.991987
v -1.972199 1.313304 -1.995312
v -1.838849 1.122833 -1.991987
v -1.972199 1.116484 -1.991876
v -1.972199 1.319653 -1.995423
v -1.832499 1.319653 -1.995423
v -1.838849 1.313304 -1.995312
v -1.832499 1.116484 -1.991876
v -1.972199 1.116440 -1.994416
v -1.972199 1.313304 -1.995312
v -1.972199 1.116484 -1.991876
v -1.972199 1.319609 -1.997962
v -1.972199 1.319653 -1.995423
v -1.972199 1.319653 -1.995423
v -1.972199 1.319609 -1.997962
v -1.972199 1.313304 -1.995312
v -1.972199 1.116440 -1.994416
v -1.972199 1.116484 -1.991876
v -1.972199 1.116440 -1.994416
v -1.832499 1.116484 -1.991876
v -1.972199 1.116484 -1.991876
v -1.832499 1.116440 -1.994416
v -1.832499 1.116440 -1.994416
v -1.972199 1.116440 -1.994416
v -1.832499 1.116484 -1.991876
v -1.972199 1.116484 -1.991876
v -1.832499 1.319653 -1.995423
v -1.832499 1.116440 -1.994416
v -1.832499 1.116484 -1.991876
v -1.832499 1.319609 -1.997962
v -1.832499 1.319609 -1.997962
v -1.832499 1.319653 -1.995423
v -1.832499 1.116440 -1.994416
v -1.832499 1.116484 -1.991876
v -1.972199 1.319609 -1.997962
v -1.832499 1.319653 -1.995423
v -1.972199 1.319653 -1.995423
v -1.832499 1.319609 -1.997962
v -1.832499 1.319609 -1.997962
v -1.972199 1.319609 -1.997962
v -1.832499 1.319653 -1.995423
v -1.972199 1.319653 -1.995423
v -1.972199 1.319609 -1.997962
v -1.832499 1.319653 -1.995423
v -1.972199 1.319653 -1.995423
v -1.832499 1.319609 -1.997962
v -1.832499 1.319609 -1.997962
v -1.972199 1.319609 -1.997962
v -1.832499 1.319653 -1.995423
v -1.972199 1.319653 -1.995423
v -1.832499 1.319609 -1.997962
v -1.972199 1.116440 -1.994416
v -1.832499 1.116440 -1.994416
v -1.972199 1.319609 -1.997962
v -1.972199 1.319609 -1.997962
v -1.832499 1.319609 -1.997962
v -1.972199 1.116440 -1.994416
v -1.832499 1.116440 -1.994416
v -1.966113 1.119914 -1.866647
v -1.838290 1.119914 -1.866647
v -1.838290 1.317658 -1.866647
v -1.966113 1.317658 -1.866647
vt 0.999900 0.000100
vt 0.999900 0.999900
vt 0.000100 0.999900
vt 0.000100 0.000100
vt 0.000000 0.000000
vt 1.000000 0.000000
vt 1.000000 1.000000
vn 0.000000 0.000000 1.000000
vn 0.000000 0.017500 0.999800
vn 0.000000 -0.017500 -0.999800
vn 0.000000 -0.999800 0.017500
vn 0.000000 0.999800 -0.017500
vn 1.000000 0.000000 0.000000
vn -1.000000 0.000000 0.000000
vn 0.000000 -0.999900 0.017200
vn 0.000000 -0.999800 0.017400
vn 0.000000 -0.999900 0.016900
vn 0.000000 0.999800 -0.017400
vn 0.000000 0.999900 -0.017200
vn 0.000000 0.999900 -0.016900
vn 0.000000 -0.999900 0.017300
vn 0.000000 0.999900 -0.017300
usemtl material_0.004
s 1
f 160/1/1 161/2/1 162/3/1
f 159/4/1 160/1/1 162/3/1
usemtl _0038_Orange
f 1/5/2 2/6/2 3/7/2
f 2/5/2 1/6/2 4/7/2
f 2/5/2 4/6/2 5/7/2
f 5/5/2 4/6/2 6/7/2
f 6/5/2 4/6/2 7/7/2
f 7/5/2 4/6/2 8/7/2
f 3/5/2 9/6/2 7/7/2
f 9/5/2 3/6/2 2/7/2
f 7/5/2 9/6/2 6/7/2
f 10/5/3 11/6/3 12/7/3
f 13/5/3 14/6/3 11/7/3
f 12/5/3 11/6/3 14/7/3
f 15/5/3 16/6/3 12/7/3
f 12/5/3 16/6/3 10/7/3
f 10/5/3 16/6/3 17/7/3
f 17/5/3 16/6/3 13/7/3
f 16/5/3 18/6/3 13/7/3
f 14/5/3 13/6/3 18/7/3
f 19/5/4 20/6/4 21/7/4
f 20/5/4 19/6/4 22/7/4
f 23/5/5 24/6/5 25/7/5
f 26/5/5 25/6/5 24/7/5
f 27/5/6 28/6/6 29/7/6
f 28/5/6 27/6/6 30/7/6
f 31/5/7 32/6/7 33/7/7
f 34/5/7 33/6/7 32/7/7
f 35/5/4 36/6/4 37/7/4
f 36/5/4 35/6/4 38/7/4
f 39/5/5 40/6/5 41/7/5
f 42/5/5 41/6/5 40/7/5
f 43/5/7 44/6/7 45/7/7
f 44/5/7 43/6/7 46/7/7
f 47/5/6 48/6/6 49/7/6
f 50/5/6 49/6/6 48/7/6
f 51/5/4 52/6/4 53/7/4
f 52/5/4 51/6/4 54/7/4
f 55/5/5 56/6/5 57/7/5
f 58/5/5 57/6/5 56/7/5
f 59/5/6 60/6/6 61/7/6
f 60/5/6 59/6/6 62/7/6
f 63/5/7 64/6/7 65/7/7
f 66/5/7 65/6/7 64/7/7
f 67/5/4 68/6/4 69/7/4
f 68/5/4 67/6/4 70/7/4
f 71/5/5 72/6/5 73/7/5
f 74/5/5 73/6/5 72/7/5
f 75/5/7 76/6/7 77/7/7
f 76/5/7 75/6/7 78/7/7
f 79/5/6 80/6/6 81/7/6
f 82/5/6 81/6/6 80/7/6
f 83/5/4 84/6/4 85/7/4
f 84/5/4 83/6/4 86/7/4
f 87/5/5 88/6/5 89/7/5
f 90/5/5 89/6/5 88/7/5
f 91/5/2 92/6/2 93/7/2
f 92/5/2 91/6/2 94/7/2
f 92/5/2 94/6/2 95/7/2
f 95/5/2 94/6/2 96/7/2
f 96/5/2 94/6/2 97/7/2
f 97/5/2 94/6/2 98/7/2
f 93/5/2 99/6/2 97/7/2
f 99/5/2 93/6/2 92/7/2
f 97/5/2 99/6/2 96/7/2
f 100/5/3 101/6/3 102/7/3
f 103/5/3 104/6/3 101/7/3
f 102/5/3 101/6/3 104/7/3
f 105/5/3 106/6/3 102/7/3
f 102/5/3 106/6/3 100/7/3
f 100/5/3 106/6/3 107/7/3
f 107/5/3 106/6/3 103/7/3
f 106/5/3 108/6/3 103/7/3
f 104/5/3 103/6/3 108/7/3
f 109/5/6 110/6/6 111/7/6
f 110/5/6 109/6/6 112/7/6
f 110/5/6 112/6/6 113/7/6
f 114/5/7 115/6/7 116/7/7
f 115/5/7 117/6/7 116/7/7
f 118/5/7 116/6/7 117/7/7
f 119/5/8 120/6/9 121/7/10
f 120/5/9 119/6/8 122/7/9
f 123/5/11 124/6/12 125/7/11
f 126/5/13 125/6/11 124/7/12
f 127/5/7 128/6/7 129/7/7
f 128/5/7 127/6/7 130/7/7
f 131/5/6 132/6/6 133/7/6
f 134/5/6 133/6/6 132/7/6
f 135/5/9 136/6/14 137/7/9
f 136/5/14 135/6/9 138/7/14
f 139/5/15 140/6/11 141/7/15
f 142/5/11 141/6/15 140/7/11
f 143/5/9 144/6/14 145/7/9
f 144/5/14 143/6/9 146/7/14
f 147/5/15 148/6/11 149/7/15
f 150/5/11 149/6/15 148/7/11
f 151/5/2 152/6/2 153/7/2
f 152/5/2 151/6/2 154/7/2
f 155/5/3 156/6/3 157/7/3
f 158/5/3 157/6/3 156/7/3
