# Blender v2.76 (sub 0) OBJ File: 'my building1.blend'
# www.blender.org
mtllib SketchUp.015_ID1983.mtl
o SketchUp.015_ID1983
v -5.167313 1.171039 -0.010000
v -5.421312 1.171039 -0.010000
v -5.167313 0.917039 -0.010000
v -5.421312 0.917039 -0.010000
v -5.421312 1.171039 -0.010000
v -5.167313 0.917039 -0.010000
v -5.421312 0.917039 -0.010000
v -5.167313 1.171039 -0.010000
v -5.421312 0.917039 -0.010000
v -5.421312 1.171039 -0.010000
v -5.167313 1.171039 -0.010000
v -5.167313 0.917039 -0.010000
v -5.421312 0.917039 -0.010000
v -5.421312 1.171039 -0.010000
v -5.421312 0.917039 0.000000
v -5.421312 1.171039 0.000000
v -5.167313 1.171039 -0.010000
v -5.167313 1.171039 0.000000
v -5.421312 1.171039 -0.010000
v -5.421312 1.171039 0.000000
v -5.167313 0.917039 -0.010000
v -5.421312 0.917039 -0.010000
v -5.167313 0.917039 0.000000
v -5.421312 0.917039 0.000000
v -5.167313 1.171039 -0.010000
v -5.167313 0.917039 -0.010000
v -5.167313 1.171039 0.000000
v -5.167313 0.917039 0.000000
v -5.421312 1.171039 -0.010000
v -5.421312 0.917039 0.000000
v -5.421312 1.171039 0.000000
v -5.421312 0.917039 -0.010000
v -5.167313 1.171039 0.000000
v -5.421312 1.171039 -0.010000
v -5.421312 1.171039 0.000000
v -5.167313 1.171039 -0.010000
v -5.421312 0.917039 -0.010000
v -5.167313 0.917039 0.000000
v -5.421312 0.917039 0.000000
v -5.167313 0.917039 -0.010000
v -5.167313 0.917039 -0.010000
v -5.167313 1.171039 0.000000
v -5.167313 0.917039 0.000000
v -5.167313 1.171039 -0.010000
v -5.421312 0.917039 0.000000
v -5.421312 1.171039 0.000000
v -5.421312 1.171039 -0.010000
v -5.421312 0.917039 -0.010000
v -5.167313 1.171039 0.000000
v -5.167313 1.171039 -0.010000
v -5.167313 0.917039 0.000000
v -5.167313 0.917039 -0.010000
vt 0.000000 0.000000
vt 1.000000 0.000000
vt 1.000000 1.000000
vt -1.000000 -1.000000
vt 0.000000 -1.000000
vt -1.000000 0.000000
vn 0.000000 -0.000000 1.000000
vn 1.000000 0.000000 0.000000
vn 0.000000 -1.000000 0.000000
vn 0.000000 1.000000 0.000000
vn -1.000000 0.000000 0.000000
vn 0.000000 0.000000 -1.000000
usemtl material_0
s off
f 1/1/1 2/1/1 3/1/1
f 4/1/1 3/1/1 2/1/1
f 13/1/2 14/2/2 15/3/2
f 16/1/2 15/2/2 14/3/2
f 17/1/3 18/2/3 19/3/3
f 20/1/3 19/2/3 18/3/3
f 21/1/4 22/2/4 23/3/4
f 24/1/4 23/2/4 22/3/4
f 25/1/5 26/2/5 27/3/5
f 28/1/5 27/2/5 26/3/5
usemtl __auto_
f 29/1/5 30/2/5 31/3/5
f 30/1/5 29/2/5 32/3/5
f 33/1/4 34/2/4 35/3/4
f 34/1/4 33/2/4 36/3/4
f 37/1/3 38/2/3 39/3/3
f 38/1/3 37/2/3 40/3/3
f 41/1/2 42/2/2 43/3/2
f 42/1/2 41/2/2 44/3/2
usemtl AlbumArt-Cafe
f 5/1/6 6/4/6 7/5/6
f 6/4/6 5/1/6 8/6/6
l 10 11
l 9 12
l 12 11
l 9 10
l 45 51
l 51 49
l 45 46
l 48 47
l 48 52
l 46 47
l 49 50
l 46 49
l 51 52
l 45 48
l 47 50
l 52 50
