# Blender v2.76 (sub 0) OBJ File: 'my building1.blend'
# www.blender.org
mtllib SketchUp.011_ID112_SketchUp.011_ID112_Steve_Edges.mtl
o SketchUp.011_ID112_SketchUp.011_ID112_Steve_Edges
v 0.825673 1.117600 -1.979658
v 0.825673 1.041400 -1.951717
v 0.825673 0.558800 -1.979657
v 0.825673 1.117600 -1.420857
v 0.825673 0.558800 -1.958752
v 0.825673 1.041400 -1.448797
v 0.825673 0.558800 -1.448797
v 0.825673 0.558800 -1.420857
v 0.825673 0.558800 -1.951717
v 0.825673 1.041400 -1.951717
v 0.825673 0.558800 -1.958752
v 0.825673 0.558800 -1.951717
v 0.825673 0.558800 -1.420857
v 0.825673 1.117600 -1.420857
v 0.825673 0.558800 -1.448797
v 0.825673 1.041400 -1.448797
v 0.825673 0.558800 -1.979657
v 0.825673 1.117600 -1.979658
v 0.769793 1.041400 -1.448797
v 0.825673 0.558800 -1.448797
v 0.769793 0.558800 -1.448797
v 0.825673 1.041400 -1.448797
v 0.825673 1.041400 -1.448797
v 0.769793 1.041400 -1.448797
v 0.825673 0.558800 -1.448797
v 0.769793 0.558800 -1.448797
v 0.266873 1.041400 -1.448797
v 0.322753 1.041400 -1.951717
v 0.322753 1.041400 -1.448797
v 0.266873 1.041400 -1.951717
v 0.322753 1.041400 -1.420857
v 0.769793 1.041400 -1.448797
v 0.769793 1.041400 -1.420857
v 0.769793 1.041400 -1.951717
v 0.769793 1.041400 -1.979658
v 0.322753 1.041400 -1.979658
v 0.825673 1.041400 -1.951717
v 0.825673 1.041400 -1.448797
v 0.769793 1.041400 -1.951717
v 0.769793 1.041400 -1.448797
v 0.825673 1.041400 -1.951717
v 0.825673 1.041400 -1.448797
v 0.322753 1.041400 -1.979658
v 0.322753 1.041400 -1.951717
v 0.769793 1.041400 -1.979658
v 0.322753 1.041400 -1.448797
v 0.322753 1.041400 -1.420857
v 0.769793 1.041400 -1.420857
v 0.266873 1.041400 -1.951717
v 0.266873 1.041400 -1.448797
v 0.825673 1.041400 -1.951717
v 0.769793 0.558800 -1.951717
v 0.825673 0.558800 -1.951717
v 0.769793 1.041400 -1.951717
v 0.769793 1.041400 -1.951717
v 0.825673 1.041400 -1.951717
v 0.769793 0.558800 -1.951717
v 0.825673 0.558800 -1.951717
v 0.266873 1.117600 -1.979658
v 0.322753 0.558800 -1.979657
v 0.266873 0.558800 -1.979657
v 0.322753 1.041400 -1.979658
v 0.769793 1.041400 -1.979658
v 0.825673 0.558800 -1.979657
v 0.769793 0.558800 -1.979657
v 0.825673 1.117600 -1.979658
v 0.266873 1.117600 -1.979658
v 0.769793 1.041400 -1.979658
v 0.825673 1.117600 -1.979658
v 0.825673 0.558800 -1.979657
v 0.769793 0.558800 -1.979657
v 0.322753 1.041400 -1.979658
v 0.322753 0.558800 -1.979657
v 0.266873 0.558800 -1.979657
v 0.825673 1.117600 -1.979658
v 0.266873 1.117600 -1.420857
v 0.825673 1.117600 -1.420857
v 0.266873 1.117600 -1.979658
v 0.266873 1.117600 -1.979658
v 0.825673 1.117600 -1.979658
v 0.266873 1.117600 -1.420857
v 0.825673 1.117600 -1.420857
v 0.825673 1.117600 -1.420857
v 0.769793 0.558800 -1.420857
v 0.825673 0.558800 -1.420857
v 0.769793 1.041400 -1.420857
v 0.322753 1.041400 -1.420857
v 0.266873 0.558800 -1.420857
v 0.322753 0.558800 -1.420857
v 0.266873 1.117600 -1.420857
v 0.825673 1.117600 -1.420857
v 0.322753 1.041400 -1.420857
v 0.266873 1.117600 -1.420857
v 0.266873 0.558800 -1.420857
v 0.322753 0.558800 -1.420857
v 0.769793 1.041400 -1.420857
v 0.769793 0.558800 -1.420857
v 0.825673 0.558800 -1.420857
v 0.769793 0.558800 -1.420857
v 0.769793 1.041400 -1.448797
v 0.769793 0.558800 -1.448797
v 0.769793 1.041400 -1.420857
v 0.769793 1.041400 -1.420857
v 0.769793 0.558800 -1.420857
v 0.769793 1.041400 -1.448797
v 0.769793 0.558800 -1.448797
v 0.266873 0.558800 -1.420857
v 0.266873 1.041400 -1.448797
v 0.266873 0.558800 -1.448797
v 0.266873 0.558800 -1.958752
v 0.266873 1.117600 -1.979658
v 0.266873 0.558800 -1.979657
v 0.266873 1.041400 -1.951717
v 0.266873 1.117600 -1.420857
v 0.266873 0.558800 -1.951717
v 0.266873 0.558800 -1.420857
v 0.266873 1.041400 -1.448797
v 0.266873 1.117600 -1.420857
v 0.266873 1.041400 -1.951717
v 0.266873 0.558800 -1.951717
v 0.266873 0.558800 -1.958752
v 0.266873 1.117600 -1.979658
v 0.266873 0.558800 -1.979657
v 0.266873 0.558800 -1.448797
v 0.322753 1.041400 -1.951717
v 0.266873 0.558800 -1.951717
v 0.322753 0.558800 -1.951717
v 0.266873 1.041400 -1.951717
v 0.266873 1.041400 -1.951717
v 0.322753 1.041400 -1.951717
v 0.266873 0.558800 -1.951717
v 0.322753 0.558800 -1.951717
v 0.322753 1.041400 -1.951717
v 0.322753 0.558800 -1.979657
v 0.322753 1.041400 -1.979658
v 0.322753 0.558800 -1.958752
v 0.322753 0.558800 -1.951717
v 0.322753 0.558800 -1.951717
v 0.322753 1.041400 -1.951717
v 0.322753 0.558800 -1.958752
v 0.322753 0.558800 -1.979657
v 0.322753 1.041400 -1.979658
v 0.769793 0.558800 -1.958752
v 0.769793 1.041400 -1.979658
v 0.769793 0.558800 -1.979657
v 0.769793 1.041400 -1.951717
v 0.769793 0.558800 -1.951717
v 0.769793 0.558800 -1.951717
v 0.769793 0.558800 -1.958752
v 0.769793 1.041400 -1.951717
v 0.769793 1.041400 -1.979658
v 0.769793 0.558800 -1.979657
v 0.322753 1.041400 -1.420857
v 0.322753 0.558800 -1.448797
v 0.322753 1.041400 -1.448797
v 0.322753 0.558800 -1.420857
v 0.322753 0.558800 -1.420857
v 0.322753 1.041400 -1.420857
v 0.322753 0.558800 -1.448797
v 0.322753 1.041400 -1.448797
v 0.266873 1.041400 -1.448797
v 0.322753 0.558800 -1.448797
v 0.266873 0.558800 -1.448797
v 0.322753 1.041400 -1.448797
v 0.322753 1.041400 -1.448797
v 0.266873 1.041400 -1.448797
v 0.322753 0.558800 -1.448797
v 0.266873 0.558800 -1.448797
vt 0.000000 0.000000
vt 1.000000 0.000000
vt 1.000000 1.000000
vn 1.000000 -0.000000 0.000000
vn -1.000000 0.000000 0.000000
vn 0.000000 0.000000 -1.000000
vn 0.000000 0.000000 1.000000
vn 0.000000 -1.000000 -0.000000
vn -0.000000 1.000000 0.000000
usemtl _0137_Black
s 1
f 1/1/1 2/2/1 3/3/1
f 2/1/1 1/2/1 4/3/1
f 3/1/1 2/2/1 5/3/1
f 2/1/1 4/2/1 6/3/1
f 6/1/1 4/2/1 7/3/1
f 7/1/1 4/2/1 8/3/1
f 9/1/1 5/2/1 2/3/1
f 10/1/2 11/2/2 12/3/2
f 13/1/2 14/2/2 15/3/2
f 15/1/2 14/2/2 16/3/2
f 16/1/2 14/2/2 10/3/2
f 11/1/2 10/2/2 17/3/2
f 14/1/2 18/2/2 10/3/2
f 17/1/2 10/2/2 18/3/2
f 19/1/3 20/2/3 21/3/3
f 20/1/3 19/2/3 22/3/3
f 23/1/4 24/2/4 25/3/4
f 26/1/4 25/2/4 24/3/4
f 27/1/5 28/2/5 29/3/5
f 28/1/5 27/2/5 30/3/5
f 31/1/5 32/2/5 33/3/5
f 32/1/5 31/2/5 34/3/5
f 34/1/5 31/2/5 35/3/5
f 35/1/5 31/2/5 29/3/5
f 35/1/5 29/2/5 28/3/5
f 35/1/5 28/2/5 36/3/5
f 32/1/5 37/2/5 38/3/5
f 37/1/5 32/2/5 34/3/5
f 39/1/6 40/2/6 41/3/6
f 42/1/6 41/2/6 40/3/6
f 43/1/6 44/2/6 45/3/6
f 44/1/6 46/2/6 45/3/6
f 46/1/6 47/2/6 45/3/6
f 45/1/6 47/2/6 39/3/6
f 39/1/6 47/2/6 40/3/6
f 48/1/6 40/2/6 47/3/6
f 49/1/6 50/2/6 44/3/6
f 46/1/6 44/2/6 50/3/6
f 51/1/4 52/2/4 53/3/4
f 52/1/4 51/2/4 54/3/4
f 55/1/3 56/2/3 57/3/3
f 58/1/3 57/2/3 56/3/3
f 59/1/3 60/2/3 61/3/3
f 60/1/3 59/2/3 62/3/3
f 62/1/3 59/2/3 63/3/3
f 63/1/3 64/2/3 65/3/3
f 64/1/3 63/2/3 66/3/3
f 66/1/3 63/2/3 59/3/3
f 67/1/4 68/2/4 69/3/4
f 69/1/4 68/2/4 70/3/4
f 71/1/4 70/2/4 68/3/4
f 68/1/4 67/2/4 72/3/4
f 72/1/4 67/2/4 73/3/4
f 74/1/4 73/2/4 67/3/4
f 75/1/6 76/2/6 77/3/6
f 76/1/6 75/2/6 78/3/6
f 79/1/5 80/2/5 81/3/5
f 82/1/5 81/2/5 80/3/5
f 83/1/4 84/2/4 85/3/4
f 84/1/4 83/2/4 86/3/4
f 86/1/4 83/2/4 87/3/4
f 87/1/4 88/2/4 89/3/4
f 88/1/4 87/2/4 90/3/4
f 90/1/4 87/2/4 83/3/4
f 91/1/3 92/2/3 93/3/3
f 93/1/3 92/2/3 94/3/3
f 95/1/3 94/2/3 92/3/3
f 92/1/3 91/2/3 96/3/3
f 96/1/3 91/2/3 97/3/3
f 98/1/3 97/2/3 91/3/3
f 99/1/2 100/2/2 101/3/2
f 100/1/2 99/2/2 102/3/2
f 103/1/1 104/2/1 105/3/1
f 106/1/1 105/2/1 104/3/1
f 107/1/2 108/2/2 109/3/2
f 110/1/2 111/2/2 112/3/2
f 111/1/2 110/2/2 113/3/2
f 111/1/2 113/2/2 114/3/2
f 113/1/2 110/2/2 115/3/2
f 114/1/2 113/2/2 108/3/2
f 114/1/2 108/2/2 107/3/2
f 116/1/1 117/2/1 118/3/1
f 117/1/1 119/2/1 118/3/1
f 120/1/1 121/2/1 119/3/1
f 118/1/1 119/2/1 122/3/1
f 119/1/1 121/2/1 122/3/1
f 123/1/1 122/2/1 121/3/1
f 124/1/1 117/2/1 116/3/1
f 125/1/4 126/2/4 127/3/4
f 126/1/4 125/2/4 128/3/4
f 129/1/3 130/2/3 131/3/3
f 132/1/3 131/2/3 130/3/3
f 133/1/1 134/2/1 135/3/1
f 134/1/1 133/2/1 136/3/1
f 136/1/1 133/2/1 137/3/1
f 138/1/2 139/2/2 140/3/2
f 140/1/2 139/2/2 141/3/2
f 142/1/2 141/2/2 139/3/2
f 143/1/2 144/2/2 145/3/2
f 144/1/2 143/2/2 146/3/2
f 146/1/2 143/2/2 147/3/2
f 148/1/1 149/2/1 150/3/1
f 150/1/1 149/2/1 151/3/1
f 152/1/1 151/2/1 149/3/1
f 153/1/1 154/2/1 155/3/1
f 154/1/1 153/2/1 156/3/1
f 157/1/2 158/2/2 159/3/2
f 160/1/2 159/2/2 158/3/2
f 161/1/3 162/2/3 163/3/3
f 162/1/3 161/2/3 164/3/3
f 165/1/4 166/2/4 167/3/4
f 168/1/4 167/2/4 166/3/4
