# Blender v2.76 (sub 0) OBJ File: 'my building1.blend'
# www.blender.org
mtllib SketchUp.034_ID285_SketchUp.034_ID285_material_0.002.mtl
o SketchUp.034_ID285_SketchUp.034_ID285_material_0.002
v -0.633612 0.690710 1.925200
v -0.633612 0.690710 1.924999
v -0.632708 0.690710 1.925200
v -0.632708 0.690710 1.924999
v -0.633120 0.691010 1.924999
v -0.633120 0.691010 1.925200
v -0.632708 0.690710 1.924999
v -0.632708 0.690710 1.925200
v -0.632708 0.690710 1.924999
v -0.633612 0.690710 1.924999
v -0.633120 0.691010 1.924999
v -0.633612 0.690710 1.924999
v -0.633612 0.690710 1.925200
v -0.633120 0.691010 1.924999
v -0.633120 0.691010 1.925200
vt 0.000000 0.000000
vt 1.000000 0.000000
vt 1.000000 1.000000
vn 0.000000 -1.000000 0.000000
vn 0.587400 0.809300 0.000000
vn 0.587700 0.809000 -0.000000
vn 0.588700 0.808300 0.000000
vn 0.000000 0.000000 -1.000000
vn -0.519300 0.854600 -0.000000
vn -0.519700 0.854400 0.000000
vn -0.519700 0.854300 0.000000
vn -0.520100 0.854100 -0.000000
usemtl material_0.004_NONE
s 1
f 1/1/1 2/2/1 3/3/1
f 4/1/1 3/2/1 2/3/1
f 5/1/2 6/2/3 7/3/3
f 8/1/4 7/2/3 6/3/3
f 9/1/5 10/2/5 11/3/5
f 12/1/6 13/2/7 14/3/8
f 15/1/9 14/2/8 13/3/7
