# Blender v2.76 (sub 0) OBJ File: 'room.blend'
# www.blender.org
mtllib Cube.009.mtl
o Cube.011_Cube.009
v -1.000000 0.000000 -0.700000
v -1.000000 0.400000 -0.700000
v -1.000000 0.000000 -1.000000
v -1.000000 0.400000 -1.000000
v -0.850000 0.000000 -0.700000
v -0.850000 0.400000 -0.700000
v -0.850000 0.000000 -1.000000
v -0.850000 0.400000 -1.000000
vt 1.000000 0.000000
vt 1.000000 1.000000
vt -0.000000 1.000000
vt 0.000000 0.000000
vn 0.000000 0.000000 -1.000000
vn 1.000000 0.000000 0.000000
vn 0.000000 0.000000 1.000000
vn 0.000000 1.000000 0.000000
vn 0.000000 -1.000000 0.000000
usemtl Material
s off
f 8/1/1 7/2/1 3/3/1
f 6/3/2 5/4/2 7/1/2
f 2/1/3 1/2/3 5/3/3
f 6/1/4 8/2/4 4/3/4
f 7/1/5 5/2/5 1/3/5
f 4/4/1 8/1/1 3/3/1
f 8/2/2 6/3/2 7/1/2
f 6/4/3 2/1/3 5/3/3
f 2/4/4 6/1/4 4/3/4
f 3/4/5 7/1/5 1/3/5
