# Blender v2.76 (sub 0) OBJ File: 'room.blend'
# www.blender.org
mtllib Cube.030.mtl
o Cube.006_Cube.030
v -1.330000 1.420000 -0.630000
v -1.350000 1.750000 -0.630000
v -1.350000 1.420000 -1.000000
v -1.350000 1.750000 -1.000000
v -1.330000 1.750000 -0.630000
v -1.350000 1.420000 -0.630000
v -1.330000 1.420000 -1.000000
v -1.330000 1.750000 -1.000000
v -0.960000 1.750000 -1.000000
v -0.960000 1.750000 -0.630000
v -0.960000 1.790000 -1.000000
v -0.960000 1.790000 -0.630000
v -1.720000 1.750000 -0.630000
v -1.720000 1.750000 -1.000000
v -1.720000 1.790000 -0.630000
v -1.720000 1.790000 -1.000000
v -0.960000 1.420000 -0.630000
v -1.000000 1.750000 -0.630000
v -1.000000 1.420000 -1.000000
v -1.000000 1.750000 -1.000000
v -0.960000 1.750000 -0.630000
v -1.000000 1.420000 -0.630000
v -0.960000 1.420000 -1.000000
v -0.960000 1.750000 -1.000000
v -1.680000 1.420000 -0.630000
v -1.720000 1.750000 -0.630000
v -1.720000 1.420000 -1.000000
v -1.720000 1.750000 -1.000000
v -1.680000 1.750000 -0.630000
v -1.720000 1.420000 -0.630000
v -1.680000 1.420000 -1.000000
v -1.680000 1.750000 -1.000000
v -1.330000 1.070000 -0.630000
v -1.350000 1.400000 -0.630000
v -1.350000 1.070000 -1.000000
v -1.350000 1.400000 -1.000000
v -1.330000 1.400000 -0.630000
v -1.350000 1.070000 -0.630000
v -1.330000 1.070000 -1.000000
v -1.330000 1.400000 -1.000000
v -0.960000 1.400000 -1.000000
v -0.960000 1.400000 -0.630000
v -0.960000 1.420000 -1.000000
v -0.960000 1.420000 -0.630000
v -1.720000 1.400000 -0.630000
v -1.720000 1.400000 -1.000000
v -1.720000 1.420000 -0.630000
v -1.720000 1.420000 -1.000000
v -0.960000 1.070000 -0.630000
v -1.000000 1.400000 -0.630000
v -1.000000 1.070000 -1.000000
v -1.000000 1.400000 -1.000000
v -0.960000 1.400000 -0.630000
v -1.000000 1.070000 -0.630000
v -0.960000 1.070000 -1.000000
v -0.960000 1.400000 -1.000000
v -1.680000 1.070000 -0.630000
v -1.720000 1.400000 -0.630000
v -1.720000 1.070000 -1.000000
v -1.720000 1.400000 -1.000000
v -1.680000 1.400000 -0.630000
v -1.720000 1.070000 -0.630000
v -1.680000 1.070000 -1.000000
v -1.680000 1.400000 -1.000000
v -1.330000 0.720000 -0.630000
v -1.350000 1.050000 -0.630000
v -1.350000 0.720000 -1.000000
v -1.350000 1.050000 -1.000000
v -1.330000 1.050000 -0.630000
v -1.350000 0.720000 -0.630000
v -1.330000 0.720000 -1.000000
v -1.330000 1.050000 -1.000000
v -0.960000 1.050000 -1.000000
v -0.960000 1.050000 -0.630000
v -0.960000 1.070000 -1.000000
v -0.960000 1.070000 -0.630000
v -1.720000 1.050000 -0.630000
v -1.720000 1.050000 -1.000000
v -1.720000 1.070000 -0.630000
v -1.720000 1.070000 -1.000000
v -0.960000 0.720000 -0.630000
v -1.000000 1.050000 -0.630000
v -1.000000 0.720000 -1.000000
v -1.000000 1.050000 -1.000000
v -0.960000 1.050000 -0.630000
v -1.000000 0.720000 -0.630000
v -0.960000 0.720000 -1.000000
v -0.960000 1.050000 -1.000000
v -1.680000 0.720000 -0.630000
v -1.720000 1.050000 -0.630000
v -1.720000 0.720000 -1.000000
v -1.720000 1.050000 -1.000000
v -1.680000 1.050000 -0.630000
v -1.720000 0.720000 -0.630000
v -1.680000 0.720000 -1.000000
v -1.680000 1.050000 -1.000000
v -1.330000 0.370000 -0.630000
v -1.350000 0.700000 -0.630000
v -1.350000 0.370000 -1.000000
v -1.350000 0.700000 -1.000000
v -1.330000 0.700000 -0.630000
v -1.350000 0.370000 -0.630000
v -1.330000 0.370000 -1.000000
v -1.330000 0.700000 -1.000000
v -0.960000 0.700000 -1.000000
v -0.960000 0.700000 -0.630000
v -0.960000 0.720000 -1.000000
v -0.960000 0.720000 -0.630000
v -1.720000 0.700000 -0.630000
v -1.720000 0.700000 -1.000000
v -1.720000 0.720000 -0.630000
v -1.720000 0.720000 -1.000000
v -0.960000 0.370000 -0.630000
v -1.000000 0.700000 -0.630000
v -1.000000 0.370000 -1.000000
v -1.000000 0.700000 -1.000000
v -0.960000 0.700000 -0.630000
v -1.000000 0.370000 -0.630000
v -0.960000 0.370000 -1.000000
v -0.960000 0.700000 -1.000000
v -1.680000 0.370000 -0.630000
v -1.720000 0.700000 -0.630000
v -1.720000 0.370000 -1.000000
v -1.720000 0.700000 -1.000000
v -1.680000 0.700000 -0.630000
v -1.720000 0.370000 -0.630000
v -1.680000 0.370000 -1.000000
v -1.680000 0.700000 -1.000000
v -0.960000 0.330000 -1.000000
v -0.960000 0.330000 -0.630000
v -0.960000 0.370000 -1.000000
v -0.960000 0.370000 -0.630000
v -1.720000 0.330000 -0.630000
v -1.720000 0.330000 -1.000000
v -1.720000 0.370000 -0.630000
v -1.720000 0.370000 -1.000000
vn -1.000000 0.000000 0.000000
vn 0.000000 1.000000 0.000000
vn 1.000000 0.000000 0.000000
vn 0.000000 0.000000 1.000000
vn 0.000000 0.000000 -1.000000
vn 0.000000 -1.000000 0.000000
usemtl 1.001
s off
f 6//1 2//1 4//1
f 15//2 12//2 11//2
f 5//3 1//3 7//3
f 2//4 5//4 15//4
f 4//5 11//5 8//5
f 22//1 18//1 20//1
f 24//5 23//5 19//5
f 22//4 17//4 21//4
f 32//5 31//5 27//5
f 29//3 25//3 31//3
f 30//4 25//4 29//4
f 38//1 34//1 36//1
f 37//3 33//3 39//3
f 34//4 37//4 47//4
f 36//5 43//5 40//5
f 54//1 50//1 52//1
f 56//5 55//5 51//5
f 54//4 49//4 53//4
f 64//5 63//5 59//5
f 61//3 57//3 63//3
f 62//4 57//4 61//4
f 70//1 66//1 68//1
f 69//3 65//3 71//3
f 66//4 69//4 79//4
f 29//6 32//6 20//6
f 68//5 75//5 72//5
f 86//1 82//1 84//1
f 88//5 87//5 83//5
f 86//4 81//4 85//4
f 96//5 95//5 91//5
f 93//3 89//3 95//3
f 94//4 89//4 93//4
f 102//1 98//1 100//1
f 101//3 97//3 103//3
f 98//4 101//4 111//4
f 130//3 129//3 11//3
f 100//5 107//5 104//5
f 118//1 114//1 116//1
f 120//5 119//5 115//5
f 118//4 113//4 117//4
f 128//5 127//5 123//5
f 125//3 121//3 127//3
f 126//4 121//4 125//4
f 132//4 135//4 133//4
f 134//5 136//5 131//5
f 130//6 133//6 134//6
f 134//1 133//1 15//1
f 31//2 25//2 22//2
f 61//6 64//6 52//6
f 93//6 96//6 84//6
f 125//6 128//6 116//6
f 95//2 89//2 86//2
f 63//2 57//2 54//2
f 127//2 121//2 118//2
f 3//1 6//1 4//1
f 16//2 15//2 11//2
f 8//3 5//3 7//3
f 2//4 6//4 1//4
f 15//4 13//4 2//4
f 10//4 12//4 5//4
f 2//4 1//4 5//4
f 5//4 12//4 15//4
f 4//5 14//5 16//5
f 7//5 3//5 4//5
f 11//5 9//5 8//5
f 8//5 7//5 4//5
f 4//5 16//5 11//5
f 19//1 22//1 20//1
f 20//5 24//5 19//5
f 18//4 22//4 21//4
f 28//5 32//5 27//5
f 32//3 29//3 31//3
f 26//4 30//4 29//4
f 35//1 38//1 36//1
f 40//3 37//3 39//3
f 34//4 38//4 33//4
f 47//4 45//4 34//4
f 42//4 44//4 37//4
f 34//4 33//4 37//4
f 37//4 44//4 47//4
f 36//5 46//5 48//5
f 39//5 35//5 36//5
f 43//5 41//5 40//5
f 40//5 39//5 36//5
f 36//5 48//5 43//5
f 51//1 54//1 52//1
f 52//5 56//5 51//5
f 50//4 54//4 53//4
f 60//5 64//5 59//5
f 64//3 61//3 63//3
f 58//4 62//4 61//4
f 67//1 70//1 68//1
f 72//3 69//3 71//3
f 66//4 70//4 65//4
f 79//4 77//4 66//4
f 74//4 76//4 69//4
f 66//4 65//4 69//4
f 69//4 76//4 79//4
f 18//6 29//6 20//6
f 68//5 78//5 80//5
f 71//5 67//5 68//5
f 75//5 73//5 72//5
f 72//5 71//5 68//5
f 68//5 80//5 75//5
f 83//1 86//1 84//1
f 84//5 88//5 83//5
f 82//4 86//4 85//4
f 92//5 96//5 91//5
f 96//3 93//3 95//3
f 90//4 94//4 93//4
f 99//1 102//1 100//1
f 104//3 101//3 103//3
f 98//4 102//4 97//4
f 111//4 109//4 98//4
f 106//4 108//4 101//4
f 98//4 97//4 101//4
f 101//4 108//4 111//4
f 12//3 130//3 11//3
f 100//5 110//5 112//5
f 103//5 99//5 100//5
f 107//5 105//5 104//5
f 104//5 103//5 100//5
f 100//5 112//5 107//5
f 115//1 118//1 116//1
f 116//5 120//5 115//5
f 114//4 118//4 117//4
f 124//5 128//5 123//5
f 128//3 125//3 127//3
f 122//4 126//4 125//4
f 130//4 132//4 133//4
f 129//5 134//5 131//5
f 129//6 130//6 134//6
f 16//1 134//1 15//1
f 19//2 31//2 22//2
f 50//6 61//6 52//6
f 82//6 93//6 84//6
f 114//6 125//6 116//6
f 83//2 95//2 86//2
f 51//2 63//2 54//2
f 115//2 127//2 118//2
l 12 132
l 11 131
