# Blender v2.76 (sub 0) OBJ File: 'room.blend'
# www.blender.org
mtllib Cube.003.mtl
o LACK_Cube.003
v -0.550000 -0.550000 0.550000
v -0.550000 -0.600000 0.000000
v -0.550000 -0.550000 0.000000
v 0.000000 -0.600000 0.550000
v 0.000000 -0.550000 0.550000
v 0.000000 -0.600000 0.000000
v 0.000000 -0.550000 0.000000
v -0.550000 -0.600000 0.550000
v -0.550000 -0.600000 0.550000
v 0.000000 -0.600000 0.550000
v -0.050000 -1.000000 0.500000
v -0.050000 -1.000000 0.550000
v 0.000000 -1.000000 0.500000
v 0.000000 -1.000000 0.550000
v -0.050000 -0.600000 0.500000
v -0.050000 -0.600000 0.550000
v 0.000000 -0.600000 0.500000
v 0.000000 -0.600000 0.550000
v -0.550000 -1.000000 0.500000
v -0.550000 -1.000000 0.550000
v -0.500000 -1.000000 0.500000
v -0.500000 -1.000000 0.550000
v -0.550000 -0.600000 0.500000
v -0.550000 -0.600000 0.550000
v -0.500000 -0.600000 0.500000
v -0.500000 -0.600000 0.550000
v -0.550000 -1.000000 0.000000
v -0.550000 -1.000000 0.050000
v -0.500000 -1.000000 0.000000
v -0.500000 -1.000000 0.050000
v -0.550000 -0.600000 0.000000
v -0.550000 -0.600000 0.050000
v -0.500000 -0.600000 0.000000
v -0.500000 -0.600000 0.050000
v -0.050000 -1.000000 0.000000
v -0.050000 -1.000000 0.050000
v 0.000000 -1.000000 0.000000
v 0.000000 -1.000000 0.050000
v -0.050000 -0.600000 0.000000
v -0.050000 -0.600000 0.050000
v 0.000000 -0.600000 0.000000
v 0.000000 -0.600000 0.050000
vn 0.000000 0.000000 -1.000000
vn 1.000000 0.000000 0.000000
vn 0.000000 1.000000 0.000000
vn 0.000000 -1.000000 0.000000
vn 0.000000 0.000000 1.000000
vn -1.000000 0.000000 0.000000
usemtl 1.001
s off
f 7//1 6//1 2//1
f 5//2 4//2 6//2
f 7//3 3//3 1//3
f 11//4 13//4 14//4
f 18//5 16//5 12//5
f 15//1 17//1 13//1
f 17//2 18//2 14//2
f 16//6 15//6 11//6
f 10//5 5//5 1//5
f 3//6 2//6 9//6
f 19//4 21//4 22//4
f 6//4 10//4 9//4
f 26//5 24//5 20//5
f 23//1 25//1 21//1
f 25//2 26//2 22//2
f 24//6 23//6 19//6
f 27//4 29//4 30//4
f 34//5 32//5 28//5
f 31//1 33//1 29//1
f 33//2 34//2 30//2
f 32//6 31//6 27//6
f 35//4 37//4 38//4
f 42//5 40//5 36//5
f 39//1 41//1 37//1
f 41//2 42//2 38//2
f 40//6 39//6 35//6
f 3//1 7//1 2//1
f 7//2 5//2 6//2
f 5//3 7//3 1//3
f 12//4 11//4 14//4
f 14//5 18//5 12//5
f 11//1 15//1 13//1
f 13//2 17//2 14//2
f 12//6 16//6 11//6
f 9//5 10//5 1//5
f 1//6 3//6 9//6
f 20//4 19//4 22//4
f 6//5 4//5 10//5
f 9//4 2//4 6//4
f 22//5 26//5 20//5
f 19//1 23//1 21//1
f 21//2 25//2 22//2
f 20//6 24//6 19//6
f 28//4 27//4 30//4
f 30//5 34//5 28//5
f 27//1 31//1 29//1
f 29//2 33//2 30//2
f 28//6 32//6 27//6
f 36//4 35//4 38//4
f 38//5 42//5 36//5
f 35//1 39//1 37//1
f 37//2 41//2 38//2
f 36//6 40//6 35//6
l 8 4
l 2 8
