# Blender v2.76 (sub 0) OBJ File: 'room.blend'
# www.blender.org
mtllib Cube.mtl
o Cube
v 0.000000 0.000000 0.000000
v 0.000000 -0.000000 0.240000
v -0.400000 -0.000000 0.240000
v -0.400000 0.000000 0.000000
v -0.000001 0.350000 0.240001
v -0.390000 0.350000 0.240000
v -0.390000 0.260000 0.240000
v -0.400000 0.250000 0.240000
v 0.000000 0.350000 0.000001
v -0.400000 0.250000 0.000000
v -0.390000 0.260000 0.000000
v -0.390000 0.350000 0.000000
vn 0.000000 -1.000000 -0.000000
vn -0.707100 0.707100 0.000000
vn -0.000000 1.000000 0.000000
vn -0.000000 -0.000000 1.000000
vn 0.000000 0.000000 -1.000000
vn 1.000000 0.000000 0.000000
vn -1.000000 -0.000000 0.000000
usemtl Material.004
s 1
f 2//1 3//1 4//1
f 8//2 7//2 11//2
f 9//3 12//3 6//3
f 1//1 2//1 4//1
f 10//2 8//2 11//2
f 5//3 9//3 6//3
s 2
f 5//4 7//4 2//4
f 11//5 1//5 4//5
f 3//4 2//4 7//4
f 5//4 6//4 7//4
f 7//4 8//4 3//4
f 4//5 10//5 11//5
f 11//5 12//5 9//5
f 9//5 1//5 11//5
s 4
f 9//6 5//6 2//6
f 8//7 10//7 4//7
f 7//7 6//7 12//7
f 1//6 9//6 2//6
f 3//7 8//7 4//7
f 11//7 7//7 12//7
